<?xml version="1.0" encoding="utf-8"?>
<!-- Generator: Adobe Illustrator 16.0.0, SVG Export Plug-In . SVG Version: 6.00 Build 0)  -->
<!DOCTYPE svg PUBLIC "-//W3C//DTD SVG 1.1//EN" "http://www.w3.org/Graphics/SVG/1.1/DTD/svg11.dtd">
<svg version="1.1"
	 id="svg2" xmlns:dc="http://purl.org/dc/elements/1.1/" xmlns:cc="http://creativecommons.org/ns#" xmlns:rdf="http://www.w3.org/1999/02/22-rdf-syntax-ns#" xmlns:svg="http://www.w3.org/2000/svg" xmlns:sodipodi="http://sodipodi.sourceforge.net/DTD/sodipodi-0.dtd" xmlns:inkscape="http://www.inkscape.org/namespaces/inkscape" sodipodi:docname="ctulumachin.svg" inkscape:version="0.91pre3 r13670"
	 xmlns="http://www.w3.org/2000/svg" xmlns:xlink="http://www.w3.org/1999/xlink" x="0px" y="0px" width="60.476px" height="56px"
	 viewBox="68.798 53.95 60.476 56" enable-background="new 68.798 53.95 60.476 56" xml:space="preserve">
<sodipodi:namedview  showgrid="false" inkscape:cy="938.26808" inkscape:cx="353.41504" inkscape:zoom="2" borderopacity="1.0" bordercolor="#666666" pagecolor="#ffffff" id="base" inkscape:window-maximized="1" inkscape:window-y="-8" inkscape:current-layer="layer1" inkscape:window-x="-8" inkscape:pageshadow="2" inkscape:document-units="px" inkscape:pageopacity="0.0" inkscape:window-height="837" inkscape:window-width="1600">
	</sodipodi:namedview>
<g id="layer1" inkscape:label="Calque 1" inkscape:groupmode="layer">
	<g id="g4657" transform="matrix(0.17648675,0,0,0.17648675,45.532698,56.480245)">
		<circle id="path4136" fill="#479F00" cx="303.159" cy="72.65" r="82.51"/>
		<path id="path4214" inkscape:connector-curvature="0" fill="#F8AD32" d="M264.642,57.281c-6.745,0-12.212,5.467-12.212,12.207
			c0,6.745,5.467,12.212,12.207,12.212c0,0,0,0,0.006,0c6.74,0,12.207-5.467,12.207-12.207c0-0.005,0-0.005,0-0.005
			C276.848,62.748,271.381,57.281,264.642,57.281z M341.677,57.281c-6.745,0-12.207,5.467-12.207,12.207
			c0,6.745,5.461,12.212,12.207,12.212l0,0c6.74,0,12.207-5.467,12.207-12.207c0-0.005,0-0.005,0-0.005
			C353.883,62.748,348.417,57.281,341.677,57.281z"/>
		<path id="path4235" inkscape:connector-curvature="0" fill="#479F00" d="M201.705,96.646l-12.627,10.104l-5.052,13.468
			l-11.792,5.052l-21.043-2.523l26.942,9.257l13.468-5.052l8.416-10.945l20.208,3.37l11.786,10.104l-26.936-3.37l-16.844,10.945
			l-6.734,22.736l-9.263,16.833l-23.572,5.052l-16.838-4.206l26.942,14.315l25.26-5.898l18.52-18.52l10.104-14.315l20.208,5.893
			l34.517-3.364l-26.101,7.575l-20.208,17.685l1.688,31.147l4.211,21.049l-14.315,14.315l-26.101-4.211l23.578,13.468l22.731-3.364
			l18.52-19.367l-1.682-25.26l2.523-19.361l21.89-5.893l9.96-4.742l-2.213,14.425l9.052,17.469l-17.895,15.366l-2.313,21.89
			l28.248,25.254l2.523,26.527l10.441-26.438l-3.746-9.938l-13.009-22.565l20.042-11.365l7.996-17.259l-5.472-19.367l2.274-10.939
			l12.207,1.682l21.89,5.893l2.529,19.361l-1.688,25.26l18.526,19.367l22.731,3.364l23.572-13.468l-26.095,4.211l-14.315-14.315
			l4.211-21.049l1.682-31.147l-20.208-17.685l-26.101-7.575l34.522,3.364l20.208-5.893l10.098,14.315l18.526,18.52l25.254,5.898
			l26.942-14.315l-16.838,4.206l-23.572-5.052l-9.263-16.833l-6.734-22.736l-16.838-10.945l-26.942,3.37l11.786-10.104l20.208-3.37
			l8.416,10.945l13.474,5.052l26.942-9.257l-21.049,2.523l-11.786-5.052l-5.052-13.468l-12.627-10.104l-26.101,8.416l-26.101,26.101
			L303.159,146.8l-49.252-15.637l-26.101-26.101L201.705,96.646z"/>
		<path id="path4256" inkscape:connector-curvature="0" fill="#479F00" d="M278.818,110.335l-15.997,4.211l-19.367,8.416
			l-15.997,20.208l-17.851,31.911l-15.659,8.499l19.029-0.083l16.672-14.226l22.227-23.572l14.315-4.211l21.89-1.688l15.078-11.111
			l15.078,11.111l21.89,1.688l14.309,4.211l22.233,23.572l16.666,14.226l19.029,0.083l-15.659-8.499l-17.851-31.911l-15.997-20.208
			l-19.367-8.416l-15.997-4.211l-24.336,17.037L278.818,110.335z"/>
		<path id="path4391" inkscape:connector-curvature="0" fill="#873A03" d="M264.747,64.497c-2.905,0-5.262,2.352-5.262,5.257
			c0,2.911,2.352,5.262,5.262,5.262l0,0c2.905,0,5.262-2.352,5.257-5.262C270.004,66.849,267.652,64.497,264.747,64.497z
			 M341.572,64.497c-2.905,0-5.262,2.352-5.262,5.257c0,2.911,2.357,5.262,5.262,5.262c2.905,0,5.262-2.352,5.262-5.262l0,0
			C346.834,66.849,344.477,64.497,341.572,64.497z"/>
		<path id="path4138-8" inkscape:connector-curvature="0" fill="#81D43F" d="M307.791-2.28l-31.994,4.206l-21.89,14.315
			l-6.74,16.838l6.74-5.893l11.786,11.786l-0.841-11.786l5.052-8.422l7.575,12.633l14.315,5.052l-11.792-12.633v-7.575l16.844,2.523
			l0.841,6.74l12.627-5.052l-15.156-8.421l14.315-1.682l16.838,10.104l-3.37-10.945l23.578,5.046l-7.581-7.575L307.791-2.28z
			 M234.695,51.139l-5.694,13.219l14.221,16.6l40.288,1.488l11.764,3.437l-10.054-7.404l-38.578-5.45l-11.864-9.147L234.695,51.139z
			 M371.623,51.139l-0.083,12.743l-11.864,9.147l-38.584,5.45l-10.054,7.404l11.764-3.437l40.288-1.488l14.221-16.6L371.623,51.139z
			 M295.164,92.861l-11.786,15.156l-14.315,2.523l-26.101,11.786l-13.468,15.156l-3.37,14.315l7.581-10.945l10.104-12.632
			l11.786-3.364l31.153-11.786L295.164,92.861z M311.149,92.861l8.422,20.208l31.153,11.786l11.786,3.364l10.104,12.632
			l7.575,10.945l-3.37-14.315l-13.468-15.156L337.25,110.54l-14.315-2.523L311.149,92.861z M224.874,107.242l10.12,7.736
			l7.144,2.977l13.689-6.546l-13.689,1.782l-10.12-5.356L224.874,107.242z M381.445,107.242l-7.144,0.592l-10.12,5.356
			l-13.695-1.782l13.695,6.546l7.144-2.977L381.445,107.242z M303.154,119.111l-9.373,8.001l-18.039,8.5l-1.599,9.263l0.841,2.523
			l7.581,6.822l-3.032,6.27l-11.028,11.072l12.627-6.817l5.854-14.121l-4.676-5.837l3.53-10.856l9.7-4.587h15.233l9.7,4.587
			l3.53,10.856l-4.676,5.837l5.854,14.121l12.633,6.817l-11.033-11.072l-3.027-6.27l7.575-6.822l0.841-2.523l-1.599-9.263
			l-18.039-8.5L303.154,119.111z M297.88,167.887l-5.246,7.476l6.889-2.13l-0.896,13.324l-2.081,6.778l3.962-0.935l6.435,10.751
			l0.105,9.257l-11.747,4.609l-8.704,10.896l-4.808,10.646l13.369,11.736l-8.715-11.886l2.628-9.805l9.556-8.422l8.864-1.981
			l7.575-6.883l-3.469-10.89l-5.052-7.088l-2.966-8.715l7.525-1.837l-7.431-3.514l1.489-7.575l6.734,2.523l-4.017-5.788
			L297.88,167.887z M241.092,174.511l-11.31,10.718l4.764,29.764l0.592-28.574L241.092,174.511z M365.221,174.511l5.954,11.908
			l0.598,28.574l4.759-29.764L365.221,174.511z"/>
		<path id="path4138" inkscape:connector-curvature="0" fill="#356B09" d="M228.531,40.759l11.415,4.465l9.097,21.038l7.31-9.329
			l16.406,11.714l6.491-0.548l0.089,7.304l14.818-11.216l3.569-13.944l-7.846,10.038h-14.979l-33.886-19.239L228.531,40.759z
			 M377.782,40.759l-12.483,0.282L331.418,60.28h-14.979l-7.846-10.038l3.563,13.944l15.034,9.534l0.719-5.622l5.65,0.548
			l16.401-11.714l7.907,8.433l8.499-20.142L377.782,40.759z M228.741,74.047l7.144,18.459l7.144,4.759l-3.574-7.144l9.528,4.764
			l17.862-4.167l-21.431-3.575l-9.528-4.167L228.741,74.047z M377.577,74.047l-7.144,8.931l-9.528,4.167l-21.431,3.575l17.856,4.167
			l9.528-4.764l-3.574,7.144l7.149-4.759L377.577,74.047z M333.709,134.2l1.787,6.253l5.655-1.489l12.616,8.073l9.152,6.845
			l-6.773-9.523l-13.208-9.268L333.709,134.2z M272.604,134.399l-9.23,0.896l-13.208,9.263l-6.773,9.528l9.152-6.85l12.616-8.073
			l5.655,1.488L272.604,134.399z M216.579,136.452l-10.12,0.598l0.598,7.144l-2.977,4.764l-5.954-2.385l-4.759,7.741l5.356,4.764
			l-4.167,7.144l-5.362,0.592l-2.379,7.143l10.718-5.948l8.333-11.315l5.356-8.931l8.931,4.167l2.379-6.546l-6.546-1.788
			L216.579,136.452z M389.734,136.452l0.598,7.144l-6.552,1.788l2.385,6.546l8.925-4.167l5.362,8.931l8.333,11.315l10.718,5.948
			l-2.385-7.143l-5.356-0.592l-4.167-7.144l5.356-4.764l-4.764-7.741l-5.954,2.385l-2.977-4.764l0.598-7.144L389.734,136.452z
			 M298.722,139.164l-6.928,10.099l0.847,7.475l5.019-10.392l5.871-2.921l5.495,3.342l4.537,11.194l0.963-7.852l-6.54-10.945
			H298.722z M291.993,161.192l-9.224,10.121l-18.16,5.655l-4.167,6.546l6.253-5.649l16.965-3.874L291.993,161.192z M314.32,161.192
			l8.333,12.798l16.971,3.874l6.247,5.649l-4.167-6.546l-18.155-5.655L314.32,161.192z M245.624,204.014l-2.944,14.83l-0.232,11.902
			l-14.923,20.075l10.879-8.123l8.632-9.125l0.083-16.55L245.624,204.014z M360.689,204.014l-1.494,13.009l0.083,16.55l8.632,9.125
			l10.879,8.123l-14.918-20.075l-0.232-11.902L360.689,204.014z"/>
	</g>
</g>
</svg>
