<?xml version="1.0" encoding="utf-8"?>
<!DOCTYPE svg PUBLIC "-//W3C//DTD SVG 1.1//EN" "http://www.w3.org/Graphics/SVG/1.1/DTD/svg11.dtd">
<!-- Clemoji 3.0: bounce.svg (bounce) - licence GPLv3 or later - Author A-312 - https://zestedesavoir.com/ -->
<svg version="1.1" id="clemoji3_bounce" xmlns="http://www.w3.org/2000/svg" xmlns:xlink="http://www.w3.org/1999/xlink" x="0px" y="0px" width="19px" height="27.834px" viewBox="0 0 19 27.834" enable-background="new 0 0 19 27.834" xml:space="preserve">
<g id="g10_frame1" transform="matrix(1.25,0,0,-1.25,-2.5,62.5)">
	<g id="gfeuille" transform="translate(113.91075,50.659)">
		<path id="path41" fill="#479F00" d="M-101.165-5.16c-3.139-1.035-4.918-4.192-3.975-7.052c0.022-0.059,0.043-0.117,0.065-0.175c0.127,0.031,0.256,0.067,0.381,0.106c3.14,1.033,4.918,4.192,3.975,7.051c0,0,0,0,0,0.002c-0.02,0.058-0.041,0.117-0.066,0.174C-100.911-5.084-101.04-5.121-101.165-5.16L-101.165-5.16z"/>
		<path id="path41-2" fill="#479F00" d="M-106.872-6.182c2.053-1.492,2.614-4.22,1.255-6.09c-0.029-0.038-0.057-0.077-0.089-0.114c-0.087,0.053-0.172,0.111-0.255,0.169c-2.053,1.492-2.616,4.219-1.255,6.09c0,0.001,0,0.001,0,0.001c0.029,0.038,0.059,0.075,0.089,0.112C-107.041-6.068-106.956-6.123-106.872-6.182L-106.872-6.182z"/>
	</g>
	<g id="g20" transform="translate(36,19)">
		<path id="path22" fill="#FAAC2C" d="M-18.889,15.027c0-2.89-3.362-5.232-7.511-5.232c-4.148,0-7.511,2.343-7.511,5.232c0,2.891,3.363,5.234,7.511,5.234C-22.252,20.261-18.889,17.918-18.889,15.027"/>
	</g>
	<path id="g24" display="none" fill="#FFFFFF" d="M9.82,33.929c0.116-2.061,2.266-3.633,3.437-3.634c0.802,0,2.195,0.372,3.05,3.732L9.82,33.929z"/>
	<path id="g24_1_" fill="#FFFFFF" d="M9.306,33.756c0.101-1.78,1.97-3.137,2.988-3.138c0.698,0,1.908,0.321,2.652,3.222L9.306,33.756z"/>
	<path fill="#992500" d="M7.429,34.96c-0.024,0-0.047,0.002-0.071,0.005c-0.267,0.03-0.452,0.228-0.413,0.441c0.115,0.638,0.809,1.119,1.615,1.12c0.809-0.003,1.503-0.484,1.618-1.12c0.038-0.212-0.147-0.411-0.414-0.441c-0.265-0.025-0.515,0.117-0.554,0.33c-0.046,0.256-0.325,0.45-0.65,0.45c-0.322,0-0.601-0.194-0.647-0.45C7.876,35.101,7.666,34.96,7.429,34.96z"/>
	<path fill="#992500" d="M16.598,35.929c-0.484-0.182-0.591-0.37-0.637-0.627c-0.036-0.194-0.245-0.334-0.484-0.334c-0.023,0-0.047,0.002-0.07,0.005c-0.267,0.03-0.452,0.228-0.413,0.441c0.206,0.516,0.557,0.98,1.208,1.113"/>
</g>
</svg>
