<?xml version="1.0" encoding="utf-8"?>
<!DOCTYPE svg PUBLIC "-//W3C//DTD SVG 1.1//EN" "http://www.w3.org/Graphics/SVG/1.1/DTD/svg11.dtd">
<!-- Clemoji 3.0: bounce.svg (bounce) - licence GPLv3 or later - Author A-312 - https://zestedesavoir.com/ -->
<svg version="1.1" id="clemoji3_bounce" xmlns="http://www.w3.org/2000/svg" xmlns:xlink="http://www.w3.org/1999/xlink" x="0px" y="0px" width="19px" height="27.834px" viewBox="0 0 19 27.834" enable-background="new 0 0 19 27.834" xml:space="preserve">
<g id="g10_frame2" transform="matrix(1.25,0,0,-1.25,-2.5,62.5)">
	<g id="gfeuille" transform="translate(113.91075,50.659)">
		<path id="path41" fill="#479F00" d="M-99.009,0.645c-3.278,0.426-6.248-1.65-6.636-4.636c-0.006-0.063-0.013-0.124-0.017-0.186c0.128-0.027,0.26-0.05,0.39-0.069c3.278-0.428,6.248,1.65,6.636,4.635c0,0,0,0,0.001,0.002c0.007,0.061,0.014,0.123,0.016,0.185C-98.747,0.603-98.879,0.626-99.009,0.645L-99.009,0.645z"/>
		<path id="path41-2" fill="#479F00" d="M-108.635,0.236c2.538-0.031,4.572-1.933,4.544-4.245c-0.002-0.048-0.003-0.096-0.007-0.145c-0.102-0.007-0.204-0.009-0.305-0.009c-2.538,0.031-4.573,1.931-4.545,4.245c0,0.001,0,0.001,0,0.001c0.001,0.048,0.004,0.096,0.008,0.143C-108.839,0.231-108.738,0.236-108.635,0.236L-108.635,0.236z"/>
	</g>
	<g id="g20" transform="translate(36,19)">
		<path id="path22" fill="#FAAC2C" d="M-18.889,20.396c0-4.19-3.362-7.587-7.511-7.587c-4.148,0-7.511,3.398-7.511,7.587c0,4.192,3.363,7.59,7.511,7.59C-22.252,27.986-18.889,24.589-18.889,20.396"/>
	</g>
	<path id="g24" fill="#FFFFFF" d="M9.82,37.743c0.084-2.061,1.645-3.633,2.495-3.634c0.583,0,1.594,0.372,2.214,3.732L9.82,37.743z"/>
	<path fill="#992500" d="M7.429,38.961c-0.024,0-0.047,0.002-0.071,0.004c-0.267,0.03-0.452,0.228-0.413,0.441c0.115,0.637,0.809,1.118,1.615,1.12c0.809-0.003,1.503-0.484,1.618-1.12c0.038-0.213-0.147-0.411-0.414-0.441c-0.265-0.025-0.515,0.118-0.554,0.33c-0.046,0.256-0.325,0.449-0.65,0.45c-0.322-0.001-0.601-0.194-0.647-0.45C7.876,39.102,7.666,38.961,7.429,38.961z"/>
    <path fill="#992500" d="M18.878,12.821c-0.712,0-0.991,0.24-1.049,0.56c-0.045,0.242-0.307,0.418-0.604,0.418c-0.029,0-0.059-0.002-0.088-0.005c-0.334-0.038-0.564-0.285-0.517-0.552c0.144-0.797,1.131-1.399,2.269-1.399"/>
</g>
</svg>
