<?xml version="1.0" encoding="utf-8"?>
<!DOCTYPE svg PUBLIC "-//W3C//DTD SVG 1.1//EN" "http://www.w3.org/Graphics/SVG/1.1/DTD/svg11.dtd">
<!-- Clemoji 3.0: bounce.svg (bounce) - licence GPLv3 or later - Author A-312 - https://zestedesavoir.com/ -->
<svg version="1.1" id="clemoji3_bounce" xmlns="http://www.w3.org/2000/svg" xmlns:xlink="http://www.w3.org/1999/xlink" x="0px" y="0px" width="19px" height="27.834px" viewBox="0 0 19 27.834" enable-background="new 0 0 19 27.834" xml:space="preserve">
<g id="g10_frame3" transform="matrix(1.25,0,0,-1.25,-2.5,62.5)">
	<g id="gfeuille" transform="translate(113.91075,50.659)">
		<path id="path41" fill="#479F00" d="M-96.276-3.122c-2.484,2.181-6.106,2.113-8.093-0.15c-0.04-0.048-0.079-0.096-0.118-0.145c0.091-0.093,0.188-0.186,0.285-0.274c2.483-2.182,6.107-2.113,8.094,0.149c0,0,0,0,0.002,0.001c0.04,0.046,0.08,0.095,0.116,0.144C-96.083-3.303-96.179-3.211-96.276-3.122L-96.276-3.122z"/>
		<path id="path41-2" fill="#479F00" d="M-109.411-1.992c2.267,1.141,4.948,0.39,5.987-1.675c0.021-0.044,0.042-0.087,0.062-0.132c-0.088-0.053-0.177-0.102-0.266-0.149c-2.268-1.141-4.95-0.391-5.989,1.675c-0.001,0.001-0.001,0.001-0.001,0.001c-0.021,0.043-0.04,0.087-0.058,0.13C-109.59-2.09-109.503-2.039-109.411-1.992L-109.411-1.992z"/>
	</g>
	<g id="g20" transform="translate(36,19)">
		<path id="path22" fill="#FAAC2C" d="M-18.889,20.396c0-4.19-3.362-7.587-7.511-7.587c-4.148,0-7.511,3.398-7.511,7.587c0,4.192,3.363,7.59,7.511,7.59C-22.252,27.986-18.889,24.589-18.889,20.396"/>
	</g>
	<path id="g24" fill="#FFFFFF" d="M9.82,38.543c0.084-2.061,1.645-3.633,2.495-3.634c0.583,0,1.594,0.372,2.214,3.732L9.82,38.543z"/>
	<path fill="#992500" d="M7.429,40.561c-0.024,0-0.047,0.002-0.071,0.004c-0.267,0.03-0.452,0.228-0.413,0.441c0.115,0.637,0.809,1.118,1.615,1.12c0.809-0.003,1.503-0.484,1.618-1.12c0.038-0.213-0.147-0.411-0.414-0.441c-0.265-0.025-0.515,0.118-0.554,0.33c-0.046,0.256-0.325,0.449-0.65,0.45c-0.322-0.001-0.601-0.194-0.647-0.45C7.876,40.702,7.666,40.561,7.429,40.561z"/>
	<path fill="#992500" d="M16.864,41.329c-0.399-0.148-0.34-0.036-0.601-0.433c-0.036-0.194-0.245-0.334-0.484-0.334c-0.023,0-0.047,0.002-0.07,0.004c-0.267,0.03-0.452,0.228-0.413,0.441c-0.005,0.494,0.781,1.018,1.325,1.09"/>
</g>
</svg>
