<?xml version="1.0" encoding="utf-8"?>
<!DOCTYPE svg PUBLIC "-//W3C//DTD SVG 1.1//EN" "http://www.w3.org/Graphics/SVG/1.1/DTD/svg11.dtd">
<!-- Clemoji 3.0: bounce.svg (bounce) - licence GPLv3 or later - Author A-312 - https://zestedesavoir.com/ -->
<svg version="1.1" id="clemoji3_bounce" xmlns="http://www.w3.org/2000/svg" xmlns:xlink="http://www.w3.org/1999/xlink" x="0px" y="0px" width="19px" height="27.834px" viewBox="0 0 19 27.834" enable-background="new 0 0 19 27.834" xml:space="preserve">
<g id="g10_frame4" transform="matrix(1.25,0,0,-1.25,-2.5,62.5)">
	<g id="gfeuille" transform="translate(113.91075,50.659)">
		<path id="path41" fill="#479F00" d="M-96.272-4.431c-2.185,2.48-5.787,2.876-8.046,0.885c-0.045-0.043-0.091-0.085-0.136-0.129c0.079-0.104,0.163-0.209,0.248-0.309c2.184-2.482,5.788-2.876,8.047-0.886c0,0,0,0,0.001,0.001c0.046,0.041,0.091,0.084,0.134,0.128C-96.103-4.635-96.187-4.531-96.272-4.431L-96.272-4.431z"/>
		<path id="path41-2" fill="#479F00" d="M-109.484-2.836c2.162,1.33,4.897,0.81,6.108-1.159c0.025-0.042,0.05-0.083,0.073-0.126c-0.083-0.061-0.168-0.117-0.252-0.171c-2.163-1.33-4.898-0.812-6.11,1.159c0,0.001,0,0.001,0,0.001c-0.025,0.041-0.047,0.083-0.069,0.125C-109.653-2.948-109.571-2.891-109.484-2.836L-109.484-2.836z"/>
	</g>
	<g id="g20" transform="translate(36,19)">
		<path id="path22" fill="#FAAC2C" d="M-18.889,20.396c0-4.19-3.362-7.587-7.511-7.587c-4.148,0-7.511,3.398-7.511,7.587c0,4.192,3.363,7.59,7.511,7.59C-22.252,27.986-18.889,24.589-18.889,20.396"/>
	</g>
	<path id="g24" fill="#FFFFFF" d="M9.82,39.343c0.084-2.061,1.645-3.633,2.495-3.634c0.583,0,1.594,0.372,2.214,3.732L9.82,39.343z"/>
	<path fill="#992500" d="M7.429,41.361c-0.024,0-0.047,0.002-0.071,0.004c-0.267,0.03-0.452,0.228-0.413,0.441c0.115,0.638,0.809,1.118,1.615,1.12c0.809-0.003,1.503-0.484,1.618-1.12c0.038-0.213-0.147-0.411-0.414-0.441c-0.265-0.025-0.515,0.118-0.554,0.33c-0.046,0.256-0.325,0.449-0.65,0.45c-0.322-0.001-0.601-0.194-0.647-0.45C7.876,41.502,7.666,41.361,7.429,41.361z"/>
	<path fill="#992500" d="M16.628,42.078c-0.154-0.063-0.319-0.126-0.365-0.382c-0.036-0.194-0.245-0.334-0.484-0.334c-0.023,0-0.047,0.002-0.07,0.004c-0.267,0.03-0.452,0.228-0.413,0.441c0.13,0.466,0.438,1.03,0.999,1.03"/>
</g>
</svg>
