<?xml version="1.0" encoding="utf-8"?>
<!DOCTYPE svg PUBLIC "-//W3C//DTD SVG 1.1//EN" "http://www.w3.org/Graphics/SVG/1.1/DTD/svg11.dtd">
<!-- Clemoji 3.0: bounce.svg (bounce) - licence GPLv3 or later - Author A-312 - https://zestedesavoir.com/ -->
<svg version="1.1" id="clemoji3_bounce" xmlns="http://www.w3.org/2000/svg" xmlns:xlink="http://www.w3.org/1999/xlink" x="0px" y="0px" width="19px" height="27.834px" viewBox="0 0 19 27.834" enable-background="new 0 0 19 27.834" xml:space="preserve">
<g id="g10_frame6" transform="matrix(1.25,0,0,-1.25,-2.5,62.5)">
	<g id="gfeuille" transform="translate(113.91075,50.659)">
		<path id="path41" fill="#479F00" d="M-97.822-1.536c-3.262,0.543-6.303-1.425-6.798-4.396c-0.009-0.062-0.017-0.123-0.024-0.185c0.127-0.031,0.258-0.059,0.388-0.082c3.26-0.545,6.303,1.425,6.798,4.396c0,0,0,0,0.001,0.001c0.009,0.061,0.018,0.123,0.022,0.184C-97.562-1.587-97.693-1.559-97.822-1.536L-97.822-1.536z"/>
		<path id="path41-2" fill="#479F00" d="M-108.754-1.633c2.537-0.074,4.538-2.01,4.471-4.321c-0.004-0.048-0.004-0.096-0.009-0.145c-0.102-0.005-0.204-0.006-0.305-0.004c-2.538,0.074-4.54,2.009-4.472,4.321c0,0.001,0,0.001,0,0.001c0.002,0.048,0.006,0.095,0.011,0.143C-108.958-1.634-108.858-1.631-108.754-1.633L-108.754-1.633z"/>
	</g>
	<g id="g20" transform="translate(36,19)">
		<path id="path22" fill="#FAAC2C" d="M-18.889,18.796c0-4.191-3.362-7.587-7.511-7.587c-4.148,0-7.511,3.398-7.511,7.587c0,4.192,3.363,7.59,7.511,7.59C-22.252,26.386-18.889,22.989-18.889,18.796"/>
	</g>
	<path id="g24" fill="#FFFFFF" d="M9.82,38.543c0.084-2.061,1.645-3.633,2.495-3.634c0.583,0,1.594,0.372,2.214,3.732L9.82,38.543z"/>
	<path fill="#992500" d="M7.429,40.561c-0.024,0-0.047,0.002-0.071,0.004c-0.267,0.03-0.452,0.228-0.413,0.441c0.115,0.637,0.809,1.118,1.615,1.12c0.809-0.003,1.503-0.484,1.618-1.12c0.038-0.213-0.147-0.411-0.414-0.441c-0.265-0.025-0.515,0.118-0.554,0.33c-0.046,0.256-0.325,0.449-0.65,0.45c-0.322-0.001-0.601-0.194-0.647-0.45C7.876,40.702,7.666,40.561,7.429,40.561z"/>
	<path fill="#992500" d="M16.4,41.023c-0.231-0.136-0.382-0.462-0.62-0.462c-0.023,0-0.047,0.002-0.07,0.004c-0.267,0.03-0.452,0.228-0.413,0.441c-0.005,0.494,0.306,0.572,0.657,0.838"/>
</g>
</svg>
