<?xml version="1.0" encoding="utf-8"?>
<!-- Generator: Adobe Illustrator 20.1.0, SVG Export Plug-In . SVG Version: 6.00 Build 0)  -->
<svg version="1.1" id="Calque_1" xmlns="http://www.w3.org/2000/svg" xmlns:xlink="http://www.w3.org/1999/xlink" x="0px" y="0px"
	 viewBox="0 0 1024 1024" style="enable-background:new 0 0 1024 1024;" xml:space="preserve">
<style type="text/css">
	.st0{opacity:0.2;fill:#6C8B8E;enable-background:new    ;}
	.st1{fill:#FF8112;}
	.st2{opacity:0.5;fill:url(#SVGID_1_);enable-background:new    ;}
	.st3{opacity:0.5;fill:url(#SVGID_2_);enable-background:new    ;}
	.st4{fill:#4B632F;}
	.st5{fill:#537022;}
	.st6{opacity:0.5;fill:url(#SVGID_3_);enable-background:new    ;}
	.st7{fill:#CC6100;}
	.st8{fill:#B8BF7B;}
	.st9{fill:#FFC697;}
	.st10{fill:#1E0C00;}
	.st11{fill:#381A01;}
	.st12{fill:#E1793B;}
	.st13{fill:#5B2700;}
	.st14{fill:#FFFFFF;}
	.st15{fill:url(#SVGID_4_);}
	.st16{fill:url(#SVGID_5_);}
	.st17{fill:#D1CD7D;}
	.st18{fill:#72390E;}
	.st19{opacity:0.63;fill:url(#SVGID_6_);enable-background:new    ;}
	.st20{opacity:0.2;fill:url(#SVGID_7_);enable-background:new    ;}
	.st21{opacity:0.2;fill:url(#SVGID_8_);enable-background:new    ;}
</style>
<title>clem happy</title>
<ellipse class="st0" cx="525.2" cy="992.1" rx="200.5" ry="22.3"/>
<g>
	<g id="Calque_1_1_">
		<g>
			<path class="st1" d="M755.1,744.3c9.5,129.7-89.8,232.1-219.5,241.6S293,898,283.5,768.3c-5.4-73,14.5-146,63.5-192.9
				c38.1-36.5,97.4-55,154.1-59.2c46.2-3.4,105.2,5.6,143.5,27.8C713.9,583.9,749,660.9,755.1,744.3z"/>
			
				<linearGradient id="SVGID_1_" gradientUnits="userSpaceOnUse" x1="519.1709" y1="-30.7" x2="519.1709" y2="173.12" gradientTransform="matrix(1 0 0 -1 0 1023.28)">
				<stop  offset="0" style="stop-color:#4B005C"/>
				<stop  offset="1" style="stop-color:#4B005C;stop-opacity:0"/>
			</linearGradient>
			<path class="st2" d="M755.1,744.3c9.5,129.7-89.8,232.1-219.5,241.6S293,898,283.5,768.3c-5.4-73,14.5-146,63.5-192.9
				c38.1-36.5,97.4-55,154.1-59.2c46.2-3.4,105.2,5.6,143.5,27.8C713.9,583.9,749,660.9,755.1,744.3z"/>
			
				<radialGradient id="SVGID_2_" cx="524.47" cy="306.3775" r="249.23" gradientTransform="matrix(1 0 0 -0.93 -0.62 1015.6104)" gradientUnits="userSpaceOnUse">
				<stop  offset="0" style="stop-color:#FFFFFF"/>
				<stop  offset="1" style="stop-color:#FFFFFF;stop-opacity:0"/>
			</radialGradient>
			<path class="st3" d="M755.1,744.3c9.5,129.7-89.8,232.1-219.5,241.6S293,898,283.5,768.3c-5.4-73,14.5-146,63.5-192.9
				c38.1-36.5,97.4-55,154.1-59.2c46.2-3.4,105.2,5.6,143.5,27.8C713.9,583.9,749,660.9,755.1,744.3z"/>
			<path class="st4" d="M724.2,295.6C681,418.7,559.4,488.1,559.4,488.1s-51.7-130.1-8.5-253.2C585.5,136,698.8,26.1,698.8,26.1
				L727,9.9C727,9.9,767.3,172.6,724.2,295.6z"/>
			<g>
				<polygon class="st5" points="573.5,453.3 658.9,404.4 574.5,455.2 				"/>
				<polygon class="st5" points="584.7,420.5 693.9,359.8 585.8,422.3 				"/>
				<polygon class="st5" points="596,387.6 709.8,324.5 597,389.5 				"/>
				<polygon class="st5" points="607.2,354.7 723.3,288 608.2,356.6 				"/>
				<polygon class="st5" points="618.4,321.9 734.2,253 619.5,323.7 				"/>
				<polygon class="st5" points="629.7,289 734.6,229.7 630.7,290.9 				"/>
				<polygon class="st5" points="640.9,256.2 734.6,206.4 641.9,258 				"/>
				<polygon class="st5" points="652.1,223.3 743.4,174.2 653.1,225.2 				"/>
				<polygon class="st5" points="663.3,190.5 744.1,149.8 664.4,192.3 				"/>
				<polygon class="st5" points="674.6,157.6 739.2,122.6 675.6,159.5 				"/>
				<polygon class="st5" points="685.8,124.8 738.1,97.1 686.8,126.6 				"/>
				<polygon class="st5" points="697,91.9 726.6,76.3 698,93.7 				"/>
				<polygon class="st5" points="708.2,59 732.8,46.5 709.3,60.9 				"/>
			</g>
			
				<radialGradient id="SVGID_3_" cx="530.79" cy="555.1467" r="39.66" gradientTransform="matrix(1 0 0 -0.96 7.66 1090.5288)" gradientUnits="userSpaceOnUse">
				<stop  offset="0" style="stop-color:#000000"/>
				<stop  offset="1" style="stop-color:#000000;stop-opacity:0"/>
			</radialGradient>
			<path class="st6" d="M567.5,529.3c11.1,4.1,18.5,10.8,19.1,19c1.1,14.7-20.3,28.2-47.8,30.2s-50.6-8.2-51.7-22.9
				c-0.5-6.7,3.7-13.1,10.9-18.3"/>
			<path class="st5" d="M552,539.7c1.8,0.1,3.6,0.5,5.3,1.2c1.9,0.8,3.5,2,4.8,3.6c0.7,0.9,1.2,2,1.6,3.1l0.2,0.9v0.1
				c0-0.1,0,0.2,0,0.2v0.1v0.2l0.1,0.3c0,0.3,0.1,0.7,0.1,1c0,0.4,0,0.6,0,1c-0.2,2.4-1.1,4.6-2.5,6.5c-2.5,3.3-5.8,5.9-9.5,7.5
				c-3.5,1.6-7.2,2.6-11,3c-0.9,0.1-2,0.2-2.8,0.2c-1,0-2,0-2.9,0c-1.9-0.1-3.8-0.3-5.7-0.7c-3.9-0.7-7.6-2.3-10.8-4.5
				c-1.8-1.3-3.3-2.9-4.4-4.7c-1.2-2-1.8-4.3-1.5-6.7c0.3-2.1,1.3-4.1,2.8-5.6c1.3-1.3,2.9-2.2,4.7-2.8c-1,1.4-1.7,2.8-2.3,4.4
				c-0.4,1.2-0.5,2.6-0.1,3.8c0.7,2.1,2.6,3.3,5,4.4c4.9,1.9,11,2.2,16.7,1.7c2.9-0.3,5.7-0.9,8.4-1.8c2.5-0.7,4.9-2,7-3.6
				c1.7-1.5,2.8-3,2.3-5.4c-0.4-1.4-1-2.6-2-3.7C554.4,541.9,553.3,540.7,552,539.7z"/>
			<path class="st7" d="M543.6,543l0.4,0.1c1.1,0.3,2.1,0.8,2.9,1.5c0.7,0.6,1.3,1.4,1.5,2.4c0.2,1.2,0,2.4-0.6,3.4
				c-0.7,1.1-1.5,1.9-2.6,2.6c-2.2,1.4-4.7,2.2-7.2,2.5c-0.7,0.1-1.3,0.1-1.9,0.1s-1.3,0-2-0.1c-1.3-0.1-2.5-0.4-3.7-0.8
				c-1.1-0.4-2.2-0.9-3.2-1.7c-0.9-0.7-1.6-1.6-2-2.7c-0.3-0.9-0.2-1.9,0.2-2.8c0.3-0.6,0.7-1.2,1.2-1.7c0.3-0.3,0.6-0.6,1-0.8
				l0.4-0.2c-0.4,0.4-0.8,0.8-1.1,1.3c-0.4,0.5-0.6,1.1-0.8,1.7c-0.2,0.7-0.1,1.5,0.2,2.1c0.7,1.4,2.5,2.5,4.6,3
				c1.1,0.3,2.2,0.5,3.3,0.5c0.6,0,1.1,0,1.7,0s1.2-0.1,1.8-0.1c2.3-0.2,4.5-0.9,6.5-1.9c0.9-0.5,1.6-1.1,2.3-1.9
				c0.5-0.7,0.8-1.5,0.7-2.3c-0.3-1.4-1.1-2.6-2.2-3.3C544.5,543.6,544,543.3,543.6,543z"/>
			<path class="st5" d="M542.2,496.5c2.5,1,4.2,2.5,4.3,4.5c0.3,3.4-4.5,6.6-10.7,7s-11.3-2-11.6-5.4c-0.1-1.6,0.8-3,2.4-4.3"/>
			<path class="st8" d="M545.3,508.1c2.5,1,4.2,2.5,4.3,4.5c0.3,3.4-4.5,6.6-10.7,7s-11.3-2-11.6-5.4c-0.1-1.6,0.8-3.1,2.4-4.3"/>
			<path class="st9" d="M666.3,807.2c0,1.5-0.1,3-0.3,4.5c-3.3,49.3-33.6,91.8-77.2,114.4c-45.9,23.6-100.5,23.4-146.3-0.7
				c-42.8-22.8-72.5-64.9-75.8-113.7c-0.2-1.5-0.3-3-0.3-4.5c0-0.5,0-1,0-1.5v-0.3c1-18,16.7-32.2,36-32.2c7,0,13.9,1.9,19.9,5.6
				c1.5,0.9,2.8,1.9,4.1,3c54,37.5,125.6,37.5,179.6,0c1.3-1.1,2.7-2.1,4.1-3c6-3.7,12.9-5.7,19.9-5.6c19.3,0,35,14.3,36,32.2v0.3
				C666.3,806.2,666.3,806.7,666.3,807.2z"/>
			<path class="st10" d="M667,801.4c0,1.5-0.1,3-0.3,4.5c-3.3,49.3-33.6,91.8-77.2,114.4c-45.9,23.6-100.5,23.4-146.3-0.7
				c-42.8-22.8-72.5-64.9-75.8-113.7c-0.2-1.5-0.3-3-0.3-4.5c0-0.5,0-1,0-1.5v-0.3c1-18,16.7-32.2,36-32.2c7,0,13.9,1.9,19.9,5.6
				c1.5,0.9,2.8,1.9,4.1,3c54,37.5,125.6,37.5,179.6,0c1.3-1.1,2.7-2.1,4.1-3c6-3.7,13-5.7,20.1-5.7c19.3,0,35,14.3,36,32.2v0.3
				C667,800.4,667,800.9,667,801.4z"/>
			<path class="st11" d="M666.3,802.9c0,1.5-0.1,3-0.3,4.5c-3.3,49.3-33.6,91.8-77.2,114.4c-45.9,23.6-100.5,23.4-146.3-0.7
				c-42.8-22.8-72.5-64.9-75.8-113.7c-0.2-1.5-0.3-3-0.3-4.5c0-0.5,0-1,0-1.5v-0.3c1-18,16.7-32.2,36-32.2c7,0,13.9,1.9,19.9,5.6
				c1.5,0.9,2.8,1.9,4.1,3c54,37.5,125.6,37.5,179.6,0c1.3-1.1,2.7-2.1,4.1-3c6-3.7,12.9-5.7,20-5.6c19.3,0,35,14.3,36,32.2v0.3
				C666.3,801.9,666.3,802.4,666.3,802.9z"/>
			<polygon class="st12" points="520.1,554.1 525.2,569.9 541.2,555.6 569.3,559.4 553.3,547.1 568.6,532.8 536,541 514.3,528.2 
				521.4,543.9 490.1,552.7 			"/>
			<path class="st5" d="M540,488.7c-0.2-2.5-4.7-4.2-10-3.6s-9.3,3-9.1,5.5c0,0,8,11.1,8,28.5c0,10.1-0.8,20.2-2.5,30.2
				c0.2,2.5,4.7,4.2,10,3.7s9.3-3,9.1-5.5c0,0,2.5-17.7,2.5-30.2C548,504.6,540,488.7,540,488.7z"/>
			<circle class="st9" cx="399" cy="718.4" r="28.6"/>
			<circle class="st9" cx="633.4" cy="717.3" r="28.6"/>
			<circle class="st11" cx="399" cy="716.3" r="28.6"/>
			<circle class="st13" cx="399" cy="716.3" r="25.5"/>
			
				<ellipse transform="matrix(0.8355 -0.5495 0.5495 0.8355 -315.6297 338.915)" class="st14" cx="408.3" cy="696.7" rx="6" ry="6"/>
			
				<ellipse transform="matrix(0.8366 -0.5478 0.5478 0.8366 -336.2332 335.1967)" class="st14" cx="393.8" cy="731.3" rx="8" ry="8"/>
			<circle class="st11" cx="632.4" cy="715.2" r="28.6"/>
			<circle class="st13" cx="632.4" cy="715.2" r="25.5"/>
			<circle class="st14" cx="642.5" cy="694.9" r="6"/>
			<circle class="st14" cx="625.7" cy="725.8" r="9.5"/>
			
				<linearGradient id="SVGID_4_" gradientUnits="userSpaceOnUse" x1="3975.5151" y1="231.6123" x2="3960.395" y2="265.5123" gradientTransform="matrix(-1 0 0 -1 4282.1699 1023.28)">
				<stop  offset="0" style="stop-color:#ED4D0F;stop-opacity:0"/>
				<stop  offset="1" style="stop-color:#ED4D0F;stop-opacity:0.96"/>
			</linearGradient>
			<circle class="st15" cx="315.4" cy="772.2" r="20.2"/>
			
				<linearGradient id="SVGID_5_" gradientUnits="userSpaceOnUse" x1="301.4227" y1="-3051.5588" x2="286.3027" y2="-3017.6687" gradientTransform="matrix(6.123234e-17 1 1 -6.123234e-17 3736.55 477.67)">
				<stop  offset="0" style="stop-color:#ED4D0F;stop-opacity:0"/>
				<stop  offset="1" style="stop-color:#ED4D0F;stop-opacity:0.96"/>
			</linearGradient>
			<circle class="st16" cx="704.5" cy="770.4" r="20.2"/>
			<polygon class="st5" points="727,9.9 546.2,537.7 536.1,534.2 			"/>
			<g>
				<path class="st4" d="M515.5,501.1c0,0-3.5-1-9.7-3.2c-26.3-9.3-100.6-39.5-154.2-101.8c-7.6-8.9-14.7-18.2-21.1-28
					c-37.4-57.5-56.1-147.8-63.5-192.7c-2.8-16.8-4-27.3-4-27.3l4-29c0,0,138,60.6,201.9,158.9S515.5,501.1,515.5,501.1z"/>
				<polygon class="st5" points="267.1,119.2 544.8,536.5 536,542.3 				"/>
			</g>
			<path class="st11" d="M603.6,622.2l0.9-0.2c0.6-0.1,1.5-0.3,2.6-0.5s2.5-0.3,4.1-0.5s3.4-0.3,5.3-0.4s4.1-0.2,6.3-0.1
				s4.6,0.2,7,0.3s4.9,0.6,7.4,1c2.5,0.5,5.1,1,7.5,1.8l3.7,1.1c1.2,0.4,2.4,0.9,3.6,1.4s2.4,0.9,3.5,1.4l3.3,1.7
				c1.1,0.6,2.2,1,3.1,1.7l2.8,1.9l2.7,1.8l2.3,1.9c1.5,1.3,2.9,2.3,4,3.4l2.8,3l2.4,2.6l-2.5-2.5l-2.8-2.9
				c-1.1-1.1-2.6-2.1-4.1-3.3l-2.3-1.9l-2.7-1.7l-2.9-1.8c-1-0.6-2.1-1-3.2-1.6l-3.3-1.6c-1.1-0.5-2.3-0.9-3.5-1.3s-2.4-0.9-3.6-1.3
				l-3.7-1c-2.5-0.6-5-1.2-7.5-1.5c-2.5-0.3-5-0.6-7.3-0.8s-4.7-0.3-6.9-0.2s-4.3,0.1-6.2,0.3s-3.7,0.4-5.2,0.5s-2.9,0.4-4,0.6
				s-1.9,0.4-2.5,0.5l-0.9,0.2L603.6,622.2z"/>
			<path class="st11" d="M438.2,628.5l-0.9-0.3c-0.6-0.2-1.4-0.4-2.5-0.6s-2.4-0.5-3.9-0.8s-3.3-0.6-5.2-0.8s-4-0.5-6.1-0.6
				s-4.5-0.2-6.9-0.2s-4.9,0.2-7.4,0.4c-2.5,0.3-5,0.6-7.5,1.1l-3.8,0.8c-1.2,0.3-2.4,0.7-3.6,1.1s-2.4,0.7-3.6,1.1l-3.4,1.4
				c-1.1,0.5-2.2,0.9-3.2,1.4l-3,1.6l-2.8,1.6l-2.5,1.7c-1.5,1.1-3,2.1-4.3,3.1l-3,2.7l-2.6,2.4l2.6-2.5l2.9-2.8
				c1.2-1,2.6-2,4.2-3.2l2.4-1.8l2.8-1.6l3-1.7c1-0.6,2.1-1,3.2-1.5l3.4-1.5c1.1-0.5,2.4-0.8,3.6-1.2s2.4-0.8,3.7-1.2l3.8-0.9
				c2.5-0.6,5.1-1,7.6-1.3c2.5-0.3,5-0.5,7.5-0.6s4.8-0.1,7,0s4.3,0.2,6.3,0.4s3.7,0.5,5.3,0.7s2.9,0.5,4,0.8s2,0.4,2.6,0.6l0.9,0.2
				L438.2,628.5z"/>
			<path class="st17" d="M535,485.5c1.5-0.1,2.8,0.9,3.1,2.3c0.2,1.9-3.1,3.9-7.5,4.5s-8.1-0.6-8.3-2.5c-0.1-0.9,0.5-1.8,1.7-2.5
				C527.5,486,531.2,485.4,535,485.5z"/>
			<path class="st18" d="M588.8,921.9c-45.9,23.6-100.5,23.4-146.3-0.7c0-40.5,74.2-16.1,74.2-16.1S588.8,882.8,588.8,921.9z"/>
			
				<radialGradient id="SVGID_6_" cx="511.47" cy="136.49" r="53.76" gradientTransform="matrix(1 0 0 -1 0 1023.28)" gradientUnits="userSpaceOnUse">
				<stop  offset="0" style="stop-color:#FFFFFF"/>
				<stop  offset="1" style="stop-color:#FFFFFF;stop-opacity:0"/>
			</radialGradient>
			<path class="st19" d="M588.8,921.9c-45.9,23.6-100.5,23.4-146.3-0.7c0-40.5,74.2-16.1,74.2-16.1S588.8,882.8,588.8,921.9z"/>
			<g>
				<polygon class="st5" points="565.3,462.6 535.3,379.7 563.4,463.4 				"/>
				<polygon class="st5" points="576.9,429.8 534.8,321.6 574.9,430.6 				"/>
				<polygon class="st5" points="588.5,397.1 538.3,277 586.5,397.9 				"/>
				<polygon class="st5" points="600,364.4 550.3,240.1 598.1,365.2 				"/>
				<polygon class="st5" points="611.6,331.6 563.5,205.8 609.6,332.4 				"/>
				<polygon class="st5" points="623.2,298.9 577.7,187.3 621.2,299.7 				"/>
				<polygon class="st5" points="634.7,266.2 592.1,169 632.8,267 				"/>
				<polygon class="st5" points="646.3,233.4 605.2,138.2 644.3,234.2 				"/>
				<polygon class="st5" points="657.9,200.7 619.7,118.7 655.9,201.5 				"/>
				<polygon class="st5" points="669.4,167.9 640.5,100.4 667.5,168.7 				"/>
				<polygon class="st5" points="681,135.2 657.1,81.1 679,136 				"/>
				<polygon class="st5" points="692.6,102.5 679,71.9 690.6,103.3 				"/>
				<polygon class="st5" points="704.2,69.7 692.7,44.7 702.2,70.5 				"/>
			</g>
			<g>
				<g>
					<polygon class="st5" points="500.2,482.6 414.9,452.1 499.7,484.5 					"/>
					<polygon class="st5" points="482.6,454.9 374.6,419.2 482,456.8 					"/>
					<polygon class="st5" points="464.9,427.2 350.2,391.7 464.4,429.1 					"/>
					<polygon class="st5" points="447.3,399.5 327.9,364.6 446.8,401.4 					"/>
					<polygon class="st5" points="429.7,371.8 312.5,334.4 429.1,373.8 					"/>
					<polygon class="st5" points="412,344.2 303.3,313.3 411.5,346.1 					"/>
					<polygon class="st5" points="394.4,316.5 297.3,291.6 393.9,318.4 					"/>
					<polygon class="st5" points="376.8,288.8 290.5,264 376.2,290.7 					"/>
					<polygon class="st5" points="359.1,261.1 284.4,241.7 358.6,263 					"/>
					<polygon class="st5" points="341.5,233.4 274.4,215.6 341,235.4 					"/>
					<polygon class="st5" points="323.9,205.7 269.7,192 323.4,207.7 					"/>
					<polygon class="st5" points="306.3,178.1 275.6,170.4 305.7,180 					"/>
					<polygon class="st5" points="287,150 264.2,144 288.4,152.2 					"/>
				</g>
				<g>
					<polygon class="st5" points="509.8,489.2 513.6,412.9 511.8,489.5 					"/>
					<polygon class="st5" points="491.9,461.7 505.6,364.1 493.9,462.1 					"/>
					<polygon class="st5" points="474,434.2 491.8,325.9 475.9,434.6 					"/>
					<polygon class="st5" points="456,406.8 473.8,288.2 458,407.1 					"/>
					<polygon class="st5" points="438.1,379.3 456.8,263.3 440.1,379.6 					"/>
					<polygon class="st5" points="420.2,351.8 437.1,239.1 422.2,352.1 					"/>
					<polygon class="st5" points="402.3,324.3 419.8,225.5 404.3,324.6 					"/>
					<polygon class="st5" points="384.4,296.8 399.5,204.5 386.1,299.2 					"/>
					<polygon class="st5" points="366.4,269.3 382,190.7 368.1,271.8 					"/>
					<polygon class="st5" points="348.5,241.8 360.1,173.3 350.1,245.2 					"/>
					<polygon class="st5" points="330.4,215.1 340.5,159.2 332.1,217.4 					"/>
					<polygon class="st5" points="312.4,188.1 318.3,155.7 314.3,191 					"/>
					<polygon class="st5" points="294.5,161.9 299.3,137.3 296.2,163.7 					"/>
				</g>
			</g>
			
				<linearGradient id="SVGID_7_" gradientUnits="userSpaceOnUse" x1="304.253" y1="638.6277" x2="407.1129" y2="733.0077" gradientTransform="matrix(1 0 0 -1 0 1023.28)">
				<stop  offset="0" style="stop-color:#FFFFFF"/>
				<stop  offset="1" style="stop-color:#FFFFFF;stop-opacity:0"/>
			</linearGradient>
			<path class="st20" d="M505.7,497.9c-26.3-9.3-100.6-39.5-154.2-101.8c-7.6-8.9-14.7-18.2-21.1-28
				c-37.4-57.5-56.1-147.8-63.5-192.7c-0.7-5.6-1.3-11-1.7-16.1c-2.2-24.3,4.1-28.3,1.8-40.2l240.4,369.5
				C507.6,491.5,510.3,499,505.7,497.9z"/>
			
				<linearGradient id="SVGID_8_" gradientUnits="userSpaceOnUse" x1="596.0154" y1="799.2413" x2="712.2454" y2="737.7113" gradientTransform="matrix(1 0 0 -1 0 1023.28)">
				<stop  offset="0" style="stop-color:#FFFFFF"/>
				<stop  offset="1" style="stop-color:#FFFFFF;stop-opacity:0"/>
			</linearGradient>
			<path class="st21" d="M557.8,483.9c1,2.8,1.6,4.3,1.6,4.3S681,418.7,724.2,295.6C759.8,194.2,735.6,51.9,727,9.9L557.8,483.9z"/>
		</g>
	</g>
</g>
</svg>
