<?xml version="1.0" encoding="utf-8"?>
<!-- Generator: Adobe Illustrator 20.1.0, SVG Export Plug-In . SVG Version: 6.00 Build 0)  -->
<svg version="1.1" id="Calque_1" xmlns="http://www.w3.org/2000/svg" xmlns:xlink="http://www.w3.org/1999/xlink" x="0px" y="0px"
	 viewBox="0 0 1024 1024" style="enable-background:new 0 0 1024 1024;" xml:space="preserve">
<style type="text/css">
	.st0{opacity:0.2;fill:#658689;enable-background:new    ;}
	.st1{fill:#F4832F;}
	.st2{fill:#58C7E0;}
	.st3{opacity:0.5;fill:url(#SVGID_1_);enable-background:new    ;}
	.st4{opacity:0.5;fill:url(#SVGID_2_);enable-background:new    ;}
	.st5{fill:#466134;}
	.st6{fill:#506F33;}
	.st7{opacity:0.5;fill:url(#SVGID_3_);enable-background:new    ;}
	.st8{opacity:0.5;fill:url(#SVGID_4_);enable-background:new    ;}
	.st9{fill:#C96828;}
	.st10{fill:#ACB87E;}
	.st11{fill:#E07C44;}
	.st12{fill:#FBBE91;}
	.st13{fill:#2D1408;}
	.st14{fill:#51250B;}
	.st15{fill:#FFFFFF;}
	.st16{fill:#C6C77F;}
	.st17{opacity:0.5;fill:url(#SVGID_5_);enable-background:new    ;}
	.st18{fill:#6B3713;}
</style>
<title>clem the last child of the air</title>
<g>
	<g id="Calque_1_1_">
		<ellipse class="st0" cx="548.6" cy="994.9" rx="201.3" ry="22.4"/>
		<g>
			<path class="st1" d="M316.4,753.4c-3.1,22.4,6.9,58.2-9.4,56s-52.1-16.4-49.7-64.1c1.1-22.6,18.8-38.8,35.1-36.5
				S319.4,731,316.4,753.4z"/>
			<g>
				<path class="st1" d="M268.5,731.7c0,0,4.3-14.8,17.8-12.2s28,42.3,27.6,48.5s-12.2,7.6-4,29.5"/>
				<path d="M309.1,797.7c-5.9-15.9-1.5-21.5,1.7-25.5c1.2-1.6,2.2-2.8,2.3-4.3c0.5-6.3-14.3-45.1-26.9-47.5s-16.7,11-16.9,11.6
					l-1.6-0.5c0-0.2,4.7-15.5,18.8-12.8c14.4,2.8,28.7,43.2,28.3,49.3c-0.1,2-1.4,3.6-2.7,5.3c-3.1,3.9-7,8.8-1.4,23.8L309.1,797.7z
					"/>
			</g>
			<g>
				<path class="st1" d="M290.9,739.4c0,0-20.1,9.5-18.4,22.7s10.4,26.6,16.9,26.3s11.4,2.2,12,6.3"/>
				<path d="M300.6,794.8c-0.5-3.6-5-5.9-11.1-5.6h-0.2c-7,0-15.8-13.5-17.5-27.1s18-23.2,18.8-23.5l0.7,1.5
					c-0.2,0.1-19.5,9.4-17.9,21.8c1.7,13.3,10.3,25.6,15.8,25.6h0.2c7.1-0.3,12.3,2.5,12.9,7.1L300.6,794.8z"/>
			</g>
		</g>
		<g>
			<path class="st1" d="M771.3,753.4c3.1,22.4-6.9,58.2,9.4,56s52.1-16.4,49.7-64.1c-1.1-22.6-18.8-38.8-35.1-36.5
				S768.2,731,771.3,753.4z"/>
			<g>
				<path class="st1" d="M819.2,731.7c0,0-4.3-14.8-17.8-12.2s-28,42.3-27.6,48.5s12.2,7.6,4,29.5"/>
				<path d="M778.6,797.7l-1.6-0.6c5.6-15,1.7-19.9-1.4-23.8c-1.3-1.7-2.5-3.2-2.7-5.3c-0.5-6.1,13.9-46.5,28.3-49.3
					c14.1-2.7,18.8,12.6,18.8,12.8l-1.6,0.5c-0.2-0.6-4.3-14-16.9-11.6s-27.4,41.3-26.9,47.5c0.1,1.5,1.1,2.8,2.3,4.3
					C780.1,776.3,784.5,781.8,778.6,797.7z"/>
			</g>
			<g>
				<path class="st1" d="M796.7,739.4c0,0,20.1,9.5,18.3,22.7s-10.4,26.6-16.9,26.3s-11.4,2.2-12,6.3"/>
				<path d="M787,794.8l-1.7-0.2c0.7-4.5,5.9-7.4,12.9-7.1h0.2c5.5,0,14.1-12.3,15.8-25.6c1.6-12.4-17.7-21.7-17.9-21.8l0.7-1.5
					c0.8,0.4,20.6,10,18.8,23.5s-10.6,27.1-17.5,27.1h-0.2C792,789,787.5,791.2,787,794.8z"/>
			</g>
		</g>
		<path class="st1" d="M779.4,746.2c9.5,130.3-90.1,233-220.4,242.6s-243.6-88.3-253.1-218.6c-5.4-73.3,14.5-146.6,63.8-193.7
			c38.3-36.6,97.8-55.2,154.8-59.4c46.4-3.4,105.6,5.7,144.1,27.9C738,585,773.3,662.3,779.4,746.2z"/>
		<path class="st2" d="M603.3,607.6l-58.3,55.5v0.8l-0.4-0.4l-0.4,0.4v-0.8l-58.3-55.5c4.5-6.9,37.3-12.2,37.3-12.2
			c-3.1-14,0.1-73.5,0.4-78.3l1-0.1c13.7-1,27.5-0.9,41.2,0.1c0.3,4.8,3.5,64.3,0.4,78.3C566,595.4,598.8,600.7,603.3,607.6z"/>
		
			<linearGradient id="SVGID_1_" gradientUnits="userSpaceOnUse" x1="542.5058" y1="-33.8" x2="542.5058" y2="170.87" gradientTransform="matrix(1 0 0 -1 0 1023.28)">
			<stop  offset="0" style="stop-color:#43215D"/>
			<stop  offset="1" style="stop-color:#43215D;stop-opacity:0"/>
		</linearGradient>
		<path class="st3" d="M779.4,746.2c9.5,130.3-90.1,233-220.4,242.6s-243.6-88.3-253.1-218.6c-5.4-73.3,14.5-146.6,63.8-193.7
			c38.3-36.6,97.8-55.2,154.8-59.4c46.4-3.4,105.6,5.7,144.1,27.9C738,585,773.3,662.3,779.4,746.2z"/>
		
			<radialGradient id="SVGID_2_" cx="547.83" cy="304.6075" r="250.27" gradientTransform="matrix(1 0 0 -0.93 -0.62 1015.7404)" gradientUnits="userSpaceOnUse">
			<stop  offset="0" style="stop-color:#FFFFFF"/>
			<stop  offset="1" style="stop-color:#FFFFFF;stop-opacity:0"/>
		</radialGradient>
		<path class="st4" d="M559,988.8c-130.3,9.6-243.6-88.3-253.2-218.6c-5.4-73.3,14.5-146.6,63.8-193.7c38.1-36.4,97.1-55,153.8-59.3
			l1-0.1c13.7-1,27.5-0.9,41.2,0.1c36.7,2.6,75.2,11.8,102.9,27.8c69.5,40.1,104.7,117.4,110.9,201.2
			C789,876.4,689.3,979.2,559,988.8z"/>
		<path class="st5" d="M748.4,295.6c-43.3,123.6-165.5,193.3-165.5,193.3s-51.9-130.7-8.6-254.3c34.8-99.3,148.5-209.7,148.5-209.7
			l28.4-16.2C751.3,8.6,791.7,172,748.4,295.6z"/>
		<g>
			<polygon class="st6" points="597.1,453.9 682.8,404.8 598.1,455.8 			"/>
			<polygon class="st6" points="608.3,420.9 712.3,362.2 609.4,422.8 			"/>
			<polygon class="st6" points="619.6,387.9 734,324.5 620.7,389.8 			"/>
			<polygon class="st6" points="630.9,354.9 747.4,288 631.9,356.8 			"/>
			<polygon class="st6" points="642.2,321.9 758.5,252.8 643.2,323.8 			"/>
			<polygon class="st6" points="653.5,288.9 758.8,229.4 654.5,290.8 			"/>
			<polygon class="st6" points="664.7,256 758.8,205.9 665.8,257.8 			"/>
			<polygon class="st6" points="676,223 767.7,173.6 677,224.8 			"/>
			<polygon class="st6" points="687.3,190 768.4,149.1 688.3,191.8 			"/>
			<polygon class="st6" points="698.5,157 763.4,121.8 699.6,158.8 			"/>
			<polygon class="st6" points="709.8,124 762.4,96.2 710.9,125.8 			"/>
			<polygon class="st6" points="721.1,91 750.8,75.3 722.1,92.8 			"/>
			<polygon class="st6" points="734,57.7 757,45.4 733.4,59.8 			"/>
		</g>
		
			<linearGradient id="SVGID_3_" gradientUnits="userSpaceOnUse" x1="619.6691" y1="799.6084" x2="736.3892" y2="737.8184" gradientTransform="matrix(1 0 0 -1 0 1023.28)">
			<stop  offset="0" style="stop-color:#FFFFFF"/>
			<stop  offset="1" style="stop-color:#FFFFFF;stop-opacity:0"/>
		</linearGradient>
		<path class="st7" d="M581.3,484.6c1,2.8,1.6,4.3,1.6,4.3s122.2-69.7,165.5-193.3c35.7-101.8,11.4-244.7,2.9-286.9L581.3,484.6z"/>
		
			<radialGradient id="SVGID_4_" cx="562.81" cy="434.1167" r="39.82" gradientTransform="matrix(1 0 0 -0.96 -0.55 975.9487)" gradientUnits="userSpaceOnUse">
			<stop  offset="0" style="stop-color:#000000"/>
			<stop  offset="1" style="stop-color:#000000;stop-opacity:0"/>
		</radialGradient>
		<path class="st8" d="M591,530.2c11.2,4.1,18.6,10.9,19.2,19c1.1,14.7-20.4,28.3-48,30.3s-50.9-8.3-51.9-23
			c-0.5-6.7,3.7-13.1,11-18.4"/>
		<path class="st6" d="M575.5,540.6c1.8,0.1,3.6,0.5,5.3,1.2c1.9,0.8,3.6,2,4.8,3.6c0.7,0.9,1.2,2,1.6,3.1l0.2,0.9v0.1
			c0-0.1,0,0.2,0,0.2v0.1v0.2l0.1,0.3c0,0.3,0.1,0.7,0.1,1c0,0.4,0,0.6,0,1c-0.2,2.4-1.1,4.6-2.5,6.5c-2.5,3.3-5.8,5.9-9.6,7.5
			c-3.5,1.6-7.2,2.6-11.1,3c-0.9,0.1-2,0.2-2.8,0.2c-1,0-2,0-2.9,0c-1.9-0.1-3.8-0.3-5.7-0.7c-3.9-0.7-7.6-2.3-10.9-4.6
			c-1.8-1.3-3.3-2.9-4.4-4.7c-1.2-2-1.8-4.3-1.6-6.7c0.3-2.2,1.3-4.1,2.8-5.6c1.3-1.3,3-2.2,4.7-2.8c-1,1.4-1.7,2.8-2.3,4.4
			c-0.4,1.2-0.5,2.6-0.1,3.8c0.7,2.1,2.6,3.3,5,4.4c4.9,2,11,2.3,16.8,1.7c2.9-0.3,5.7-0.9,8.4-1.8c2.5-0.8,4.9-2,7-3.6
			c1.7-1.5,2.8-3,2.3-5.4c-0.4-1.4-1.1-2.6-2-3.7C577.9,542.9,576.7,541.7,575.5,540.6z"/>
		<path class="st9" d="M567,544l0.4,0.1c0.4,0.1,0.8,0.3,1.2,0.5c0.6,0.3,1.2,0.7,1.7,1.1c0.7,0.6,1.2,1.4,1.4,2.3
			c0.2,1.1,0,2.3-0.6,3.3c-0.7,1-1.5,1.9-2.6,2.5c-2.2,1.4-4.6,2.2-7.2,2.4c-0.7,0.1-1.3,0.1-1.9,0.1s-1.3,0-1.9-0.1
			c-1.2-0.1-2.5-0.4-3.7-0.8c-1.1-0.4-2.2-0.9-3.2-1.6c-0.9-0.7-1.6-1.6-2-2.6c-0.3-0.9-0.3-1.9,0.1-2.8c0.3-0.6,0.7-1.2,1.2-1.7
			c0.3-0.3,0.6-0.6,1-0.8l0.4-0.2c-0.4,0.4-0.8,0.8-1.1,1.3c-0.4,0.5-0.7,1.1-0.8,1.7c-0.2,0.7-0.1,1.5,0.2,2.2
			c0.7,1.5,2.5,2.6,4.7,3.2c1.1,0.3,2.2,0.5,3.3,0.5c0.6,0,1.2,0,1.7,0s1.2-0.1,1.8-0.1c2.3-0.2,4.5-0.9,6.6-2
			c0.9-0.5,1.7-1.2,2.3-2c0.5-0.7,0.8-1.6,0.7-2.4c-0.3-1.4-1.1-2.6-2.3-3.3C568,544.5,567.5,544.2,567,544z"/>
		<path class="st6" d="M565.6,497.2c2.5,1,4.2,2.6,4.3,4.5c0.3,3.4-4.5,6.6-10.7,7s-11.4-2-11.6-5.4c-0.1-1.6,0.8-3.1,2.4-4.3"/>
		<path class="st10" d="M568.8,509c2.5,1,4.2,2.6,4.3,4.5c0.3,3.4-4.5,6.6-10.7,7s-11.4-2-11.6-5.4c-0.1-1.6,0.8-3.1,2.4-4.3"/>
		<polygon class="st11" points="543.4,555.1 548.5,571 564.6,556.6 592.8,560.4 576.8,548.1 592.2,533.8 559.5,542 537.6,529.1 
			544.7,544.9 513.3,553.7 		"/>
		<path class="st6" d="M563.4,489.4c-0.3-2.5-4.7-4.2-10-3.7s-9.4,3-9.1,5.5c0,0,8.1,11.1,8.1,28.6c0,10.2-0.8,20.3-2.6,30.4
			c0.3,2.5,4.7,4.2,10,3.7s9.4-3,9.1-5.5c0,0,2.6-17.8,2.6-30.4C571.5,505.4,563.4,489.4,563.4,489.4z"/>
		<circle class="st12" cx="421.8" cy="720.1" r="28.8"/>
		<circle class="st12" cx="657.3" cy="719" r="28.8"/>
		<circle class="st13" cx="421.8" cy="718" r="28.8"/>
		<circle class="st14" cx="421.8" cy="718" r="25.6"/>
		<circle class="st15" cx="412.9" cy="698.9" r="6"/>
		<circle class="st15" cx="430.2" cy="730.2" r="8"/>
		<circle class="st13" cx="656.2" cy="716.9" r="28.8"/>
		<circle class="st14" cx="656.2" cy="716.9" r="25.6"/>
		<circle class="st15" cx="666.4" cy="696.5" r="6"/>
		<circle class="st15" cx="649.4" cy="727.6" r="9.6"/>
		<polygon class="st6" points="751.3,8.6 569.6,538.7 559.5,535.1 		"/>
		<g>
			<path class="st5" d="M492.1,277.9c64.2,98.7,46.7,223.9,46.7,223.9S417.3,467,353.1,368.3c-51.6-79.4-67.7-220.9-67.7-220.9
				l4-29.1C289.3,118.4,427.9,179.2,492.1,277.9z"/>
			<polygon class="st6" points="289.4,118.4 568.3,537.4 559.4,543.2 			"/>
		</g>
		<path class="st13" d="M626.9,622l1-0.2c0.6-0.1,1.5-0.3,2.7-0.4c12.8-1.7,25.8-0.8,38.3,2.7c2.5,0.7,5,1.7,7.4,2.6
			s4.7,2.1,6.8,3.3s4.2,2.5,6,3.7l2.6,1.9l2.4,1.9c1.5,1.3,2.8,2.5,3.9,3.6s2.1,2.1,2.8,3l2.3,2.7l-2.5-2.6c-0.8-0.8-1.8-1.7-3-2.8
			s-2.5-2.2-4.1-3.3l-2.4-1.8l-2.7-1.7c-1.9-1.1-3.9-2.3-6.1-3.3s-4.5-2-6.8-2.8s-4.8-1.5-7.3-2.1c-9.1-2-18.5-2.6-27.8-1.7
			c-3,0.3-6,0.7-9,1.3c-2.2,0.4-3.3,0.8-3.3,0.8L626.9,622z"/>
		<path class="st13" d="M460.7,631.2c0,0-1.1-0.4-3.2-0.9c-3-0.8-6-1.4-9-1.8c-9.2-1.4-18.6-1.4-27.8,0.2c-2.5,0.4-5,1-7.4,1.7
			s-4.8,1.5-7,2.4s-4.3,1.9-6.3,2.9l-2.8,1.6l-2.5,1.6c-1.6,1.1-3,2.1-4.3,3.1s-2.3,1.8-3.1,2.6l-2.6,2.4l2.5-2.6
			c0.8-0.8,1.8-1.7,3-2.8s2.5-2.2,4.1-3.4l2.5-1.8l2.7-1.8c1.9-1.2,4-2.3,6.2-3.4s4.6-2,7-2.9s5-1.6,7.5-2.2
			c12.6-2.9,25.7-3.1,38.4-0.7c1.1,0.2,2,0.4,2.7,0.6l1,0.3L460.7,631.2z"/>
		<path class="st16" d="M558.4,486.2c1.5-0.1,2.8,0.9,3.1,2.3c0.2,1.9-3.1,3.9-7.5,4.5s-8.1-0.6-8.4-2.5c-0.1-0.9,0.5-1.8,1.7-2.5
			C550.8,486.7,554.6,486.1,558.4,486.2z"/>
		<g>
			<polygon class="st6" points="588.8,463.2 559.9,383.4 586.9,464 			"/>
			<polygon class="st6" points="600.5,430.3 558.2,321.7 598.5,431.2 			"/>
			<polygon class="st6" points="612.1,397.5 563,279.6 610.1,398.3 			"/>
			<polygon class="st6" points="623.7,364.6 573.8,239.8 621.7,365.4 			"/>
			<polygon class="st6" points="635.3,331.7 587,205.4 633.3,332.5 			"/>
			<polygon class="st6" points="646.9,298.8 601.2,186.8 645.1,301 			"/>
			<polygon class="st6" points="658.5,266 615.8,168.4 657.3,268.8 			"/>
			<polygon class="st6" points="670.2,233.1 628.8,137.5 669,236.1 			"/>
			<polygon class="st6" points="681.8,200.2 643.5,117.9 680.9,204.2 			"/>
			<polygon class="st6" points="694.8,170.7 664.3,99.5 692.8,171.5 			"/>
			<polygon class="st6" points="705.8,137.4 681,80.1 703.9,138.2 			"/>
			<polygon class="st6" points="717.5,103.7 703,70.9 715.9,106.2 			"/>
			<polygon class="st6" points="729.4,72.5 716.8,43.6 727.6,74.3 			"/>
		</g>
		<g>
			<g>
				<polygon class="st6" points="523.5,483.3 437.8,452.7 522.9,485.2 				"/>
				<polygon class="st6" points="505.8,455.5 397.3,419.7 505.2,457.4 				"/>
				<polygon class="st6" points="488,427.7 372.8,392 487.5,429.6 				"/>
				<polygon class="st6" points="470.4,399.9 350.5,364.8 469.8,401.8 				"/>
				<polygon class="st6" points="452.6,372.1 335,334.5 452.1,374 				"/>
				<polygon class="st6" points="434.9,344.3 324.9,313 434.4,346.2 				"/>
				<polygon class="st6" points="417.2,316.5 319.7,291.5 416.7,318.4 				"/>
				<polygon class="st6" points="399.5,288.7 312.8,263.8 399,290.6 				"/>
				<polygon class="st6" points="381.8,260.9 306.7,241.4 381.3,262.8 				"/>
				<polygon class="st6" points="364.1,233.1 296.7,215.2 363.6,235 				"/>
				<polygon class="st6" points="346.4,205.3 292,191.5 345.9,207.3 				"/>
				<polygon class="st6" points="328.7,177.5 297.9,169.8 328.2,179.5 				"/>
				<polygon class="st6" points="309.7,149.4 285.6,143.6 310.5,151.7 				"/>
			</g>
			<g>
				<polygon class="st6" points="533.1,490 536.9,413.3 535.1,490.3 				"/>
				<polygon class="st6" points="515.1,462.4 528.9,364.3 517.1,462.7 				"/>
				<polygon class="st6" points="497.1,434.8 515,325.9 499.1,435.1 				"/>
				<polygon class="st6" points="479.1,407.2 496.9,288.1 481.1,407.5 				"/>
				<polygon class="st6" points="461.1,379.5 479.9,263.1 463.1,379.9 				"/>
				<polygon class="st6" points="443.1,351.9 460.1,238.8 445.1,352.2 				"/>
				<polygon class="st6" points="425.1,324.3 442.7,225.1 426.5,326.6 				"/>
				<polygon class="st6" points="407.1,296.7 423,205.1 409.1,298.3 				"/>
				<polygon class="st6" points="389.1,269.1 405.3,188.2 391.4,272.6 				"/>
				<polygon class="st6" points="371.1,241.5 382.7,172.7 372.8,244.4 				"/>
				<polygon class="st6" points="353.1,213.9 363.1,158.6 354.5,217.1 				"/>
				<polygon class="st6" points="334.6,189 340.8,155.1 336.6,189.3 				"/>
				<polygon class="st6" points="316.6,160.7 321.3,135.6 318.3,162.9 				"/>
			</g>
		</g>
		
			<linearGradient id="SVGID_5_" gradientUnits="userSpaceOnUse" x1="325.5184" y1="639.5009" x2="428.8484" y2="734.3109" gradientTransform="matrix(1 0 0 -1 0 1023.28)">
			<stop  offset="0" style="stop-color:#FFFFFF"/>
			<stop  offset="1" style="stop-color:#FFFFFF;stop-opacity:0"/>
		</linearGradient>
		<path class="st17" d="M530.7,489.4c0.2,3,0.2,4.5,0.2,4.5s-85-6.9-166.6-109.4c-50.1-62.9-71.1-163.9-76.7-225.8
			c-2.2-24.4,4.1-28.4,1.8-40.3L530.7,489.4z"/>
		<path class="st12" d="M649.8,874.3c0,0-187.5,2.8-207.4,0c0,0,50.3,52.7,101.4,52.7S649.8,874.3,649.8,874.3z"/>
		<path class="st13" d="M649.8,871.1c0,0-22.9,22-52.9,37.6c-16.4,8.5-35,15.1-53.1,15.1c-19.8,0-39.5-7.9-56.1-17.6
			c-16.5-9.8-31.7-21.5-45.3-35.1c3.9,0.5,14.1,0.9,28.1,1.1c37.6,0.5,102.4-0.1,142.9-0.6C635.1,871.3,649.8,871.1,649.8,871.1z"/>
		<path class="st18" d="M596.9,908.6c-16.4,8.5-35,15.1-53.1,15.1c-19.8,0-39.5-7.9-56.1-17.6c16.9-5.7,43.1,0.5,54.1,3.5
			C553.5,906.7,581.1,901,596.9,908.6z"/>
		
			<rect x="461.2" y="629.1" transform="matrix(0.3714 -0.9285 0.9285 0.3714 -292.2899 828.2413)" class="st13" width="8.6" height="1.7"/>
		
			<rect x="622" y="619" transform="matrix(0.9829 -0.1843 0.1843 0.9829 -104.21 125.4747)" class="st13" width="1.7" height="8.7"/>
		<path class="st13" d="M524.6,943.4l1.6,0.5c1,0.3,2.4,0.8,4.2,1.3c0.9,0.2,1.8,0.5,2.8,0.7s2,0.5,3.1,0.7s2.2,0.4,3.4,0.6
			s2.3,0.3,3.5,0.4s2.3,0.2,3.5,0.2s2.3,0.1,3.4-0.1c1.1-0.1,2.1-0.2,3.2-0.4c1-0.2,2-0.3,2.8-0.5s1.6-0.5,2.3-0.6s1.3-0.5,1.8-0.7
			c1-0.4,1.5-0.6,1.5-0.6s-0.5,0.3-1.4,0.9c-0.5,0.3-1,0.6-1.7,1s-1.4,0.6-2.3,1c-0.9,0.4-1.9,0.6-2.8,0.9c-1.1,0.3-2.2,0.5-3.3,0.6
			c-1.2,0.2-2.3,0.2-3.5,0.3c-1.2,0-2.4-0.1-3.7-0.1s-2.4-0.3-3.6-0.5s-2.3-0.5-3.4-0.8s-2.2-0.6-3.1-0.9s-1.9-0.7-2.8-1
			c-1.7-0.7-3-1.4-4-1.9S524.6,943.4,524.6,943.4z"/>
		<path class="st15" d="M470,872.1l0.3,0.7c0,0,81.1,27.2,137.6-1.2L470,872.1z"/>
	</g>
</g>
</svg>
