<svg xmlns="http://www.w3.org/2000/svg" xmlns:xlink="http://www.w3.org/1999/xlink" viewBox="0 0 1024 1024">
  <defs>
    <style>
      .cls-1 {
        isolation: isolate;
      }

      .cls-2 {
        fill: #ff8112;
      }

      .cls-17, .cls-18, .cls-3, .cls-4, .cls-6 {
        opacity: 0.5;
      }

      .cls-3, .cls-6 {
        mix-blend-mode: darken;
      }

      .cls-3 {
        fill: url(#linear-gradient);
      }

      .cls-4 {
        mix-blend-mode: lighten;
        fill: url(#radial-gradient);
      }

      .cls-5 {
        fill: #6c8b8e;
        opacity: 0.2;
        mix-blend-mode: soft-light;
      }

      .cls-6 {
        fill: url(#radial-gradient-2);
      }

      .cls-7 {
        fill: #537022;
      }

      .cls-8 {
        fill: #cc6100;
      }

      .cls-9 {
        fill: #b8bf7b;
      }

      .cls-10 {
        fill: #e1793b;
      }

      .cls-11 {
        fill: #ffc697;
      }

      .cls-12 {
        fill: #381a01;
      }

      .cls-13 {
        fill: url(#linear-gradient-2);
      }

      .cls-14 {
        fill: url(#linear-gradient-3);
      }

      .cls-15 {
        fill: #d1cd7d;
      }

      .cls-16 {
        fill: #4b632f;
      }

      .cls-17, .cls-18 {
        mix-blend-mode: overlay;
      }

      .cls-17 {
        fill: url(#linear-gradient-4);
      }

      .cls-18 {
        fill: url(#linear-gradient-5);
      }

      .cls-19 {
        fill: #5b2700;
      }

      .cls-20 {
        fill: #86b1ef;
      }

      .cls-21 {
        fill: #fff;
      }
    </style>
    <linearGradient id="linear-gradient" x1="489.2" y1="861.74" x2="489.2" y2="627.51" gradientUnits="userSpaceOnUse">
      <stop offset="0" stop-color="#4b005c"/>
      <stop offset="1" stop-color="#4b005c" stop-opacity="0"/>
    </linearGradient>
    <radialGradient id="radial-gradient" cx="495.29" cy="492.89" r="286.42" gradientTransform="matrix(1, 0, 0, 0.93, -0.41, 33.06)" gradientUnits="userSpaceOnUse">
      <stop offset="0" stop-color="#fff"/>
      <stop offset="1" stop-color="#fff" stop-opacity="0"/>
    </radialGradient>
    <radialGradient id="radial-gradient-2" cx="507.23" cy="263.68" r="45.57" gradientTransform="matrix(1, 0, 0, 0.96, 3.2, 36.7)" gradientUnits="userSpaceOnUse">
      <stop offset="0"/>
      <stop offset="1" stop-opacity="0"/>
    </radialGradient>
    <linearGradient id="linear-gradient-2" x1="-3188.81" y1="560.29" x2="-3206.18" y2="521.34" gradientTransform="matrix(-1, 0, 0, 1, -2943.83, 0)" gradientUnits="userSpaceOnUse">
      <stop offset="0" stop-color="#ed4d0f" stop-opacity="0"/>
      <stop offset="1" stop-color="#ed4d0f" stop-opacity="0.96"/>
    </linearGradient>
    <linearGradient id="linear-gradient-3" x1="-2156.83" y1="-920.92" x2="-2174.21" y2="-959.88" gradientTransform="translate(-241.17 2702.67) rotate(90)" xlink:href="#linear-gradient-2"/>
    <linearGradient id="linear-gradient-4" x1="-1125.53" y1="469.56" x2="-991.95" y2="540.28" gradientTransform="translate(916.29 1621.15) rotate(108.51)" xlink:href="#radial-gradient"/>
    <linearGradient id="linear-gradient-5" x1="518.9" y1="1571.25" x2="637.15" y2="1462.76" gradientTransform="translate(-1308.04 833.23) rotate(-83.88)" xlink:href="#radial-gradient"/>
  </defs>
  <title>clem sleeping</title>
  <g class="cls-1">
    <g id="Calque_1" data-name="Calque 1">
      <g>
        <path class="cls-2" d="M760.3,505.92C771.23,655,657.13,772.63,508.06,783.56S229.28,682.5,218.35,533.43c-6.15-83.85,16.62-167.81,73-221.71,43.84-41.93,111.93-63.22,177.15-68,53.14-3.9,120.86,6.49,164.92,31.92C712.94,321.54,753.26,410,760.3,505.92Z"/>
        <path class="cls-3" d="M760.3,505.92C771.23,655,657.13,772.63,508.06,783.56S229.28,682.5,218.35,533.43c-6.15-83.85,16.62-167.81,73-221.71,43.84-41.93,111.93-63.22,177.15-68,53.14-3.9,120.86,6.49,164.92,31.92C712.94,321.54,753.26,410,760.3,505.92Z"/>
        <path class="cls-4" d="M760.3,505.92C771.23,655,657.13,772.63,508.06,783.56S229.28,682.5,218.35,533.43c-6.15-83.85,16.62-167.81,73-221.71,43.84-41.93,111.93-63.22,177.15-68,53.14-3.9,120.86,6.49,164.92,31.92C712.94,321.54,753.26,410,760.3,505.92Z"/>
        <ellipse class="cls-5" cx="496.16" cy="790.62" rx="230.41" ry="25.6"/>
        <path class="cls-6" d="M544.73,258.72c12.8,4.69,21.27,12.46,22,21.79,1.23,16.83-23.37,32.36-55,34.68s-58.2-9.45-59.43-26.29c-.56-7.65,4.21-15,12.54-21"/>
        <path class="cls-7" d="M526.91,270.67A17.26,17.26,0,0,1,533,272a13.09,13.09,0,0,1,5.51,4.14,11.54,11.54,0,0,1,1.81,3.53l.26,1v.1c0-.14,0,.23,0,.2l0,.09,0,.18.07.36a10.13,10.13,0,0,1,.07,1.14c0,.42,0,.72,0,1.09a15,15,0,0,1-2.82,7.48,27.21,27.21,0,0,1-11,8.62,41.49,41.49,0,0,1-12.66,3.43c-1,.11-2.27.18-3.17.21-1.14,0-2.27.05-3.33,0a45,45,0,0,1-6.51-.77,31.72,31.72,0,0,1-12.45-5.23,19,19,0,0,1-5.07-5.4,12.09,12.09,0,0,1-1.78-7.66,10.57,10.57,0,0,1,3.27-6.44,13.85,13.85,0,0,1,5.41-3.19,20.19,20.19,0,0,0-2.58,5,7.13,7.13,0,0,0-.1,4.39c.82,2.42,3,3.83,5.79,5,5.64,2.23,12.64,2.57,19.24,1.89a46.05,46.05,0,0,0,9.66-2,24.66,24.66,0,0,0,8-4.09c2-1.76,3.19-3.4,2.63-6.16a10.91,10.91,0,0,0-2.24-4.26A31,31,0,0,0,526.91,270.67Z"/>
        <path class="cls-8" d="M517.24,274.53l.5.13a8.91,8.91,0,0,1,3.35,1.76,5.13,5.13,0,0,1,1.72,2.71,5.32,5.32,0,0,1-.7,3.88,9.64,9.64,0,0,1-3,3,18.68,18.68,0,0,1-8.3,2.84c-.75.09-1.52.1-2.2.13s-1.53,0-2.25-.1a18.16,18.16,0,0,1-4.24-.9,11.94,11.94,0,0,1-3.65-1.93,6.47,6.47,0,0,1-2.27-3.1,4.45,4.45,0,0,1,.17-3.23,6.14,6.14,0,0,1,1.39-1.92,7,7,0,0,1,1.17-.9l.44-.27a9.42,9.42,0,0,0-1.25,1.47,5.46,5.46,0,0,0-.89,1.9,3.73,3.73,0,0,0,.28,2.44c.78,1.64,2.87,2.85,5.25,3.49a20.14,20.14,0,0,0,3.79.6c.66.05,1.31,0,2,0s1.38-.07,2-.15a18.84,18.84,0,0,0,7.42-2.23,9,9,0,0,0,2.6-2.17,4,4,0,0,0,.84-2.65,5.74,5.74,0,0,0-2.55-3.79A12.21,12.21,0,0,0,517.24,274.53Z"/>
        <path class="cls-7" d="M515.62,221.06c2.86,1.1,4.76,2.93,4.92,5.11.29,3.94-5.2,7.55-12.26,8.07S495.27,232,495,228c-.13-1.79.93-3.51,2.79-4.9"/>
        <path class="cls-9" d="M519.28,234.47c2.86,1.1,4.76,2.93,4.92,5.11.29,3.94-5.2,7.55-12.26,8.07s-13-2.26-13.31-6.19c-.13-1.79.93-3.51,2.79-4.9"/>
        <polygon class="cls-10" points="490.24 287.31 496.12 305.41 514.47 288.99 546.77 293.34 528.42 279.27 546.03 262.85 508.59 272.23 483.64 257.49 491.71 275.58 455.74 285.64 490.24 287.31"/>
        <path class="cls-7" d="M513.11,212.08c-.28-2.9-5.41-4.78-11.46-4.19s-10.72,3.42-10.43,6.33c0,0,9.22,12.71,9.22,32.76a196.42,196.42,0,0,1-2.93,34.74c.28,2.91,5.41,4.79,11.46,4.2s10.72-3.42,10.43-6.33c0,0,2.93-20.35,2.93-34.74S513.11,212.08,513.11,212.08Z"/>
        <path class="cls-11" d="M619.29,510.23a35.39,35.39,0,0,1-35.35-35.35,2.44,2.44,0,0,1,4.88,0,30.48,30.48,0,0,0,61,0,2.44,2.44,0,0,1,4.88,0A35.39,35.39,0,0,1,619.29,510.23Z"/>
        <path class="cls-12" d="M619.29,507.79a35.39,35.39,0,0,1-35.35-35.35,2.44,2.44,0,0,1,4.88,0,30.48,30.48,0,0,0,61,0,2.44,2.44,0,0,1,4.88,0A35.39,35.39,0,0,1,619.29,507.79Z"/>
        <g>
          <path class="cls-11" d="M355.36,510.23A35.39,35.39,0,0,1,320,474.87a2.44,2.44,0,0,1,4.88,0,30.48,30.48,0,0,0,61,0,2.44,2.44,0,0,1,4.88,0A35.39,35.39,0,0,1,355.36,510.23Z"/>
          <path class="cls-12" d="M355.36,507.79A35.39,35.39,0,0,1,320,472.43a2.44,2.44,0,0,1,4.88,0,30.48,30.48,0,0,0,61,0,2.44,2.44,0,0,1,4.88,0A35.39,35.39,0,0,1,355.36,507.79Z"/>
        </g>
        <circle class="cls-13" cx="254.99" cy="537.86" r="23.16"/>
        <circle class="cls-14" cx="702.19" cy="535.83" r="23.16"/>
        <path class="cls-12" d="M586.19,400.86l1.05-.22c.7-.15,1.73-.34,3-.53s2.88-.39,4.69-.63,3.86-.39,6.1-.46,4.66-.19,7.23-.11,5.27.23,8.06.41,5.65.66,8.54,1.15a88.25,88.25,0,0,1,8.66,2l4.28,1.26c1.41.46,2.76,1.07,4.13,1.59s2.73,1,4,1.65l3.78,1.95c1.22.67,2.49,1.2,3.61,2l3.28,2.17,3.1,2.05,2.67,2.23c1.68,1.46,3.31,2.69,4.6,4l3.2,3.41,2.78,3-2.86-2.9-3.28-3.32c-1.31-1.23-3-2.42-4.68-3.82l-2.7-2.14-3.13-2-3.3-2.07c-1.12-.71-2.4-1.21-3.63-1.84l-3.78-1.83c-1.3-.58-2.67-1-4-1.53s-2.72-1-4.12-1.46l-4.26-1.14a87.06,87.06,0,0,0-8.58-1.77c-2.86-.41-5.7-.71-8.44-.91s-5.41-.3-7.93-.2-4.9.13-7.1.29-4.19.42-6,.61-3.31.47-4.56.73-2.23.43-2.88.58l-1,.24Z"/>
        <path class="cls-12" d="M396.1,408.08l-1-.3c-.64-.19-1.6-.44-2.85-.74s-2.77-.6-4.51-1-3.74-.68-5.93-.93-4.55-.55-7.07-.68-5.18-.18-7.93-.23-5.6.21-8.47.46a87.15,87.15,0,0,0-8.67,1.31l-4.31.91c-1.42.35-2.8.83-4.19,1.24s-2.78.8-4.1,1.31l-3.88,1.63c-1.26.56-2.56,1-3.72,1.64l-3.41,1.89-3.23,1.79-2.82,2c-1.78,1.31-3.5,2.41-4.88,3.57l-3.45,3.14-3,2.74L311.6,425,315,421.8c1.35-1.19,3-2.34,4.8-3.7l2.78-2.08,3.21-1.88,3.39-2c1.15-.69,2.45-1.15,3.71-1.75l3.88-1.74c1.33-.55,2.73-.94,4.11-1.43s2.78-1,4.21-1.36l4.34-1a88.28,88.28,0,0,1,8.76-1.55c2.91-.33,5.8-.56,8.59-.69s5.5-.15,8.07,0,5,.28,7.21.5,4.26.55,6.07.79,3.37.57,4.65.88,2.3.51,3,.69l1,.28Z"/>
        <path class="cls-15" d="M507.36,208.4a3.52,3.52,0,0,1,3.6,2.65c.27,2.21-3.58,4.51-8.6,5.12s-9.32-.67-9.59-2.88c-.12-1,.61-2,1.91-2.9A37.57,37.57,0,0,1,507.36,208.4Z"/>
        <g>
          <path class="cls-16" d="M703.53,518.28C585.15,426.35,553.91,268.47,553.91,268.47s160.7-8.84,279.09,83.08c95.12,73.86,173.59,237.39,173.59,237.39l7.3,36.69S821.92,610.2,703.53,518.28Z"/>
          <g>
            <polygon class="cls-7" points="586.69 296.55 608.86 407.45 584.29 297 586.69 296.55"/>
            <polygon class="cls-7" points="618.4 320.77 644.65 461.85 616 321.23 618.4 320.77"/>
            <polygon class="cls-7" points="650.11 344.99 677.37 492.1 647.72 345.45 650.11 344.99"/>
            <polygon class="cls-7" points="681.82 369.21 712.16 520.03 679.42 369.67 681.82 369.21"/>
            <polygon class="cls-7" points="713.52 393.43 746.31 544.74 711.13 393.89 713.52 393.43"/>
            <polygon class="cls-7" points="745.23 417.66 771.62 553.64 742.84 418.11 745.23 417.66"/>
            <polygon class="cls-7" points="776.95 441.88 797.05 562.16 774.55 442.34 776.95 441.88"/>
            <polygon class="cls-7" points="808.65 466.1 828.89 583.53 806.26 466.56 808.65 466.1"/>
            <polygon class="cls-7" points="840.36 490.33 855.22 593.21 837.97 490.78 840.36 490.33"/>
            <polygon class="cls-7" points="872.07 514.55 886.7 597.75 869.68 515 872.07 514.55"/>
            <polygon class="cls-7" points="903.78 538.77 914.83 605.88 901.38 539.23 903.78 538.77"/>
            <polygon class="cls-7" points="935.49 562.99 941.66 600.91 933.09 563.45 935.49 562.99"/>
            <polygon class="cls-7" points="967 587.97 971.92 618.5 964.8 587.67 967 587.97"/>
          </g>
          <path class="cls-17" d="M559.12,268.3c-3.38.07-5.21.17-5.21.17s31.24,157.88,149.63,249.81C801.09,594,965,619.6,1013.88,625.63Z"/>
          <polygon class="cls-7" points="1013.88 625.63 504.73 235.94 512.23 226.33 1013.88 625.63"/>
          <g>
            <polygon class="cls-7" points="579.59 284.24 679.5 282.97 579.42 281.81 579.59 284.24"/>
            <polygon class="cls-7" points="611.04 308.79 744.32 302.38 610.88 306.36 611.04 308.79"/>
            <polygon class="cls-7" points="642.5 333.34 791.72 322.51 642.33 330.91 642.5 333.34"/>
            <polygon class="cls-7" points="673.95 357.89 827.54 349.1 673.78 355.46 673.95 357.89"/>
            <polygon class="cls-7" points="705.4 382.44 860.09 375.89 705.24 380.01 705.4 382.44"/>
            <polygon class="cls-7" points="736.86 407 875.1 398.12 736.7 404.56 736.86 407"/>
            <polygon class="cls-7" points="768.32 431.55 889.77 420.58 765.5 429.13 768.32 431.55"/>
            <polygon class="cls-7" points="799.77 456.1 918.5 445.98 796.67 454.13 799.77 456.1"/>
            <polygon class="cls-7" points="831.23 480.65 934.52 469 827.83 478.63 831.23 480.65"/>
            <polygon class="cls-7" points="862.68 505.2 946.88 498.31 858.83 502.97 862.68 505.2"/>
            <polygon class="cls-7" points="891.67 529.97 961.86 523.47 889 527.13 891.67 529.97"/>
            <polygon class="cls-7" points="921.5 554.8 963.84 550.69 921.34 552.37 921.5 554.8"/>
            <polygon class="cls-7" points="953 578.8 988.51 575.51 951.83 576.3 953 578.8"/>
          </g>
        </g>
        <g>
          <g>
            <path class="cls-16" d="M209.46,282.36c120.15-61,260.5-25.87,260.5-25.87S415.53,390.55,295.38,451.55c-96.53,49-259.59,50.12-259.59,50.12L3.16,493.54S89.32,343.37,209.46,282.36Z"/>
            <polygon class="cls-7" points="3.16 493.54 514.04 227.27 519.55 238.13 3.16 493.54"/>
          </g>
          <g>
            <g>
              <polygon class="cls-7" points="446.95 271.67 401.72 365.41 449.09 272.53 446.95 271.67"/>
              <polygon class="cls-7" points="413.16 288.43 359.21 407.44 415.3 289.28 413.16 288.43"/>
              <polygon class="cls-7" points="379.37 305.19 324.71 431.95 381.51 306.04 379.37 305.19"/>
              <polygon class="cls-7" points="345.58 321.94 291.07 454.09 347.72 322.8 345.58 321.94"/>
              <polygon class="cls-7" points="311.79 338.7 254.64 467.96 313.93 339.55 311.79 338.7"/>
              <polygon class="cls-7" points="278 355.46 229 476.87 280.14 356.31 278 355.46"/>
              <polygon class="cls-7" points="244.21 372.21 203.87 480.18 246.35 373.06 244.21 372.21"/>
              <polygon class="cls-7" points="210.43 388.96 171.51 484.58 212.56 389.82 210.43 388.96"/>
              <polygon class="cls-7" points="176.64 405.72 145.34 488.8 178.78 406.58 176.64 405.72"/>
              <polygon class="cls-7" points="142.85 422.48 114.28 497.03 144.99 423.33 142.85 422.48"/>
              <polygon class="cls-7" points="109.06 439.23 86.71 499.51 111.2 440.09 109.06 439.23"/>
              <polygon class="cls-7" points="75.27 455.99 62.71 490.06 77.41 456.85 75.27 455.99"/>
              <polygon class="cls-7" points="41.83 473.63 31.46 500.92 43.63 473.61 41.83 473.63"/>
            </g>
            <g>
              <polygon class="cls-7" points="455.75 261.53 368.95 247.87 456.35 259.3 455.75 261.53"/>
              <polygon class="cls-7" points="422.14 278.64 312.22 250.99 422.74 276.41 422.14 278.64"/>
              <polygon class="cls-7" points="388.53 295.75 266.89 262.07 389.12 293.52 388.53 295.75"/>
              <polygon class="cls-7" points="354.92 312.85 221.65 278.06 355.51 310.63 354.92 312.85"/>
              <polygon class="cls-7" points="321.31 329.96 191.09 294.41 321.9 327.74 321.31 329.96"/>
              <polygon class="cls-7" points="287.7 347.07 161.03 313.91 288.29 344.84 287.7 347.07"/>
              <polygon class="cls-7" points="254.08 364.18 143.37 332.1 256.33 362.22 254.08 364.18"/>
              <polygon class="cls-7" points="220.47 381.29 112.14 350.48 223.08 379.63 220.47 381.29"/>
              <polygon class="cls-7" points="186.86 398.39 93.12 368.96 189.75 396.72 186.86 398.39"/>
              <polygon class="cls-7" points="153.25 415.5 76.37 393.93 158.42 414.3 153.25 415.5"/>
              <polygon class="cls-7" points="121.49 433.19 58.33 414.55 123.75 431.22 121.49 433.19"/>
              <polygon class="cls-7" points="88.74 450.03 51.19 439.46 91.5 448.3 88.74 450.03"/>
              <polygon class="cls-7" points="53.67 467.3 28.5 458.47 56.33 465.8 53.67 467.3"/>
            </g>
          </g>
          <path class="cls-18" d="M454.75,264.15c3.38.19,5.2.35,5.2.35S441.7,360.37,315.18,440.73C237.56,490,120.06,501.65,48.85,500.47c-28-.47-31.83-8.15-45.69-6.93Z"/>
        </g>
        <circle class="cls-11" cx="490.12" cy="649.72" r="22.67"/>
        <circle class="cls-19" cx="490.12" cy="647.34" r="22.67"/>
        <path class="cls-20" d="M430.85,656.78c17.23-11.35,27.46-44.47,32.45-63.42-19.9,4.6-58.85-4.94-74.11,8C357.85,628,393,681.65,430.85,656.78,446.11,646.73,415.61,666.8,430.85,656.78Z"/>
      </g>
      <ellipse class="cls-21" cx="403" cy="607.67" rx="11.3" ry="5.11" transform="translate(-130.66 110.81) rotate(-13.49)"/>
    </g>
  </g>
</svg>
