<?xml version="1.0" encoding="utf-8"?>
<!-- Generator: Adobe Illustrator 20.1.0, SVG Export Plug-In . SVG Version: 6.00 Build 0)  -->
<svg version="1.1" id="Calque_1" xmlns="http://www.w3.org/2000/svg" xmlns:xlink="http://www.w3.org/1999/xlink" x="0px" y="0px"
	 viewBox="0 0 1024 1024" style="enable-background:new 0 0 1024 1024;" xml:space="preserve">
<style type="text/css">
	.st0{opacity:0.2;fill:#6C8B8E;enable-background:new    ;}
	.st1{fill:#FF8112;}
	.st2{opacity:0.5;fill:url(#SVGID_1_);enable-background:new    ;}
	.st3{opacity:0.5;fill:url(#SVGID_2_);enable-background:new    ;}
	.st4{fill:#4B632F;}
	.st5{fill:#537022;}
	.st6{opacity:0.5;fill:url(#SVGID_3_);enable-background:new    ;}
	.st7{fill:#CC6100;}
	.st8{fill:#B8BF7B;}
	.st9{fill:#E1793B;}
	.st10{fill:#FFC697;}
	.st11{fill:#381A01;}
	.st12{fill:#5B2700;}
	.st13{fill:#FFFFFF;}
	.st14{fill:url(#SVGID_4_);}
	.st15{fill:url(#SVGID_5_);}
	.st16{fill:#D1CD7D;}
	.st17{opacity:0.5;fill:url(#SVGID_6_);enable-background:new    ;}
	.st18{opacity:0.5;fill:url(#SVGID_7_);enable-background:new    ;}
	.st19{fill:url(#SVGID_8_);}
	.st20{fill:url(#SVGID_9_);}
	.st21{fill:#560089;}
	.st22{fill:#AD0DFF;}
	.st23{fill:url(#SVGID_10_);}
	.st24{fill:url(#SVGID_11_);}
	.st25{fill:url(#SVGID_12_);}
	.st26{fill:url(#SVGID_13_);}
</style>
<title>clem 4 eyes</title>
<g>
	<g id="Calque_1_1_">
		<g>
			<ellipse class="st0" cx="527.8" cy="992.1" rx="200.5" ry="22.3"/>
			<path class="st1" d="M757.7,744.3c9.5,129.7-89.8,232.1-219.5,241.6S295.6,898,286.1,768.3c-5.4-73,14.5-146,63.5-192.9
				c38.1-36.5,97.4-55,154.1-59.2c46.3-3.4,105.2,5.7,143.5,27.8C716.5,583.9,751.6,660.9,757.7,744.3z"/>
			
				<linearGradient id="SVGID_1_" gradientUnits="userSpaceOnUse" x1="521.7759" y1="-30.7" x2="521.7759" y2="173.12" gradientTransform="matrix(1 0 0 -1 0 1023.28)">
				<stop  offset="0" style="stop-color:#4B005C"/>
				<stop  offset="1" style="stop-color:#4B005C;stop-opacity:0"/>
			</linearGradient>
			<path class="st2" d="M757.7,744.3c9.5,129.7-89.8,232.1-219.5,241.6S295.6,898,286.1,768.3c-5.4-73,14.5-146,63.5-192.9
				c38.1-36.5,97.4-55,154.1-59.2c46.3-3.4,105.2,5.7,143.5,27.8C716.5,583.9,751.6,660.9,757.7,744.3z"/>
			
				<radialGradient id="SVGID_2_" cx="527.08" cy="306.3775" r="249.23" gradientTransform="matrix(1 0 0 -0.93 -0.62 1015.6104)" gradientUnits="userSpaceOnUse">
				<stop  offset="0" style="stop-color:#FFFFFF"/>
				<stop  offset="1" style="stop-color:#FFFFFF;stop-opacity:0"/>
			</radialGradient>
			<path class="st3" d="M757.7,744.3c9.5,129.7-89.8,232.1-219.5,241.6S295.6,898,286.1,768.3c-5.4-73,14.5-146,63.5-192.9
				c38.1-36.5,97.4-55,154.1-59.2c46.3-3.4,105.2,5.7,143.5,27.8C716.5,583.9,751.6,660.9,757.7,744.3z"/>
			<path class="st4" d="M726.8,295.6C683.7,418.7,562,488.1,562,488.1s-51.7-130.1-8.5-253.2C588.1,136,701.4,26.1,701.4,26.1
				l28.3-16.2C729.7,9.9,770,172.6,726.8,295.6z"/>
			<g>
				<polygon class="st5" points="576.1,453.3 661.5,404.4 577.2,455.2 				"/>
				<polygon class="st5" points="587.3,420.5 696.5,359.8 588.4,422.3 				"/>
				<polygon class="st5" points="598.6,387.6 712.4,324.5 599.6,389.5 				"/>
				<polygon class="st5" points="609.8,354.7 725.9,288 610.8,356.6 				"/>
				<polygon class="st5" points="621,321.9 736.8,253 622.1,323.7 				"/>
				<polygon class="st5" points="632.3,289 737.2,229.7 633.3,290.9 				"/>
				<polygon class="st5" points="643.5,256.2 737.2,206.4 644.5,258 				"/>
				<polygon class="st5" points="654.7,223.3 746,174.2 655.8,225.2 				"/>
				<polygon class="st5" points="665.9,190.5 746.7,149.8 667,192.3 				"/>
				<polygon class="st5" points="677.2,157.6 741.8,122.6 678.2,159.5 				"/>
				<polygon class="st5" points="688.4,124.8 740.7,97.1 689.4,126.6 				"/>
				<polygon class="st5" points="699.6,91.9 729.2,76.3 700.7,93.7 				"/>
				<polygon class="st5" points="710.8,59 735.4,46.5 711.9,60.9 				"/>
			</g>
			
				<radialGradient id="SVGID_3_" cx="541.26" cy="447.0467" r="39.66" gradientTransform="matrix(1 0 0 -0.96 0.15 987.2188)" gradientUnits="userSpaceOnUse">
				<stop  offset="0" style="stop-color:#000000"/>
				<stop  offset="1" style="stop-color:#000000;stop-opacity:0"/>
			</radialGradient>
			<path class="st6" d="M570.1,529.3c11.1,4.1,18.5,10.8,19.1,19c1.1,14.7-20.3,28.2-47.8,30.2s-50.6-8.2-51.7-22.9
				c-0.5-6.7,3.7-13.1,10.9-18.3"/>
			<path class="st5" d="M554.6,539.7c1.8,0.1,3.6,0.5,5.3,1.2c1.9,0.8,3.5,2,4.8,3.6c0.7,0.9,1.2,2,1.6,3.1l0.2,0.9v0.1
				c0-0.1,0,0.2,0,0.2v0.1v0.2l0.1,0.3c0,0.3,0.1,0.7,0.1,1c0,0.4,0,0.6,0,1c-0.2,2.4-1.1,4.6-2.5,6.5c-2.5,3.3-5.8,5.9-9.5,7.5
				c-3.5,1.6-7.2,2.6-11,3c-0.9,0.1-2,0.2-2.8,0.2c-1,0-2,0-2.9,0c-1.9-0.1-3.8-0.3-5.7-0.7c-3.9-0.7-7.6-2.3-10.8-4.5
				c-1.8-1.3-3.3-2.9-4.4-4.7c-1.2-2-1.8-4.3-1.5-6.7c0.3-2.1,1.3-4.1,2.8-5.6c1.3-1.3,2.9-2.2,4.7-2.8c-1,1.4-1.7,2.8-2.3,4.4
				c-0.4,1.2-0.5,2.6-0.1,3.8c0.7,2.1,2.6,3.3,5,4.4c4.9,1.9,11,2.2,16.7,1.7c2.9-0.3,5.7-0.9,8.4-1.8c2.5-0.7,4.9-2,7-3.6
				c1.7-1.5,2.8-3,2.3-5.4c-0.4-1.4-1-2.6-2-3.7C557,541.9,555.9,540.7,554.6,539.7z"/>
			<path class="st7" d="M546.2,543l0.4,0.1c1.1,0.3,2.1,0.8,2.9,1.5c0.7,0.6,1.2,1.4,1.5,2.3c0.2,1.2,0,2.4-0.6,3.4
				c-0.7,1.1-1.5,1.9-2.6,2.6c-2.2,1.4-4.7,2.2-7.2,2.5c-0.7,0.1-1.3,0.1-1.9,0.1s-1.3,0-2-0.1c-1.3-0.1-2.5-0.4-3.7-0.8
				c-1.1-0.4-2.2-0.9-3.2-1.7c-0.9-0.7-1.6-1.6-2-2.7c-0.3-0.9-0.2-1.9,0.2-2.8c0.3-0.6,0.7-1.2,1.2-1.7c0.3-0.3,0.6-0.6,1-0.8
				l0.4-0.2c-0.4,0.4-0.8,0.8-1.1,1.3c-0.4,0.5-0.6,1.1-0.8,1.7c-0.2,0.7-0.1,1.5,0.2,2.1c0.7,1.4,2.5,2.5,4.6,3
				c1.1,0.3,2.2,0.5,3.3,0.5c0.6,0,1.1,0,1.7,0s1.2-0.1,1.8-0.1c2.3-0.2,4.5-0.9,6.5-1.9c0.9-0.5,1.6-1.1,2.3-1.9
				c0.5-0.7,0.8-1.5,0.7-2.3c-0.3-1.4-1.1-2.6-2.2-3.3C547.1,543.5,546.6,543.3,546.2,543z"/>
			<path class="st5" d="M544.8,496.5c2.5,1,4.2,2.5,4.3,4.5c0.3,3.4-4.5,6.6-10.7,7s-11.3-2-11.6-5.4c-0.1-1.6,0.8-3,2.4-4.3"/>
			<path class="st8" d="M548,508.1c2.5,1,4.2,2.5,4.3,4.5c0.3,3.4-4.5,6.6-10.7,7s-11.3-2-11.6-5.4c-0.1-1.6,0.8-3.1,2.4-4.3"/>
			<polygon class="st9" points="522.7,554.1 527.8,569.9 543.8,555.6 571.9,559.4 555.9,547.1 571.2,532.8 538.7,541 516.9,528.2 
				524,543.9 492.7,552.7 			"/>
			<path class="st5" d="M542.6,488.7c-0.2-2.5-4.7-4.2-10-3.6s-9.3,3-9.1,5.5c0,0,8,11.1,8,28.5c0.1,10.1-0.8,20.3-2.5,30.2
				c0.2,2.5,4.7,4.2,10,3.7s9.3-3,9.1-5.5c0,0,2.5-17.7,2.5-30.2C550.6,504.7,542.6,488.7,542.6,488.7z"/>
			<circle class="st10" cx="401.6" cy="718.4" r="28.6"/>
			<circle class="st10" cx="636" cy="717.3" r="28.6"/>
			<circle class="st11" cx="401.6" cy="716.3" r="28.6"/>
			<circle class="st12" cx="401.6" cy="716.3" r="25.5"/>
			
				<ellipse transform="matrix(0.8355 -0.5495 0.5495 0.8355 -315.2035 340.3505)" class="st13" cx="410.9" cy="696.7" rx="6" ry="6"/>
			
				<ellipse transform="matrix(0.8366 -0.5478 0.5478 0.8366 -335.8018 336.6323)" class="st13" cx="396.4" cy="731.3" rx="8" ry="8"/>
			<circle class="st11" cx="635" cy="715.2" r="28.6"/>
			<circle class="st12" cx="635" cy="715.2" r="25.5"/>
			<circle class="st13" cx="645.2" cy="694.9" r="6"/>
			<circle class="st13" cx="628.3" cy="725.8" r="9.5"/>
			
				<linearGradient id="SVGID_4_" gradientUnits="userSpaceOnUse" x1="3972.9001" y1="231.6102" x2="3957.7905" y2="265.5101" gradientTransform="matrix(-1 0 0 -1 4282.1699 1023.28)">
				<stop  offset="0" style="stop-color:#ED4D0F;stop-opacity:0"/>
				<stop  offset="1" style="stop-color:#ED4D0F;stop-opacity:0.96"/>
			</linearGradient>
			<circle class="st14" cx="318" cy="772.2" r="20.2"/>
			
				<linearGradient id="SVGID_5_" gradientUnits="userSpaceOnUse" x1="2649.4189" y1="-700.9504" x2="2634.2991" y2="-667.0604" gradientTransform="matrix(6.123234e-17 1 1 -6.123234e-17 1388.55 -1870.33)">
				<stop  offset="0" style="stop-color:#ED4D0F;stop-opacity:0"/>
				<stop  offset="1" style="stop-color:#ED4D0F;stop-opacity:0.96"/>
			</linearGradient>
			<circle class="st15" cx="707.1" cy="770.4" r="20.2"/>
			<polygon class="st5" points="729.7,9.9 548.8,537.7 538.8,534.2 			"/>
			<g>
				<path class="st4" d="M518.1,501.1c0,0-3.5-1-9.7-3.2c-26.4-9.3-100.6-39.5-154.2-101.8c-7.6-8.9-14.7-18.2-21.1-28
					c-37.4-57.5-56.1-147.8-63.5-192.7c-2.8-16.8-4-27.3-4-27.3l4-29c0,0,137.9,60.6,201.9,158.9S518.1,501.1,518.1,501.1z"/>
				<polygon class="st5" points="269.7,119.2 547.5,536.5 538.6,542.3 				"/>
			</g>
			<path class="st11" d="M606.2,622.2l0.9-0.2c0.6-0.1,1.5-0.3,2.6-0.5s2.5-0.3,4.1-0.5s3.4-0.3,5.3-0.4s4.1-0.2,6.3-0.1
				s4.6,0.2,7,0.3s4.9,0.6,7.4,1c2.5,0.5,5.1,1,7.5,1.8l3.7,1.1c1.2,0.4,2.4,0.9,3.6,1.4s2.4,0.9,3.5,1.4l3.3,1.7
				c1.1,0.6,2.2,1,3.1,1.7l2.8,1.9l2.7,1.8l2.3,1.9c1.5,1.3,2.9,2.3,4,3.4l2.8,3l2.4,2.6l-2.5-2.5l-2.8-2.9
				c-1.1-1.1-2.6-2.1-4.1-3.3l-2.3-1.9l-2.7-1.7l-2.9-1.8c-1-0.6-2.1-1-3.2-1.6l-3.3-1.6c-1.1-0.5-2.3-0.9-3.5-1.3s-2.4-0.9-3.6-1.3
				l-3.7-1c-2.5-0.6-5-1.2-7.5-1.5c-2.5-0.3-5-0.6-7.3-0.8s-4.7-0.3-6.9-0.2s-4.3,0.1-6.2,0.3s-3.7,0.4-5.2,0.5s-2.9,0.4-4,0.6
				s-1.9,0.4-2.5,0.5l-0.9,0.2L606.2,622.2z"/>
			<path class="st11" d="M440.8,628.5l-0.9-0.3c-0.6-0.2-1.4-0.4-2.5-0.6s-2.4-0.5-3.9-0.8s-3.3-0.6-5.2-0.8s-4-0.5-6.1-0.6
				s-4.5-0.2-6.9-0.2s-4.9,0.2-7.4,0.4c-2.5,0.3-5,0.6-7.5,1.1l-3.8,0.8c-1.2,0.3-2.4,0.7-3.6,1.1s-2.4,0.7-3.6,1.1l-3.4,1.4
				c-1.1,0.5-2.2,0.9-3.2,1.4l-3,1.6l-2.8,1.6l-2.5,1.7c-1.5,1.1-3,2.1-4.3,3.1l-3,2.7l-2.6,2.4l2.6-2.5l2.9-2.8
				c1.2-1,2.6-2,4.2-3.2l2.4-1.8l2.8-1.6l3-1.7c1-0.6,2.1-1,3.2-1.5l3.4-1.5c1.1-0.5,2.4-0.8,3.6-1.2s2.4-0.8,3.7-1.2l3.8-0.9
				c2.5-0.6,5.1-1,7.6-1.3c2.5-0.3,5-0.5,7.5-0.6s4.8-0.1,7,0s4.3,0.2,6.3,0.4s3.7,0.5,5.3,0.7s2.9,0.5,4,0.8s2,0.4,2.6,0.6l0.9,0.2
				L440.8,628.5z"/>
			<path class="st16" d="M537.6,485.5c1.5-0.1,2.8,0.9,3.1,2.3c0.2,1.9-3.1,3.9-7.5,4.5s-8.1-0.6-8.3-2.5c-0.1-0.9,0.5-1.8,1.7-2.5
				C530.1,486,533.8,485.4,537.6,485.5z"/>
			<g>
				<polygon class="st5" points="567.9,462.6 537.9,379.7 566,463.4 				"/>
				<polygon class="st5" points="579.5,429.8 537.4,321.6 577.5,430.6 				"/>
				<polygon class="st5" points="591.1,397.1 540.9,277 589.1,397.9 				"/>
				<polygon class="st5" points="602.6,364.4 553,240.1 600.7,365.2 				"/>
				<polygon class="st5" points="614.2,331.6 566.1,205.8 612.2,332.4 				"/>
				<polygon class="st5" points="625.8,298.9 580.3,187.3 623.8,299.7 				"/>
				<polygon class="st5" points="637.3,266.2 594.7,169 635.4,267 				"/>
				<polygon class="st5" points="648.9,233.4 607.8,138.2 647,234.2 				"/>
				<polygon class="st5" points="660.5,200.7 622.3,118.7 658.5,201.5 				"/>
				<polygon class="st5" points="672,167.9 643.1,100.4 670.1,168.7 				"/>
				<polygon class="st5" points="683.6,135.2 659.7,81.1 681.7,136 				"/>
				<polygon class="st5" points="695.2,102.5 681.6,71.9 693.2,103.3 				"/>
				<polygon class="st5" points="706.8,69.7 695.3,44.7 704.8,70.5 				"/>
			</g>
			<g>
				<g>
					<polygon class="st5" points="502.8,482.6 417.5,452.1 502.3,484.5 					"/>
					<polygon class="st5" points="485.2,454.9 377.2,419.2 484.6,456.8 					"/>
					<polygon class="st5" points="467.5,427.2 352.8,391.7 467,429.1 					"/>
					<polygon class="st5" points="449.9,399.5 330.5,364.6 449.4,401.4 					"/>
					<polygon class="st5" points="432.3,371.8 315.1,334.4 431.8,373.8 					"/>
					<polygon class="st5" points="414.6,344.2 305.9,313.3 414.1,346.1 					"/>
					<polygon class="st5" points="397,316.5 299.9,291.6 396.5,318.4 					"/>
					<polygon class="st5" points="379.4,288.8 293.1,264 378.9,290.7 					"/>
					<polygon class="st5" points="361.8,261.1 287,241.7 361.2,263 					"/>
					<polygon class="st5" points="344.1,233.4 277,215.6 343.6,235.4 					"/>
					<polygon class="st5" points="326.5,205.7 272.3,192 326,207.7 					"/>
					<polygon class="st5" points="308.9,178.1 278.2,170.4 308.3,180 					"/>
					<polygon class="st5" points="289.6,150 266.8,144 291,152.2 					"/>
				</g>
				<g>
					<polygon class="st5" points="512.4,489.2 516.2,412.9 514.4,489.5 					"/>
					<polygon class="st5" points="494.5,461.7 508.2,364.1 496.5,462.1 					"/>
					<polygon class="st5" points="476.6,434.2 494.4,325.9 478.5,434.6 					"/>
					<polygon class="st5" points="458.6,406.8 476.4,288.2 460.6,407.1 					"/>
					<polygon class="st5" points="440.7,379.3 459.4,263.3 442.7,379.6 					"/>
					<polygon class="st5" points="422.8,351.8 439.8,239.1 424.8,352.1 					"/>
					<polygon class="st5" points="404.9,324.3 422.4,225.5 406.9,324.6 					"/>
					<polygon class="st5" points="387,296.8 402.1,204.5 388.7,299.2 					"/>
					<polygon class="st5" points="369,269.3 384.6,190.7 370.7,271.8 					"/>
					<polygon class="st5" points="351.1,241.8 362.7,173.3 352.7,245.2 					"/>
					<polygon class="st5" points="333,215.1 343.1,159.2 334.7,217.4 					"/>
					<polygon class="st5" points="315,188.1 320.9,155.7 316.9,191 					"/>
					<polygon class="st5" points="297.1,161.9 301.9,137.3 298.8,163.7 					"/>
				</g>
			</g>
			<linearGradient id="SVGID_6_" gradientUnits="userSpaceOnUse" x1="178.2574" y1="438.1481" x2="382.2574" y2="313.1481">
				<stop  offset="0" style="stop-color:#FFFFFF"/>
				<stop  offset="1" style="stop-color:#FFFFFF;stop-opacity:0"/>
			</linearGradient>
			<path class="st17" d="M508.4,497.9c-26.4-9.3-100.6-39.5-154.2-101.8c-7.6-8.9-14.7-18.2-21.1-28
				c-37.4-57.5-56.1-147.8-63.5-192.7c-0.7-5.6-1.3-11-1.7-16.1c-2.2-24.3,4.1-28.3,1.8-40.2L510,488.6
				C510.2,491.5,512.9,499,508.4,497.9z"/>
			<linearGradient id="SVGID_7_" gradientUnits="userSpaceOnUse" x1="484.2605" y1="156.8612" x2="761.2605" y2="314.8612">
				<stop  offset="0" style="stop-color:#FFFFFF"/>
				<stop  offset="1" style="stop-color:#FFFFFF;stop-opacity:0"/>
			</linearGradient>
			<path class="st18" d="M560.4,483.9c1,2.8,1.6,4.3,1.6,4.3s121.6-69.4,164.8-192.5c35.5-101.4,11.4-243.7,2.8-285.7L560.4,483.9z"
				/>
		</g>
		<g>
			<g>
				
					<linearGradient id="SVGID_8_" gradientUnits="userSpaceOnUse" x1="498.8508" y1="410.3585" x2="347.9507" y2="253.5585" gradientTransform="matrix(1 0 0 -1 0 1023.28)">
					<stop  offset="0" style="stop-color:#FFFFFF"/>
					<stop  offset="1" style="stop-color:#FFFFFF;stop-opacity:0"/>
				</linearGradient>
				<path class="st19" d="M421.5,783.9h-33.5c-40.4-0.1-73.1-32.8-73.1-73.1c0-0.4,0-0.8,0-1.2c0.7-39.9,33.2-72,73.1-72h33.5
					c4.3,0,8.5,0.4,12.7,1.1c39.8,7,66.4,44.9,59.3,84.7C487.3,758.4,457,783.9,421.5,783.9L421.5,783.9z"/>
				
					<linearGradient id="SVGID_9_" gradientUnits="userSpaceOnUse" x1="725.9644" y1="410.6766" x2="572.8343" y2="251.5766" gradientTransform="matrix(1 0 0 -1 0 1023.28)">
					<stop  offset="0" style="stop-color:#FFFFFF"/>
					<stop  offset="1" style="stop-color:#FFFFFF;stop-opacity:0"/>
				</linearGradient>
				<path class="st20" d="M647.4,786.1h-34c-41-0.1-74.2-33.3-74.2-74.2c0-0.4,0-0.8,0-1.2c0.7-40.5,33.7-73,74.2-73h34
					c4.3,0,8.6,0.4,12.9,1.1c40.4,7.1,67.3,45.6,60.2,86C714.2,760.2,683.4,786.1,647.4,786.1L647.4,786.1z"/>
			</g>
			<path class="st21" d="M730.2,693.9c-8.6-37.8-42.2-64.7-81-64.8h-33.3c-40.3,0.1-74.7,28.9-81.8,68.6c-1.2-0.7-2.5-1-3.8-1h-24.1
				c-0.8,0-1.7,0.2-2.5,0.4c-1-5.2-2.4-10.3-4.4-15.2c-12.5-31.8-43.1-52.8-77.3-52.8h-33.2c-45.9,0-83.1,37.2-83.1,83.1
				c0,1.7,0,3.4,0.1,5c2.7,43.9,39.1,78,83,78h33.2c1.3,0,2.6,0,3.9-0.1l0,0c27.6-1.3,52.7-16.2,67-39.8l0,0c8-13,12.2-28,12.2-43.2
				v-0.1c0.4,0.1,0.7,0.1,1.1,0.1h24.1c0.8,0,1.7-0.2,2.5-0.5c0,0.2,0,0.3,0,0.5c0,6.2,0.7,12.4,2.1,18.4
				c5.2,22.7,19.6,42.2,39.8,53.7c12.5,7.2,26.8,11,41.2,11h33.2c45.9-0.1,83.1-37.3,83-83.2C732.2,706,731.5,699.9,730.2,693.9
				L730.2,693.9z M422.2,784.8h-33.3c-40-0.1-72.4-32.5-72.5-72.5c0-0.4,0-0.8,0-1.2c0.7-39.6,32.9-71.3,72.5-71.3h33.2
				c4.2,0,8.4,0.4,12.6,1.1c39.4,7,65.7,44.7,58.7,84.1C487.2,759.5,457.2,784.7,422.2,784.8L422.2,784.8z M649.2,784.8h-33.3
				c-10.5,0-20.8-2.3-30.4-6.7l0,0c-36.4-16.8-52.2-59.8-35.5-96.2c11.8-25.7,37.6-42.1,65.8-42.1h33.2c9.9,0,19.7,2,28.8,6
				c36.7,15.9,53.6,58.7,37.6,95.4C704.1,767.6,678,784.7,649.2,784.8L649.2,784.8z"/>
			<path class="st22" d="M730.2,691.8c-8.6-37.8-42.2-64.7-81-64.8h-33.3c-40.3,0.1-74.7,28.9-81.8,68.6c-1.2-0.7-2.5-1-3.8-1h-24.1
				c-0.8,0-1.7,0.2-2.5,0.4c-1-5.2-2.4-10.3-4.4-15.2C487,648,456.3,627,422.1,627h-33.2c-45.9,0-83.1,37.2-83.1,83.1
				c0,1.7,0,3.4,0.1,5c2.7,43.9,39.1,78,83,78h33.2c1.3,0,2.6,0,3.9-0.1l0,0c27.6-1.3,52.7-16.2,67-39.8l0,0c8-13,12.2-28,12.2-43.2
				V710c0.4,0.1,0.7,0.1,1.1,0.1h24.1c0.8,0,1.7-0.2,2.5-0.5c0,0.2,0,0.3,0,0.5c0,6.2,0.7,12.4,2.1,18.4
				c5.2,22.7,19.6,42.2,39.8,53.7c12.5,7.2,26.8,11,41.2,11h33.2c45.9-0.1,83.1-37.3,83-83.2C732.2,703.9,731.5,697.8,730.2,691.8
				L730.2,691.8z M422.2,782.6h-33.3c-40-0.1-72.4-32.5-72.5-72.5c0-0.4,0-0.8,0-1.2c0.7-39.6,32.9-71.3,72.5-71.3h33.2
				c4.2,0,8.4,0.4,12.6,1.1c39.4,7,65.7,44.7,58.7,84.1C487.2,757.4,457.2,782.6,422.2,782.6L422.2,782.6z M649.2,782.6h-33.3
				c-10.5,0-20.8-2.2-30.4-6.6l0,0c-36.4-16.8-52.2-59.8-35.5-96.2c11.8-25.7,37.6-42.1,65.8-42.1h33.2c9.9,0,19.7,2,28.8,6
				c36.7,15.9,53.6,58.7,37.6,95.4C704.1,765.5,678,782.6,649.2,782.6L649.2,782.6z"/>
			
				<radialGradient id="SVGID_10_" cx="704.05" cy="355.985" r="28.2144" gradientTransform="matrix(1 0 0 -1 0 1023.28)" gradientUnits="userSpaceOnUse">
				<stop  offset="0" style="stop-color:#FFFFFF"/>
				<stop  offset="1" style="stop-color:#FFFFFF;stop-opacity:0"/>
			</radialGradient>
			<path class="st23" d="M730.2,691.8l-9.7,5.6c-4.3-23.9-20.3-44.1-42.6-53.8l10.9-6.5C709.8,648.6,724.9,668.5,730.2,691.8z"/>
			
				<radialGradient id="SVGID_11_" cx="326.16" cy="281.485" r="27.2467" gradientTransform="matrix(1 0 0 -1 0 1023.28)" gradientUnits="userSpaceOnUse">
				<stop  offset="0" style="stop-color:#FFFFFF"/>
				<stop  offset="1" style="stop-color:#FFFFFF;stop-opacity:0"/>
			</radialGradient>
			<path class="st24" d="M346.4,768.8l-9.9,5.8c-18.1-14.6-29.1-36.2-30.5-59.4l10.5-6.2c0,0.4,0,0.8,0,1.2
				C316.4,733.4,327.6,755.2,346.4,768.8z"/>
			
				<radialGradient id="SVGID_12_" cx="467.075" cy="365.185" r="29.8465" gradientTransform="matrix(1 0 0 -1 0 1023.28)" gradientUnits="userSpaceOnUse">
				<stop  offset="0" style="stop-color:#FFFFFF"/>
				<stop  offset="1" style="stop-color:#FFFFFF;stop-opacity:0"/>
			</radialGradient>
			<path class="st25" d="M499.4,679.8l-9.3,5.4c-8.9-24.2-30-41.9-55.5-46.5l12.9-7.7C471.3,638.7,490.3,656.6,499.4,679.8z"/>
			
				<radialGradient id="SVGID_13_" cx="560.18" cy="270.715" r="27.6205" gradientTransform="matrix(1 0 0 -1 0 1023.28)" gradientUnits="userSpaceOnUse">
				<stop  offset="0" style="stop-color:#FFFFFF"/>
				<stop  offset="1" style="stop-color:#FFFFFF;stop-opacity:0"/>
			</radialGradient>
			<path class="st26" d="M585.5,776l-10.8,6.3c-20.2-11.6-34.6-31.1-39.8-53.7l9.7-5.7C548.7,746.2,564,766,585.5,776z"/>
		</g>
		<circle class="st10" cx="516.8" cy="866.4" r="28.2"/>
		<circle class="st12" cx="516.8" cy="863.4" r="28.2"/>
	</g>
</g>
</svg>
