<?xml version="1.0" encoding="utf-8"?>
<!-- Generator: Adobe Illustrator 20.1.0, SVG Export Plug-In . SVG Version: 6.00 Build 0)  -->
<svg version="1.1" id="Calque_1" xmlns="http://www.w3.org/2000/svg" xmlns:xlink="http://www.w3.org/1999/xlink" x="0px" y="0px"
	 viewBox="0 0 1024 1024" style="enable-background:new 0 0 1024 1024;" xml:space="preserve">
<style type="text/css">
	.st0{opacity:0.2;fill:#6C8B8E;enable-background:new    ;}
	.st1{fill:#FF8112;}
	.st2{opacity:0.5;fill:url(#SVGID_1_);enable-background:new    ;}
	.st3{opacity:0.5;fill:url(#SVGID_2_);enable-background:new    ;}
	.st4{fill:#4B632F;}
	.st5{fill:#537022;}
	.st6{opacity:0.5;fill:url(#SVGID_3_);enable-background:new    ;}
	.st7{fill:#CC6100;}
	.st8{fill:#B8BF7B;}
	.st9{fill:#E1793B;}
	.st10{fill:#FFC697;}
	.st11{fill:#381A01;}
	.st12{fill:#5B2700;}
	.st13{fill:#FFFFFF;}
	.st14{fill:url(#SVGID_4_);}
	.st15{fill:url(#SVGID_5_);}
	.st16{fill:#D1CD7D;}
	.st17{opacity:0.5;fill:url(#SVGID_6_);enable-background:new    ;}
	.st18{opacity:0.5;fill:url(#SVGID_7_);enable-background:new    ;}
	.st19{fill:none;stroke:#1E0C00;stroke-miterlimit:10;}
</style>
<title>clem feel good</title>
<g>
	<g id="Calque_1_1_">
		<g>
			<ellipse class="st0" cx="519.2" cy="992.1" rx="200.5" ry="22.3"/>
			<path class="st1" d="M749.1,744.3c9.5,129.7-89.8,232.1-219.5,241.6S287,898,277.5,768.3c-5.4-73,14.5-146,63.5-192.9
				c38.1-36.5,97.4-55,154.1-59.2c46.2-3.4,105.2,5.6,143.5,27.8C707.9,583.9,743,660.9,749.1,744.3z"/>
			
				<linearGradient id="SVGID_1_" gradientUnits="userSpaceOnUse" x1="513.1709" y1="-30.7" x2="513.1709" y2="173.12" gradientTransform="matrix(1 0 0 -1 0 1023.28)">
				<stop  offset="0" style="stop-color:#4B005C"/>
				<stop  offset="1" style="stop-color:#4B005C;stop-opacity:0"/>
			</linearGradient>
			<path class="st2" d="M749.1,744.3c9.5,129.7-89.8,232.1-219.5,241.6S287,898,277.5,768.3c-5.4-73,14.5-146,63.5-192.9
				c38.1-36.5,97.4-55,154.1-59.2c46.2-3.4,105.2,5.6,143.5,27.8C707.9,583.9,743,660.9,749.1,744.3z"/>
			
				<radialGradient id="SVGID_2_" cx="518.47" cy="306.3775" r="249.23" gradientTransform="matrix(1 0 0 -0.93 -0.61 1015.6004)" gradientUnits="userSpaceOnUse">
				<stop  offset="0" style="stop-color:#FFFFFF"/>
				<stop  offset="1" style="stop-color:#FFFFFF;stop-opacity:0"/>
			</radialGradient>
			<path class="st3" d="M749.1,744.3c9.5,129.7-89.8,232.1-219.5,241.6S287,898,277.5,768.3c-5.4-73,14.5-146,63.5-192.9
				c38.1-36.5,97.4-55,154.1-59.2c46.2-3.4,105.2,5.6,143.5,27.8C707.9,583.9,743,660.9,749.1,744.3z"/>
			<path class="st4" d="M718.2,295.6C675,418.7,553.4,488.1,553.4,488.1s-51.7-130.1-8.5-253.2C579.5,136,692.8,26.1,692.8,26.1
				L721,9.9C721,9.9,761.3,172.6,718.2,295.6z"/>
			<g>
				<polygon class="st5" points="567.5,453.3 652.9,404.4 568.5,455.2 				"/>
				<polygon class="st5" points="578.7,420.5 687.9,359.8 579.8,422.3 				"/>
				<polygon class="st5" points="590,387.6 703.8,324.5 591,389.5 				"/>
				<polygon class="st5" points="601.2,354.7 717.3,288 602.2,356.6 				"/>
				<polygon class="st5" points="612.4,321.9 728.2,253 613.5,323.7 				"/>
				<polygon class="st5" points="623.7,289 728.6,229.7 624.7,290.9 				"/>
				<polygon class="st5" points="634.9,256.2 728.6,206.4 635.9,258 				"/>
				<polygon class="st5" points="646.1,223.3 737.4,174.2 647.1,225.2 				"/>
				<polygon class="st5" points="657.3,190.5 738.1,149.8 658.4,192.3 				"/>
				<polygon class="st5" points="668.6,157.6 733.2,122.6 669.6,159.5 				"/>
				<polygon class="st5" points="679.8,124.8 732.1,97.1 680.8,126.6 				"/>
				<polygon class="st5" points="691,91.9 720.6,76.3 692,93.7 				"/>
				<polygon class="st5" points="702.2,59 726.8,46.5 703.3,60.9 				"/>
			</g>
			
				<radialGradient id="SVGID_3_" cx="525.29" cy="547.3066" r="39.66" gradientTransform="matrix(1 0 0 -0.96 7.19 1083.0188)" gradientUnits="userSpaceOnUse">
				<stop  offset="0" style="stop-color:#000000"/>
				<stop  offset="1" style="stop-color:#000000;stop-opacity:0"/>
			</radialGradient>
			<path class="st6" d="M561.5,529.3c11.1,4.1,18.5,10.8,19.1,19c1.1,14.7-20.3,28.2-47.8,30.2s-50.6-8.2-51.7-22.9
				c-0.5-6.7,3.7-13.1,10.9-18.3"/>
			<path class="st5" d="M546,539.7c1.8,0.1,3.6,0.5,5.3,1.2c1.9,0.8,3.5,2,4.8,3.6c0.7,0.9,1.2,2,1.6,3.1l0.2,0.9v0.1
				c0-0.1,0,0.2,0,0.2v0.1v0.2l0.1,0.3c0,0.3,0.1,0.7,0.1,1c0,0.4,0,0.6,0,1c-0.2,2.4-1.1,4.6-2.5,6.5c-2.5,3.3-5.8,5.9-9.5,7.5
				c-3.5,1.6-7.2,2.6-11,3c-0.9,0.1-2,0.2-2.8,0.2c-1,0-2,0-2.9,0c-1.9-0.1-3.8-0.3-5.7-0.7c-3.9-0.7-7.6-2.3-10.8-4.5
				c-1.8-1.3-3.3-2.9-4.4-4.7c-1.2-2-1.8-4.3-1.5-6.7c0.3-2.1,1.3-4.1,2.8-5.6c1.3-1.3,2.9-2.2,4.7-2.8c-1,1.4-1.7,2.8-2.3,4.4
				c-0.4,1.2-0.5,2.6-0.1,3.8c0.7,2.1,2.6,3.3,5,4.4c4.9,1.9,11,2.2,16.7,1.7c2.9-0.3,5.7-0.9,8.4-1.8c2.5-0.7,4.9-2,7-3.6
				c1.7-1.5,2.8-3,2.3-5.4c-0.4-1.4-1-2.6-2-3.7C548.4,541.9,547.3,540.7,546,539.7z"/>
			<path class="st7" d="M537.6,543l0.4,0.1c1.1,0.3,2.1,0.8,2.9,1.5c0.7,0.6,1.3,1.4,1.5,2.4c0.2,1.2,0,2.4-0.6,3.4
				c-0.7,1.1-1.5,1.9-2.6,2.6c-2.2,1.4-4.7,2.2-7.2,2.5c-0.7,0.1-1.3,0.1-1.9,0.1s-1.3,0-2-0.1c-1.3-0.1-2.5-0.4-3.7-0.8
				c-1.1-0.4-2.2-0.9-3.2-1.7c-0.9-0.7-1.6-1.6-2-2.7c-0.3-0.9-0.2-1.9,0.2-2.8c0.3-0.6,0.7-1.2,1.2-1.7c0.3-0.3,0.6-0.6,1-0.8
				l0.4-0.2c-0.4,0.4-0.8,0.8-1.1,1.3c-0.4,0.5-0.6,1.1-0.8,1.7c-0.2,0.7-0.1,1.5,0.2,2.1c0.7,1.4,2.5,2.5,4.6,3
				c1.1,0.3,2.2,0.5,3.3,0.5c0.6,0,1.1,0,1.7,0s1.2-0.1,1.8-0.1c2.3-0.2,4.5-0.9,6.5-1.9c0.9-0.5,1.6-1.1,2.3-1.9
				c0.5-0.7,0.8-1.5,0.7-2.3c-0.3-1.4-1.1-2.6-2.2-3.3C538.5,543.6,538,543.3,537.6,543z"/>
			<path class="st5" d="M536.2,496.5c2.5,1,4.2,2.5,4.3,4.5c0.3,3.4-4.5,6.6-10.7,7s-11.3-2-11.6-5.4c-0.1-1.6,0.8-3,2.4-4.3"/>
			<path class="st8" d="M539.3,508.1c2.5,1,4.2,2.5,4.3,4.5c0.3,3.4-4.5,6.6-10.7,7s-11.3-2-11.6-5.4c-0.1-1.6,0.8-3.1,2.4-4.3"/>
			<polygon class="st9" points="514.1,554.1 519.2,569.9 535.2,555.6 563.3,559.4 547.3,547.1 562.6,532.8 530,541 508.3,528.2 
				515.4,543.9 484.1,552.7 			"/>
			<path class="st5" d="M534,488.7c-0.2-2.5-4.7-4.2-10-3.6s-9.3,3-9.1,5.5c0,0,8,11.1,8,28.5c0,10.1-0.8,20.2-2.5,30.2
				c0.2,2.5,4.7,4.2,10,3.7s9.3-3,9.1-5.5c0,0,2.5-17.7,2.5-30.2C542,504.6,534,488.7,534,488.7z"/>
			<circle class="st10" cx="393" cy="718.4" r="28.6"/>
			<circle class="st10" cx="627.4" cy="717.3" r="28.6"/>
			<circle class="st11" cx="393" cy="716.3" r="28.6"/>
			<circle class="st12" cx="393" cy="716.3" r="25.5"/>
			
				<ellipse transform="matrix(0.8355 -0.5495 0.5495 0.8355 -316.6208 335.6177)" class="st13" cx="402.3" cy="696.7" rx="6" ry="6"/>
			
				<ellipse transform="matrix(0.8366 -0.5478 0.5478 0.8366 -337.2168 331.899)" class="st13" cx="387.8" cy="731.3" rx="8" ry="8"/>
			<circle class="st11" cx="626.4" cy="715.2" r="28.6"/>
			<circle class="st12" cx="626.4" cy="715.2" r="25.5"/>
			<circle class="st13" cx="636.5" cy="694.9" r="6"/>
			<circle class="st13" cx="619.7" cy="725.8" r="9.5"/>
			
				<linearGradient id="SVGID_4_" gradientUnits="userSpaceOnUse" x1="-714.4848" y1="231.6123" x2="-729.6048" y2="265.5123" gradientTransform="matrix(-1 0 0 -1 -413.83 1023.28)">
				<stop  offset="0" style="stop-color:#ED4D0F;stop-opacity:0"/>
				<stop  offset="1" style="stop-color:#ED4D0F;stop-opacity:0.96"/>
			</linearGradient>
			<circle class="st14" cx="309.4" cy="772.2" r="20.2"/>
			
				<linearGradient id="SVGID_5_" gradientUnits="userSpaceOnUse" x1="-2046.5773" y1="-709.5587" x2="-2061.6973" y2="-675.6687" gradientTransform="matrix(6.123234e-17 1 1 -6.123234e-17 1388.55 2825.6699)">
				<stop  offset="0" style="stop-color:#ED4D0F;stop-opacity:0"/>
				<stop  offset="1" style="stop-color:#ED4D0F;stop-opacity:0.96"/>
			</linearGradient>
			<circle class="st15" cx="698.5" cy="770.4" r="20.2"/>
			<polygon class="st5" points="721,9.9 540.2,537.7 530.1,534.2 			"/>
			<g>
				<path class="st4" d="M509.5,501.1c0,0-3.5-1-9.7-3.2c-26.3-9.3-100.6-39.5-154.2-101.8c-7.6-8.9-14.7-18.2-21.1-28
					c-37.4-57.5-56.1-147.8-63.5-192.7c-2.8-16.8-4-27.3-4-27.3l4-29c0,0,138,60.6,201.9,158.9S509.5,501.1,509.5,501.1z"/>
				<polygon class="st5" points="261.1,119.2 538.8,536.5 530,542.3 				"/>
			</g>
			<path class="st11" d="M597.6,622.2l0.9-0.2c0.6-0.1,1.5-0.3,2.6-0.5s2.5-0.3,4.1-0.5s3.4-0.3,5.3-0.4s4.1-0.2,6.3-0.1
				s4.6,0.2,7,0.3s4.9,0.6,7.4,1c2.5,0.5,5.1,1,7.5,1.8l3.7,1.1c1.2,0.4,2.4,0.9,3.6,1.4s2.4,0.9,3.5,1.4l3.3,1.7
				c1.1,0.6,2.2,1,3.1,1.7l2.8,1.9l2.7,1.8l2.3,1.9c1.5,1.3,2.9,2.3,4,3.4l2.8,3l2.4,2.6l-2.5-2.5l-2.8-2.9
				c-1.1-1.1-2.6-2.1-4.1-3.3l-2.3-1.9l-2.7-1.7l-2.9-1.8c-1-0.6-2.1-1-3.2-1.6l-3.3-1.6c-1.1-0.5-2.3-0.9-3.5-1.3s-2.4-0.9-3.6-1.3
				l-3.7-1c-2.5-0.6-5-1.2-7.5-1.5c-2.5-0.3-5-0.6-7.3-0.8s-4.7-0.3-6.9-0.2s-4.3,0.1-6.2,0.3s-3.7,0.4-5.2,0.5s-2.9,0.4-4,0.6
				s-1.9,0.4-2.5,0.5l-0.9,0.2L597.6,622.2z"/>
			<path class="st11" d="M432.2,628.5l-0.9-0.3c-0.6-0.2-1.4-0.4-2.5-0.6s-2.4-0.5-3.9-0.8s-3.3-0.6-5.2-0.8s-4-0.5-6.1-0.6
				s-4.5-0.2-6.9-0.2s-4.9,0.2-7.4,0.4c-2.5,0.3-5,0.6-7.5,1.1l-3.8,0.8c-1.2,0.3-2.4,0.7-3.6,1.1s-2.4,0.7-3.6,1.1l-3.4,1.4
				c-1.1,0.5-2.2,0.9-3.2,1.4l-3,1.6l-2.8,1.6l-2.5,1.7c-1.5,1.1-3,2.1-4.3,3.1l-3,2.7l-2.6,2.4l2.6-2.5l2.9-2.8
				c1.2-1,2.6-2,4.2-3.2l2.4-1.8l2.8-1.6l3-1.7c1-0.6,2.1-1,3.2-1.5l3.4-1.5c1.1-0.5,2.4-0.8,3.6-1.2s2.4-0.8,3.7-1.2l3.8-0.9
				c2.5-0.6,5.1-1,7.6-1.3c2.5-0.3,5-0.5,7.5-0.6s4.8-0.1,7,0s4.3,0.2,6.3,0.4s3.7,0.5,5.3,0.7s2.9,0.5,4,0.8s2,0.4,2.6,0.6l0.9,0.2
				L432.2,628.5z"/>
			<path class="st16" d="M529,485.5c1.5-0.1,2.8,0.9,3.1,2.3c0.2,1.9-3.1,3.9-7.5,4.5s-8.1-0.6-8.3-2.5c-0.1-0.9,0.5-1.8,1.7-2.5
				C521.5,486,525.2,485.4,529,485.5z"/>
			<g>
				<polygon class="st5" points="559.3,462.6 529.3,379.7 557.4,463.4 				"/>
				<polygon class="st5" points="570.9,429.8 528.8,321.6 568.9,430.6 				"/>
				<polygon class="st5" points="582.5,397.1 532.3,277 580.5,397.9 				"/>
				<polygon class="st5" points="594,364.4 544.3,240.1 592.1,365.2 				"/>
				<polygon class="st5" points="605.6,331.6 557.5,205.8 603.6,332.4 				"/>
				<polygon class="st5" points="617.2,298.9 571.7,187.3 615.2,299.7 				"/>
				<polygon class="st5" points="628.7,266.2 586.1,169 626.8,267 				"/>
				<polygon class="st5" points="640.3,233.4 599.2,138.2 638.3,234.2 				"/>
				<polygon class="st5" points="651.9,200.7 613.7,118.7 649.9,201.5 				"/>
				<polygon class="st5" points="663.4,167.9 634.5,100.4 661.5,168.7 				"/>
				<polygon class="st5" points="675,135.2 651.1,81.1 673,136 				"/>
				<polygon class="st5" points="686.6,102.5 673,71.9 684.6,103.3 				"/>
				<polygon class="st5" points="698.2,69.7 686.7,44.7 696.2,70.5 				"/>
			</g>
			<g>
				<g>
					<polygon class="st5" points="494.2,482.6 408.9,452.1 493.7,484.5 					"/>
					<polygon class="st5" points="476.6,454.9 368.6,419.2 476,456.8 					"/>
					<polygon class="st5" points="458.9,427.2 344.2,391.7 458.4,429.1 					"/>
					<polygon class="st5" points="441.3,399.5 321.9,364.6 440.8,401.4 					"/>
					<polygon class="st5" points="423.7,371.8 306.5,334.4 423.1,373.8 					"/>
					<polygon class="st5" points="406,344.2 297.3,313.3 405.5,346.1 					"/>
					<polygon class="st5" points="388.4,316.5 291.3,291.6 387.9,318.4 					"/>
					<polygon class="st5" points="370.8,288.8 284.5,264 370.2,290.7 					"/>
					<polygon class="st5" points="353.1,261.1 278.4,241.7 352.6,263 					"/>
					<polygon class="st5" points="335.5,233.4 268.4,215.6 335,235.4 					"/>
					<polygon class="st5" points="317.9,205.7 263.7,192 317.4,207.7 					"/>
					<polygon class="st5" points="300.3,178.1 269.6,170.4 299.7,180 					"/>
					<polygon class="st5" points="281,150 258.2,144 282.4,152.2 					"/>
				</g>
				<g>
					<polygon class="st5" points="503.8,489.2 507.6,412.9 505.8,489.5 					"/>
					<polygon class="st5" points="485.9,461.7 499.6,364.1 487.9,462.1 					"/>
					<polygon class="st5" points="468,434.2 485.8,325.9 469.9,434.6 					"/>
					<polygon class="st5" points="450,406.8 467.8,288.2 452,407.1 					"/>
					<polygon class="st5" points="432.1,379.3 450.8,263.3 434.1,379.6 					"/>
					<polygon class="st5" points="414.2,351.8 431.1,239.1 416.2,352.1 					"/>
					<polygon class="st5" points="396.3,324.3 413.8,225.5 398.3,324.6 					"/>
					<polygon class="st5" points="378.4,296.8 393.5,204.5 380.1,299.2 					"/>
					<polygon class="st5" points="360.4,269.3 376,190.7 362.1,271.8 					"/>
					<polygon class="st5" points="342.5,241.8 354.1,173.3 344.1,245.2 					"/>
					<polygon class="st5" points="324.4,215.1 334.5,159.2 326.1,217.4 					"/>
					<polygon class="st5" points="306.4,188.1 312.3,155.7 308.3,191 					"/>
					<polygon class="st5" points="288.5,161.9 293.3,137.3 290.2,163.7 					"/>
				</g>
			</g>
			<linearGradient id="SVGID_6_" gradientUnits="userSpaceOnUse" x1="232.0041" y1="367.5785" x2="381.0041" y2="308.5785">
				<stop  offset="0" style="stop-color:#FFFFFF"/>
				<stop  offset="1" style="stop-color:#FFFFFF;stop-opacity:0"/>
			</linearGradient>
			<path class="st17" d="M499.7,497.9c-26.3-9.3-100.6-39.5-154.2-101.8c-7.6-8.9-14.7-18.2-21.1-28
				c-37.4-57.5-56.1-147.8-63.5-192.7c-0.7-5.6-1.3-11-1.7-16.1c-2.2-24.3,4.1-28.3,1.8-40.2l240.4,369.5
				C501.6,491.5,504.3,499,499.7,497.9z"/>
			<linearGradient id="SVGID_7_" gradientUnits="userSpaceOnUse" x1="605.7604" y1="241.5519" x2="685.7604" y2="260.5519">
				<stop  offset="0" style="stop-color:#FFFFFF"/>
				<stop  offset="1" style="stop-color:#FFFFFF;stop-opacity:0"/>
			</linearGradient>
			<path class="st18" d="M551.8,483.9c1,2.8,1.6,4.3,1.6,4.3S675,418.7,718.2,295.6C753.8,194.2,729.6,51.9,721,9.9L551.8,483.9z"/>
		</g>
		<path class="st19" d="M377.6,840c0,0,17,25.5,36.8,28.3s206.5,0,206.5,0c9-7,17.5-14.6,25.5-22.6"/>
	</g>
</g>
</svg>
