<?xml version="1.0" encoding="utf-8"?>
<!-- Generator: Adobe Illustrator 20.1.0, SVG Export Plug-In . SVG Version: 6.00 Build 0)  -->
<svg version="1.1" id="Calque_1" xmlns="http://www.w3.org/2000/svg" xmlns:xlink="http://www.w3.org/1999/xlink" x="0px" y="0px"
	 viewBox="0 0 1024 1024" style="enable-background:new 0 0 1024 1024;" xml:space="preserve">
<style type="text/css">
	.st0{opacity:0.2;fill:#6C8B8E;enable-background:new    ;}
	.st1{fill:#FF8112;}
	.st2{opacity:0.5;fill:url(#SVGID_1_);enable-background:new    ;}
	.st3{opacity:0.5;fill:url(#SVGID_2_);enable-background:new    ;}
	.st4{fill:#4B632F;}
	.st5{fill:#537022;}
	.st6{opacity:0.5;fill:url(#SVGID_3_);enable-background:new    ;}
	.st7{fill:#CC6100;}
	.st8{fill:#B8BF7B;}
	.st9{fill:#E1793B;}
	.st10{fill:#D1CD7D;}
	.st11{opacity:0.5;fill:url(#SVGID_4_);enable-background:new    ;}
	.st12{opacity:0.5;fill:url(#SVGID_5_);enable-background:new    ;}
	.st13{fill:#FBBE91;}
	.st14{fill:#2D1408;}
	.st15{opacity:0.75;fill:url(#SVGID_6_);enable-background:new    ;}
	.st16{opacity:0.75;fill:url(#SVGID_7_);enable-background:new    ;}
	.st17{opacity:0.2;fill:#3DA0D1;enable-background:new    ;}
	.st18{fill:#9A8F8B;}
	.st19{fill:url(#SVGID_8_);}
</style>
<title>clembodygard</title>
<g>
	<g id="Calque_1_1_">
		<ellipse class="st0" cx="525.2" cy="992.1" rx="200.5" ry="22.3"/>
		<path class="st1" d="M755.1,744.3c9.5,129.7-89.8,232.1-219.5,241.6S293,898,283.5,768.3c-5.4-73,14.5-146,63.5-192.9
			c38.1-36.5,97.4-55,154.1-59.2c46.2-3.4,105.2,5.6,143.5,27.8C713.9,583.9,749,660.9,755.1,744.3z"/>
		
			<linearGradient id="SVGID_1_" gradientUnits="userSpaceOnUse" x1="519.1709" y1="-30.7" x2="519.1709" y2="173.12" gradientTransform="matrix(1 0 0 -1 0 1023.28)">
			<stop  offset="0" style="stop-color:#4B005C"/>
			<stop  offset="1" style="stop-color:#4B005C;stop-opacity:0"/>
		</linearGradient>
		<path class="st2" d="M755.1,744.3c9.5,129.7-89.8,232.1-219.5,241.6S293,898,283.5,768.3c-5.4-73,14.5-146,63.5-192.9
			c38.1-36.5,97.4-55,154.1-59.2c46.2-3.4,105.2,5.6,143.5,27.8C713.9,583.9,749,660.9,755.1,744.3z"/>
		
			<radialGradient id="SVGID_2_" cx="524.47" cy="306.3775" r="249.23" gradientTransform="matrix(1 0 0 -0.93 -0.62 1015.6104)" gradientUnits="userSpaceOnUse">
			<stop  offset="0" style="stop-color:#FFFFFF"/>
			<stop  offset="1" style="stop-color:#FFFFFF;stop-opacity:0"/>
		</radialGradient>
		<path class="st3" d="M755.1,744.3c9.5,129.7-89.8,232.1-219.5,241.6S293,898,283.5,768.3c-5.4-73,14.5-146,63.5-192.9
			c38.1-36.5,97.4-55,154.1-59.2c46.2-3.4,105.2,5.6,143.5,27.8C713.9,583.9,749,660.9,755.1,744.3z"/>
		<path class="st4" d="M724.2,295.6C681,418.7,559.4,488.1,559.4,488.1s-51.7-130.1-8.5-253.2C585.5,136,698.8,26.1,698.8,26.1
			L727,9.9C727,9.9,767.3,172.6,724.2,295.6z"/>
		<g>
			<polygon class="st5" points="573.5,453.3 658.9,404.4 574.5,455.2 			"/>
			<polygon class="st5" points="584.7,420.5 693.9,359.8 585.8,422.3 			"/>
			<polygon class="st5" points="596,387.6 709.8,324.5 597,389.5 			"/>
			<polygon class="st5" points="607.2,354.7 723.3,288 608.2,356.6 			"/>
			<polygon class="st5" points="618.4,321.9 734.2,253 619.5,323.7 			"/>
			<polygon class="st5" points="629.7,289 734.6,229.7 630.7,290.9 			"/>
			<polygon class="st5" points="640.9,256.2 734.6,206.4 641.9,258 			"/>
			<polygon class="st5" points="652.1,223.3 743.4,174.2 653.1,225.2 			"/>
			<polygon class="st5" points="663.3,190.5 744.1,149.8 664.4,192.3 			"/>
			<polygon class="st5" points="674.6,157.6 739.2,122.6 675.6,159.5 			"/>
			<polygon class="st5" points="685.8,124.8 738.1,97.1 686.8,126.6 			"/>
			<polygon class="st5" points="697,91.9 726.6,76.3 698,93.7 			"/>
			<polygon class="st5" points="708.2,59 732.8,46.5 709.3,60.9 			"/>
		</g>
		
			<radialGradient id="SVGID_3_" cx="542.83" cy="389.0767" r="39.66" gradientTransform="matrix(1 0 0 -0.96 -3.84 931.8088)" gradientUnits="userSpaceOnUse">
			<stop  offset="0" style="stop-color:#000000"/>
			<stop  offset="1" style="stop-color:#000000;stop-opacity:0"/>
		</radialGradient>
		<path class="st6" d="M567.5,529.3c11.1,4.1,18.5,10.8,19.1,19c1.1,14.7-20.3,28.2-47.8,30.2s-50.6-8.2-51.7-22.9
			c-0.5-6.7,3.7-13.1,10.9-18.3"/>
		<path class="st5" d="M552,539.7c1.8,0.1,3.6,0.5,5.3,1.2c1.9,0.8,3.5,2,4.8,3.6c0.7,0.9,1.2,2,1.6,3.1l0.2,0.9v0.1
			c0-0.1,0,0.2,0,0.2v0.1v0.2l0.1,0.3c0,0.3,0.1,0.7,0.1,1c0,0.4,0,0.6,0,1c-0.2,2.4-1.1,4.6-2.5,6.5c-2.5,3.3-5.8,5.9-9.5,7.5
			c-3.5,1.6-7.2,2.6-11,3c-0.9,0.1-2,0.2-2.8,0.2c-1,0-2,0-2.9,0c-1.9-0.1-3.8-0.3-5.7-0.7c-3.9-0.7-7.6-2.3-10.8-4.5
			c-1.8-1.3-3.3-2.9-4.4-4.7c-1.2-2-1.8-4.3-1.5-6.7c0.3-2.1,1.3-4.1,2.8-5.6c1.3-1.3,2.9-2.2,4.7-2.8c-1,1.4-1.7,2.8-2.3,4.4
			c-0.4,1.2-0.5,2.6-0.1,3.8c0.7,2.1,2.6,3.3,5,4.4c4.9,1.9,11,2.2,16.7,1.7c2.9-0.3,5.7-0.9,8.4-1.8c2.5-0.7,4.9-2,7-3.6
			c1.7-1.5,2.8-3,2.3-5.4c-0.4-1.4-1-2.6-2-3.7C554.4,541.9,553.3,540.7,552,539.7z"/>
		<path class="st7" d="M543.6,543l0.4,0.1c1.1,0.3,2.1,0.8,2.9,1.5c0.7,0.6,1.3,1.4,1.5,2.4c0.2,1.2,0,2.4-0.6,3.4
			c-0.7,1.1-1.5,1.9-2.6,2.6c-2.2,1.4-4.7,2.2-7.2,2.5c-0.7,0.1-1.3,0.1-1.9,0.1s-1.3,0-2-0.1c-1.3-0.1-2.5-0.4-3.7-0.8
			c-1.1-0.4-2.2-0.9-3.2-1.7c-0.9-0.7-1.6-1.6-2-2.7c-0.3-0.9-0.2-1.9,0.2-2.8c0.3-0.6,0.7-1.2,1.2-1.7c0.3-0.3,0.6-0.6,1-0.8
			l0.4-0.2c-0.4,0.4-0.8,0.8-1.1,1.3c-0.4,0.5-0.6,1.1-0.8,1.7c-0.2,0.7-0.1,1.5,0.2,2.1c0.7,1.4,2.5,2.5,4.6,3
			c1.1,0.3,2.2,0.5,3.3,0.5c0.6,0,1.1,0,1.7,0s1.2-0.1,1.8-0.1c2.3-0.2,4.5-0.9,6.5-1.9c0.9-0.5,1.6-1.1,2.3-1.9
			c0.5-0.7,0.8-1.5,0.7-2.3c-0.3-1.4-1.1-2.6-2.2-3.3C544.5,543.6,544,543.3,543.6,543z"/>
		<path class="st5" d="M542.2,496.5c2.5,1,4.2,2.5,4.3,4.5c0.3,3.4-4.5,6.6-10.7,7s-11.3-2-11.6-5.4c-0.1-1.6,0.8-3,2.4-4.3"/>
		<path class="st8" d="M545.3,508.1c2.5,1,4.2,2.5,4.3,4.5c0.3,3.4-4.5,6.6-10.7,7s-11.3-2-11.6-5.4c-0.1-1.6,0.8-3.1,2.4-4.3"/>
		<polygon class="st9" points="520.1,554.1 525.2,569.9 541.2,555.6 569.3,559.4 553.3,547.1 568.6,532.8 536,541 514.3,528.2 
			521.4,543.9 490.1,552.7 		"/>
		<path class="st5" d="M540,488.7c-0.2-2.5-4.7-4.2-10-3.6s-9.3,3-9.1,5.5c0,0,8,11.1,8,28.5c0,10.1-0.8,20.2-2.5,30.2
			c0.2,2.5,4.7,4.2,10,3.7s9.3-3,9.1-5.5c0,0,2.5-17.7,2.5-30.2C548,504.6,540,488.7,540,488.7z"/>
		<polygon class="st5" points="727,9.9 546.2,537.7 536.1,534.2 		"/>
		<g>
			<path class="st4" d="M515.5,501.1c0,0-3.5-1-9.7-3.2c-26.3-9.3-100.6-39.5-154.2-101.8c-7.6-8.9-14.7-18.2-21.1-28
				c-37.4-57.5-56.1-147.8-63.5-192.7c-2.8-16.8-4-27.3-4-27.3l4-29c0,0,138,60.6,201.9,158.9S515.5,501.1,515.5,501.1z"/>
			<polygon class="st5" points="267.1,119.2 544.8,536.5 536,542.3 			"/>
		</g>
		<path class="st10" d="M535,485.5c1.5-0.1,2.8,0.9,3.1,2.3c0.2,1.9-3.1,3.9-7.5,4.5s-8.1-0.6-8.3-2.5c-0.1-0.9,0.5-1.8,1.7-2.5
			C527.5,486,531.2,485.4,535,485.5z"/>
		<g>
			<polygon class="st5" points="565.3,462.6 535.3,379.7 563.4,463.4 			"/>
			<polygon class="st5" points="576.9,429.8 534.8,321.6 574.9,430.6 			"/>
			<polygon class="st5" points="588.5,397.1 538.3,277 586.5,397.9 			"/>
			<polygon class="st5" points="600,364.4 550.3,240.1 598.1,365.2 			"/>
			<polygon class="st5" points="611.6,331.6 563.5,205.8 609.6,332.4 			"/>
			<polygon class="st5" points="623.2,298.9 577.7,187.3 621.2,299.7 			"/>
			<polygon class="st5" points="634.7,266.2 592.1,169 632.8,267 			"/>
			<polygon class="st5" points="646.3,233.4 605.2,138.2 644.3,234.2 			"/>
			<polygon class="st5" points="657.9,200.7 619.7,118.7 655.9,201.5 			"/>
			<polygon class="st5" points="669.4,167.9 640.5,100.4 667.5,168.7 			"/>
			<polygon class="st5" points="681,135.2 657.1,81.1 679,136 			"/>
			<polygon class="st5" points="692.6,102.5 679,71.9 690.6,103.3 			"/>
			<polygon class="st5" points="704.2,69.7 692.7,44.7 702.2,70.5 			"/>
		</g>
		<g>
			<g>
				<polygon class="st5" points="500.2,482.6 414.9,452.1 499.7,484.5 				"/>
				<polygon class="st5" points="482.6,454.9 374.6,419.2 482,456.8 				"/>
				<polygon class="st5" points="464.9,427.2 350.2,391.7 464.4,429.1 				"/>
				<polygon class="st5" points="447.3,399.5 327.9,364.6 446.8,401.4 				"/>
				<polygon class="st5" points="429.7,371.8 312.5,334.4 429.1,373.8 				"/>
				<polygon class="st5" points="412,344.2 303.3,313.3 411.5,346.1 				"/>
				<polygon class="st5" points="394.4,316.5 297.3,291.6 393.9,318.4 				"/>
				<polygon class="st5" points="376.8,288.8 290.5,264 376.2,290.7 				"/>
				<polygon class="st5" points="359.1,261.1 284.4,241.7 358.6,263 				"/>
				<polygon class="st5" points="341.5,233.4 274.4,215.6 341,235.4 				"/>
				<polygon class="st5" points="323.9,205.7 269.7,192 323.4,207.7 				"/>
				<polygon class="st5" points="306.3,178.1 275.6,170.4 305.7,180 				"/>
				<polygon class="st5" points="287,150 264.2,144 288.4,152.2 				"/>
			</g>
			<g>
				<polygon class="st5" points="509.8,489.2 513.6,412.9 511.8,489.5 				"/>
				<polygon class="st5" points="491.9,461.7 505.6,364.1 493.9,462.1 				"/>
				<polygon class="st5" points="474,434.2 491.8,325.9 475.9,434.6 				"/>
				<polygon class="st5" points="456,406.8 473.8,288.2 458,407.1 				"/>
				<polygon class="st5" points="438.1,379.3 456.8,263.3 440.1,379.6 				"/>
				<polygon class="st5" points="420.2,351.8 437.1,239.1 422.2,352.1 				"/>
				<polygon class="st5" points="402.3,324.3 419.8,225.5 404.3,324.6 				"/>
				<polygon class="st5" points="384.4,296.8 399.5,204.5 386.1,299.2 				"/>
				<polygon class="st5" points="366.4,269.3 382,190.7 368.1,271.8 				"/>
				<polygon class="st5" points="348.5,241.8 360.1,173.3 350.1,245.2 				"/>
				<polygon class="st5" points="330.4,215.1 340.5,159.2 332.1,217.4 				"/>
				<polygon class="st5" points="312.4,188.1 318.3,155.7 314.3,191 				"/>
				<polygon class="st5" points="294.5,161.9 299.3,137.3 296.2,163.7 				"/>
			</g>
		</g>
		<linearGradient id="SVGID_4_" gradientUnits="userSpaceOnUse" x1="240.7395" y1="455.0195" x2="363.711" y2="332.0479">
			<stop  offset="0" style="stop-color:#FFFFFF"/>
			<stop  offset="1" style="stop-color:#FFFFFF;stop-opacity:0"/>
		</linearGradient>
		<path class="st11" d="M505.7,497.9c-26.3-9.3-100.6-39.5-154.2-101.8c-7.6-8.9-14.7-18.2-21.1-28
			c-37.4-57.5-56.1-147.8-63.5-192.7c-0.7-5.6-1.3-11-1.7-16.1c-2.2-24.3,4.1-28.3,1.8-40.2l240.4,369.5
			C507.6,491.5,510.3,499,505.7,497.9z"/>
		<linearGradient id="SVGID_5_" gradientUnits="userSpaceOnUse" x1="544.4439" y1="217.3622" x2="694.9557" y2="265.6086">
			<stop  offset="0" style="stop-color:#FFFFFF"/>
			<stop  offset="1" style="stop-color:#FFFFFF;stop-opacity:0"/>
		</linearGradient>
		<path class="st12" d="M557.8,483.9c1,2.8,1.6,4.3,1.6,4.3S681,418.7,724.2,295.6C759.8,194.2,735.6,51.9,727,9.9L557.8,483.9z"/>
		<path d="M753.5,750.4l-0.3-1.5c7.3-1.6,11.9-9.8,12.1-16.3c0.1-2.3-0.4-4.6-1.6-6.6c-0.4,0.9-0.8,1.8-1.2,2.6
			c-2.9,5.4-6.6,8.2-10.8,7.9c-6.3-0.3-8.4-3.2-9.2-4.9c-1.1-2.6-0.4-5.8,1.8-8.4c3.1-3.6,8.2-4.8,13.5-3.4c2,0.5,3.9,1.6,5.5,3.1
			c1.5-4.6,2.2-9.5,2.1-14.3c-0.7,0.9-1.7,1.5-2.8,1.7c-4.7,1.3-9.8-0.1-13.2-3.6c-2.5-2.5-3.5-5.5-2.7-8.1c0.7-2.1,2.3-3.7,4.3-4.5
			c-2-1.3-4.1-2.6-5.8-3.6l0.8-1.3c0.8,0.4,3.5,2,6.8,4.2c0.9-0.3,1.8-0.5,2.7-0.7c3.1-0.7,6.3,0.5,8.1,3.1c4.6,6.2,4.2,19,0.8,28.4
			c1.7,2.4,2.6,5.4,2.4,8.3C766.5,739.9,761.5,748.6,753.5,750.4z M753.5,720.8c-3.1-0.1-6,1.2-8.1,3.5c-1.8,2.1-2.5,4.7-1.6,6.8
			c1,2.4,3.8,3.8,7.8,4c4.5,0.2,7.6-3.8,9.4-7.1c0.6-1.1,1.1-2.2,1.5-3.4c-1.4-1.6-3.3-2.7-5.3-3.2C756,721,754.7,720.8,753.5,720.8
			L753.5,720.8z M752.5,695.2c-2.3,0.9-3.8,2.3-4.3,4c-0.6,2,0.3,4.5,2.3,6.5c3,3.1,7.5,4.3,11.7,3.2c1.4-0.4,2.1-1,2.2-1.8
			C764.6,704.4,758.6,699.4,752.5,695.2L752.5,695.2z M754.3,694.5c4.2,2.9,8.8,6.6,10.7,9.7c-0.3-2.7-1.2-5.2-2.7-7.5
			c-1.5-2.2-4.1-3.2-6.6-2.5C755.1,694.3,754.7,694.4,754.3,694.5L754.3,694.5z"/>
		<g>
			<circle class="st13" cx="629.8" cy="719.7" r="9.9"/>
			<circle class="st14" cx="629.8" cy="716.8" r="9.9"/>
		</g>
		<g>
			<circle class="st13" cx="403.4" cy="719.7" r="9.9"/>
			<circle class="st14" cx="403.4" cy="716.8" r="9.9"/>
		</g>
		<rect x="428.5" y="863.3" class="st13" width="169.8" height="4.3"/>
		<rect x="608.3" y="679.2" class="st14" width="57.3" height="1.5"/>
		<rect x="375.5" y="679.2" class="st14" width="57.3" height="1.5"/>
		<rect x="428.5" y="861.2" class="st14" width="169.8" height="4.3"/>
		<path class="st14" d="M608.4,777.5h57.9c28.8-0.1,52-23.4,52.1-52.1l0,0c-0.1-28.8-23.4-52-52.1-52.1h-57.9
			c-28.7,0-68,1.5-68,26.1S551.9,777.5,608.4,777.5z"/>
		
			<linearGradient id="SVGID_6_" gradientUnits="userSpaceOnUse" x1="540.37" y1="297.87" x2="718.4" y2="297.87" gradientTransform="matrix(1 0 0 -1 0 1023.28)">
			<stop  offset="0" style="stop-color:#2B53A3"/>
			<stop  offset="0.51" style="stop-color:#964C9C"/>
			<stop  offset="1" style="stop-color:#2B53A3"/>
		</linearGradient>
		<path class="st15" d="M608.4,777.5h57.9c28.8-0.1,52-23.4,52.1-52.1l0,0c-0.1-28.8-23.4-52-52.1-52.1h-57.9
			c-28.7,0-68,1.5-68,26.1S551.9,777.5,608.4,777.5z"/>
		<path class="st14" d="M422.5,777.5h-57.9c-28.8-0.1-52-23.4-52.1-52.1l0,0c0.1-28.8,23.4-52,52.1-52.1h57.9c28.7,0,68,1.5,68,26.1
			S479,777.5,422.5,777.5z"/>
		
			<linearGradient id="SVGID_7_" gradientUnits="userSpaceOnUse" x1="312.5" y1="297.87" x2="490.53" y2="297.87" gradientTransform="matrix(1 0 0 -1 0 1023.28)">
			<stop  offset="0" style="stop-color:#2B53A3"/>
			<stop  offset="0.51" style="stop-color:#964C9C"/>
			<stop  offset="1" style="stop-color:#2B53A3"/>
		</linearGradient>
		<path class="st16" d="M422.5,777.5h-57.9c-28.8-0.1-52-23.4-52.1-52.1l0,0c0.1-28.8,23.4-52,52.1-52.1h57.9c28.7,0,68,1.5,68,26.1
			S479,777.5,422.5,777.5z"/>
		<path class="st17" d="M421.2,785.3h-57.7c-28.6,0-52-25.7-52-57.1l0,0c0-31.4,23.4-57.1,52-57.1h57.7c28.6,0,67.8,1.6,67.8,28.5
			S477.5,785.3,421.2,785.3z"/>
		<path class="st17" d="M429.1,786.1l-57.5,4.4c-28.5,2.2-53.8-21.6-56.2-52.9l0,0c-2.4-31.3,18.9-58.7,47.4-60.9l57.5-4.4
			c28.5-2.2,67.7-3.6,69.8,23.3S485.2,781.7,429.1,786.1z"/>
		<path class="st17" d="M611.7,785.3h57.7c28.6,0,52-25.7,52-57.1l0,0c0-31.4-23.4-57.1-52-57.1h-57.7c-28.6,0-67.8,1.6-67.8,28.5
			S555.4,785.3,611.7,785.3z"/>
		<path class="st17" d="M603.8,786.1l57.5,4.4c28.5,2.2,53.8-21.6,56.2-52.9l0,0c2.4-31.3-18.9-58.7-47.4-60.9l-57.5-4.4
			c-28.5-2.2-67.7-3.6-69.8,23.3S547.7,781.7,603.8,786.1z"/>
		<path class="st18" d="M666.3,671.1h-57.9c-24.3,0-69.2,0-70.2,27.4h-45.5c-0.9-27.3-45.9-27.4-70.1-27.4h-57.9
			c-30,0-54.3,24.3-54.2,54.3c0,29.9,24.3,54.2,54.2,54.2h57.9c53.3,0,69-46.8,70.1-76.9h45.6c1.1,30.1,16.8,76.9,70.1,76.9h57.9
			c30,0,54.3-24.3,54.3-54.2C720.6,695.5,696.3,671.2,666.3,671.1C666.3,671.1,666.3,671.1,666.3,671.1L666.3,671.1z M422.5,775.4
			h-57.9c-27.6-1-49.2-24.1-48.2-51.7c0.9-26.3,22-47.3,48.2-48.2h57.9c32.6,0,65.9,2.8,65.9,23.9
			C488.4,727.6,474.5,775.4,422.5,775.4z M666.3,775.4h-57.9c-52,0-65.9-47.8-65.9-76c0-21.1,33.3-23.9,65.9-23.9h57.9
			c27.6,1,49.2,24.1,48.2,51.7C713.6,753.4,692.5,774.5,666.3,775.4L666.3,775.4z"/>
		
			<linearGradient id="SVGID_8_" gradientUnits="userSpaceOnUse" x1="515.4797" y1="363.47" x2="515.4797" y2="346.74" gradientTransform="matrix(1 0 0 -1 0 1023.28)">
			<stop  offset="0" style="stop-color:#FFFFFF"/>
			<stop  offset="1" style="stop-color:#000000"/>
		</linearGradient>
		<path class="st19" d="M666.3,671.1h-57.9c-24.3,0-69.2,0-70.2,27.4h-45.5c-0.9-27.3-45.9-27.4-70.1-27.4h-57.9
			c-30,0-54.3,24.3-54.2,54.3c0,29.9,24.3,54.2,54.2,54.2h57.9c53.3,0,69-46.8,70.1-76.9h45.6c1.1,30.1,16.8,76.9,70.1,76.9h57.9
			c30,0,54.3-24.3,54.3-54.2C720.6,695.5,696.3,671.2,666.3,671.1C666.3,671.1,666.3,671.1,666.3,671.1L666.3,671.1z M422.5,775.4
			h-57.9c-27.6-1-49.2-24.1-48.2-51.7c0.9-26.3,22-47.3,48.2-48.2h57.9c32.6,0,65.9,2.8,65.9,23.9
			C488.4,727.6,474.5,775.4,422.5,775.4z M666.3,775.4h-57.9c-52,0-65.9-47.8-65.9-76c0-21.1,33.3-23.9,65.9-23.9h57.9
			c27.6,1,49.2,24.1,48.2,51.7C713.6,753.4,692.5,774.5,666.3,775.4L666.3,775.4z"/>
		<path d="M320.4,657.7c-0.5,0.7-0.8,1.5-1,2.4c-0.5,1.6,0.4,3.3,2,3.8c0.1,0,0.2,0.1,0.3,0.1c0.4,0.1,0.8,0.2,1.2,0.2l1.3,0.2
			c3.4,0.3,6.9,0.5,10.3,0.8l20.7,1.3l41.4,2.6l41.4,2.8l20.7,1.5l20.7,1.6h-0.1c2.3-1.2,4.4-2.7,6.2-4.5c0.5-0.4,0.9-0.9,1.3-1.4
			c0.4-0.5,0.8-1,1.1-1.6c0.2-0.3,0.3-0.6,0.5-0.8c0.1-0.3,0.3-0.6,0.4-0.9c0.1-0.3,0.2-0.6,0.2-0.9l0.1-1v1c0,0.3-0.1,0.7-0.2,1
			c-0.1,0.3-0.2,0.6-0.3,0.9c-0.1,0.3-0.3,0.6-0.4,0.9c-0.3,0.6-0.7,1.1-1.1,1.6c-0.4,0.5-0.8,1-1.3,1.5c-1.9,1.8-3.9,3.5-6.2,4.8
			h-0.1h-0.1c-6.9-0.3-13.8-0.7-20.7-1.1s-13.8-0.7-20.7-1.2c-13.8-0.9-27.6-1.7-41.4-2.6s-27.6-1.9-41.3-3
			c-6.9-0.6-13.8-1.1-20.6-1.7c-3.4-0.3-6.9-0.7-10.3-1.1l-1.3-0.2c-0.4,0-0.9-0.1-1.3-0.3c-0.9-0.2-1.6-0.8-2.1-1.6
			c-0.4-0.8-0.5-1.7-0.2-2.6C319.6,659.2,319.9,658.4,320.4,657.7z"/>
		<path d="M709.9,657.7c0.5,0.7,0.8,1.5,1,2.4c0.2,0.9,0.2,1.8-0.2,2.6c-0.5,0.8-1.2,1.3-2.1,1.6c-0.4,0.2-0.8,0.3-1.3,0.3l-1.3,0.2
			c-3.4,0.4-6.9,0.8-10.3,1.1c-6.9,0.6-13.8,1.2-20.7,1.7c-13.8,1.2-27.6,2-41.3,3s-27.6,1.8-41.4,2.6c-6.9,0.5-13.8,0.8-20.7,1.2
			s-13.8,0.8-20.7,1.1h-0.1h-0.1c-2.3-1.3-4.3-2.9-6.2-4.8c-0.5-0.5-0.9-1-1.3-1.5c-0.4-0.5-0.8-1.1-1.1-1.6
			c-0.2-0.3-0.3-0.6-0.4-0.9c-0.1-0.3-0.3-0.6-0.3-0.9c-0.1-0.3-0.2-0.7-0.2-1v-1l0.1,1c0.1,0.3,0.1,0.6,0.2,0.9
			c0.1,0.3,0.2,0.6,0.4,0.9c0.1,0.3,0.3,0.6,0.5,0.8c0.3,0.5,0.7,1.1,1.1,1.6c0.4,0.5,0.8,1,1.3,1.4c1.9,1.8,4,3.3,6.2,4.5H551
			l20.7-1.6l20.7-1.5l41.3-2.8l41.3-2.6l20.7-1.3c3.5-0.2,6.9-0.5,10.3-0.8l1.3-0.2c0.4,0,0.8-0.1,1.2-0.2c1.6-0.3,2.7-1.9,2.4-3.5
			c0-0.1-0.1-0.2-0.1-0.3C710.7,659.2,710.3,658.4,709.9,657.7z"/>
	</g>
</g>
</svg>
