<?xml version="1.0" encoding="utf-8"?>
<!-- Generator: Adobe Illustrator 20.1.0, SVG Export Plug-In . SVG Version: 6.00 Build 0)  -->
<svg version="1.1" id="Calque_1" xmlns="http://www.w3.org/2000/svg" xmlns:xlink="http://www.w3.org/1999/xlink" x="0px" y="0px"
	 viewBox="0 0 1024 1024" style="enable-background:new 0 0 1024 1024;" xml:space="preserve">
<style type="text/css">
	.st0{opacity:0.2;fill:#6C8B8E;enable-background:new    ;}
	.st1{fill:#FF8112;}
	.st2{opacity:0.5;fill:url(#SVGID_1_);enable-background:new    ;}
	.st3{opacity:0.5;fill:url(#SVGID_2_);enable-background:new    ;}
	.st4{fill:#4B632F;}
	.st5{fill:#537022;}
	.st6{opacity:0.5;fill:url(#SVGID_3_);enable-background:new    ;}
	.st7{opacity:0.5;fill:url(#SVGID_4_);enable-background:new    ;}
	.st8{fill:#CC6100;}
	.st9{fill:#B8BF7B;}
	.st10{fill:#E1793B;}
	.st11{fill:url(#SVGID_5_);}
	.st12{fill:url(#SVGID_6_);}
	.st13{fill:#D1CD7D;}
	.st14{opacity:0.5;fill:url(#SVGID_7_);enable-background:new    ;}
	.st15{fill:#FFC697;}
	.st16{fill:#381A01;}
	.st17{fill:#72390E;}
	.st18{opacity:0.63;fill:url(#SVGID_8_);enable-background:new    ;}
	.st19{opacity:0.63;fill:url(#SVGID_9_);enable-background:new    ;}
	.st20{fill:#5B2700;}
	.st21{fill:#FFFFFF;}
</style>
<title>clem</title>
<g>
	<g id="Calque_1_1_">
		<g>
			<ellipse class="st0" cx="551.2" cy="992.8" rx="223.2" ry="24.8"/>
			<path class="st1" d="M807,717.1c10.6,144.4-99.9,258.3-244.2,268.9s-270-97.9-280.6-242.3c-6-81.2,16.1-162.5,70.7-214.7
				c42.5-40.6,108.4-61.2,171.6-65.9c51.5-3.8,117,6.3,159.7,30.9C761.2,538.5,800.2,624.2,807,717.1z"/>
			
				<linearGradient id="SVGID_1_" gradientUnits="userSpaceOnUse" x1="544.4658" y1="-38.39" x2="544.4658" y2="188.46" gradientTransform="matrix(1 0 0 -1 0 1023.28)">
				<stop  offset="0" style="stop-color:#4B005C"/>
				<stop  offset="1" style="stop-color:#4B005C;stop-opacity:0"/>
			</linearGradient>
			<path class="st2" d="M807,717.1c10.6,144.4-99.9,258.3-244.2,268.9s-270-97.9-280.6-242.3c-6-81.2,16.1-162.5,70.7-214.7
				c42.5-40.6,108.4-61.2,171.6-65.9c51.5-3.8,117,6.3,159.7,30.9C761.2,538.5,800.2,624.2,807,717.1z"/>
			
				<radialGradient id="SVGID_2_" cx="550.39" cy="334.9475" r="277.39" gradientTransform="matrix(1 0 0 -0.93 -0.59 1013.7404)" gradientUnits="userSpaceOnUse">
				<stop  offset="0" style="stop-color:#FFFFFF"/>
				<stop  offset="1" style="stop-color:#FFFFFF;stop-opacity:0"/>
			</radialGradient>
			<path class="st3" d="M807,717.1c10.6,144.4-99.9,258.3-244.2,268.9s-270-97.9-280.6-242.3c-6-81.2,16.1-162.5,70.7-214.7
				c42.5-40.6,108.4-61.2,171.6-65.9c51.5-3.8,117,6.3,159.7,30.9C761.2,538.5,800.2,624.2,807,717.1z"/>
			<path class="st4" d="M841.7,305.8c-86.1,116.9-238.2,151-238.2,151S591,301.4,677.1,184.6C746.3,90.7,902.7,10.7,902.7,10.7
				l35.3-8C938,2.7,927.8,189,841.7,305.8z"/>
			<g>
				<polygon class="st5" points="629.8,424.4 736.7,400.2 630.3,426.7 				"/>
				<polygon class="st5" points="652.5,393.1 788.5,364.2 653,395.4 				"/>
				<polygon class="st5" points="675.2,361.8 816.9,331.8 675.7,364.1 				"/>
				<polygon class="st5" points="697.9,330.5 843.1,297.4 698.4,332.8 				"/>
				<polygon class="st5" points="720.5,299.2 866.2,263.8 721,301.5 				"/>
				<polygon class="st5" points="743.2,267.9 874.2,239.1 743.7,270.2 				"/>
				<polygon class="st5" points="765.9,236.6 881.8,214.2 766.4,238.9 				"/>
				<polygon class="st5" points="788.6,205.3 901.8,182.9 789.1,207.7 				"/>
				<polygon class="st5" points="811.3,174.1 910.5,157.2 811.7,176.4 				"/>
				<polygon class="st5" points="833.9,142.8 914.1,126.6 834.4,145.1 				"/>
				<polygon class="st5" points="856.6,111.5 921.3,99.1 857.1,113.8 				"/>
				<polygon class="st5" points="879.3,80.2 915.8,73.3 879.8,82.5 				"/>
				<polygon class="st5" points="904.4,48.2 932.1,43.5 902.5,51.2 				"/>
			</g>
			
				<linearGradient id="SVGID_3_" gradientUnits="userSpaceOnUse" x1="72.9383" y1="1256.0579" x2="202.2883" y2="1187.5779" gradientTransform="matrix(0.956 0.2934 0.2934 -0.956 260.5133 1337.2731)">
				<stop  offset="0" style="stop-color:#FFFFFF"/>
				<stop  offset="1" style="stop-color:#FFFFFF;stop-opacity:0"/>
			</linearGradient>
			<path class="st6" d="M603.2,451.8c0.2,3.3,0.3,5,0.3,5s152.1-34.1,238.2-151c71-96.2,91.7-255.5,96.4-303L603.2,451.8z"/>
			
				<radialGradient id="SVGID_4_" cx="558.69" cy="594.3066" r="44.14" gradientTransform="matrix(1 0 0 -0.96 6.96 1079.2588)" gradientUnits="userSpaceOnUse">
				<stop  offset="0" style="stop-color:#000000"/>
				<stop  offset="1" style="stop-color:#000000;stop-opacity:0"/>
			</radialGradient>
			<path class="st7" d="M598.3,477.6c12.4,4.5,20.6,12.1,21.3,21.1c1.2,16.3-22.6,31.3-53.2,33.6s-56.4-9.2-57.6-25.5
				c-0.5-7.4,4.1-14.5,12.1-20.4"/>
			<path class="st5" d="M581,489.2c2,0.1,4,0.5,5.9,1.3c2.1,0.8,3.9,2.2,5.3,4c0.8,1,1.4,2.2,1.8,3.4l0.3,1v0.1c0-0.1,0,0.2,0,0.2
				v0.1v0.2l0.1,0.4c0,0.4,0.1,0.7,0.1,1.1c0,0.4,0,0.7,0,1.1c-0.2,2.6-1.2,5.1-2.7,7.3c-2.7,3.7-6.4,6.5-10.6,8.4
				c-3.9,1.8-8,2.9-12.3,3.3c-1,0.1-2.2,0.2-3.1,0.2c-1.1,0-2.2,0-3.2,0c-2.1-0.1-4.2-0.3-6.3-0.8c-4.3-0.8-8.5-2.5-12.1-5.1
				c-2-1.4-3.6-3.2-4.9-5.2c-1.4-2.2-2-4.8-1.7-7.4c0.3-2.4,1.4-4.6,3.2-6.2c1.5-1.4,3.3-2.5,5.2-3.1c-1.1,1.5-1.9,3.1-2.5,4.9
				c-0.5,1.4-0.5,2.9-0.1,4.3c0.8,2.4,2.9,3.7,5.6,4.9c5.5,2.2,12.2,2.5,18.6,1.8c3.2-0.3,6.3-1,9.3-2c2.8-0.8,5.4-2.2,7.7-4
				c1.9-1.7,3.1-3.3,2.5-6c-0.4-1.5-1.1-2.9-2.2-4.1C583.7,491.7,582.4,490.4,581,489.2z"/>
			<path class="st8" d="M571.7,493l0.5,0.1c1.2,0.3,2.3,0.9,3.3,1.7c0.8,0.7,1.4,1.6,1.7,2.6c0.3,1.3,0,2.6-0.7,3.8
				c-0.7,1.2-1.7,2.2-2.9,2.9c-2.4,1.5-5.2,2.5-8,2.8c-0.7,0.1-1.5,0.1-2.1,0.1s-1.5,0-2.2-0.1c-1.4-0.1-2.8-0.4-4.2-0.9
				c-1.3-0.4-2.5-1-3.5-1.9c-1-0.8-1.8-1.8-2.2-3c-0.3-1-0.3-2.1,0.2-3.1c0.3-0.7,0.8-1.3,1.3-1.9c0.3-0.3,0.7-0.6,1.1-0.9l0.4-0.3
				c-0.5,0.4-0.9,0.9-1.2,1.4c-0.4,0.6-0.7,1.2-0.9,1.8c-0.2,0.8-0.1,1.6,0.3,2.4c0.8,1.6,2.8,2.8,5.1,3.4c1.2,0.3,2.4,0.5,3.7,0.6
				c0.6,0,1.3,0,1.9,0s1.3-0.1,2-0.1c2.5-0.2,5-0.9,7.2-2.2c1-0.5,1.8-1.3,2.5-2.1c0.6-0.7,0.8-1.6,0.8-2.6
				c-0.3-1.5-1.2-2.8-2.5-3.7C572.7,493.6,572.2,493.3,571.7,493z"/>
			<path class="st5" d="M570.1,441.2c2.8,1.1,4.6,2.8,4.8,5c0.3,3.8-5,7.3-11.9,7.8s-12.6-2.2-12.9-6c-0.1-1.7,0.9-3.4,2.7-4.8"/>
			<path class="st9" d="M573.6,454.2c2.8,1.1,4.6,2.8,4.8,5c0.3,3.8-5,7.3-11.9,7.8s-12.6-2.2-12.9-6c-0.1-1.7,0.9-3.4,2.7-4.8"/>
			<polygon class="st10" points="545.5,505.3 551.2,522.9 569,507 600.2,511.2 582.5,497.6 599.5,481.6 563.3,490.7 539.1,476.5 
				546.9,494 512.1,503.7 			"/>
			<path class="st5" d="M567.7,432.5c-0.3-2.8-5.2-4.6-11.1-4.1s-10.4,3.3-10.1,6.1c0,0,8.9,12.3,8.9,31.7
				c0.1,11.3-0.9,22.5-2.8,33.6c0.3,2.8,5.2,4.6,11.1,4.1s10.4-3.3,10.1-6.1c0,0,2.8-19.7,2.8-33.6S567.7,432.5,567.7,432.5z"/>
			
				<linearGradient id="SVGID_5_" gradientUnits="userSpaceOnUse" x1="-3069.8025" y1="253.549" x2="-3086.6226" y2="291.279" gradientTransform="matrix(-1 0 0 -1 -2761.8301 1023.28)">
				<stop  offset="0" style="stop-color:#ED4D0F;stop-opacity:0"/>
				<stop  offset="1" style="stop-color:#ED4D0F;stop-opacity:0.96"/>
			</linearGradient>
			<circle class="st11" cx="317.7" cy="748" r="22.4"/>
			
				<linearGradient id="SVGID_6_" gradientUnits="userSpaceOnUse" x1="-3243.9521" y1="514.489" x2="-3260.7722" y2="552.219" gradientTransform="matrix(6.123234e-17 1 1 -6.123234e-17 214.55 3999.6699)">
				<stop  offset="0" style="stop-color:#ED4D0F;stop-opacity:0"/>
				<stop  offset="1" style="stop-color:#ED4D0F;stop-opacity:0.96"/>
			</linearGradient>
			<circle class="st12" cx="750.8" cy="746" r="22.4"/>
			<polygon class="st5" points="938,2.7 573.2,505.2 563.7,498.2 			"/>
			<g>
				<path class="st4" d="M365.6,276.1C477.7,343,521.5,476.1,521.5,476.1s-137.9,24.8-250-42.1C181.4,380.3,96.2,247.3,96.2,247.3
					L86,216.4C86,216.4,253.5,209.3,365.6,276.1z"/>
				<polygon class="st5" points="86,216.4 568.2,497 562.2,507.2 				"/>
			</g>
			<path class="st13" d="M562.1,428.9c1.6-0.1,3.1,1,3.5,2.6c0.3,2.1-3.5,4.4-8.3,5s-9-0.6-9.3-2.8c-0.1-1,0.6-2,1.8-2.8
				C553.7,429.5,557.9,428.9,562.1,428.9z"/>
			<g>
				<polygon class="st5" points="618.1,431.6 613.4,335.7 615.7,431.8 				"/>
				<polygon class="st5" points="641.1,400.5 631.6,271.6 638.7,400.7 				"/>
				<polygon class="st5" points="664.1,372.6 650,228.4 661.8,372.9 				"/>
				<polygon class="st5" points="687.1,338.4 674.8,189.9 684.8,338.6 				"/>
				<polygon class="st5" points="710.1,307.4 700,157.8 707.7,307.6 				"/>
				<polygon class="st5" points="733.1,276.3 721.1,142.7 730.7,276.5 				"/>
				<polygon class="st5" points="756.1,245.2 742.5,127.9 754,247.6 				"/>
				<polygon class="st5" points="779.1,214.2 766.4,99.5 776.9,216.9 				"/>
				<polygon class="st5" points="802.1,183.1 788.3,83.4 799.9,186.7 				"/>
				<polygon class="st5" points="825.1,152.1 816.4,70.7 822.9,154.9 				"/>
				<polygon class="st5" points="848,122.3 840.4,55.6 846.4,124.5 				"/>
				<polygon class="st5" points="871.3,92.1 866.8,44.7 869.1,94.9 				"/>
				<polygon class="st5" points="894.4,61.4 890.1,28.5 892.2,64.3 				"/>
			</g>
			<g>
				<g>
					<polygon class="st5" points="497.2,465.1 397,476.5 497.6,467.3 					"/>
					<polygon class="st5" points="466,446.1 340.6,463.4 466.4,448.3 					"/>
					<polygon class="st5" points="434.8,427.1 302.7,447.9 435.2,429.3 					"/>
					<polygon class="st5" points="403.6,408.1 267.2,431.8 404,410.3 					"/>
					<polygon class="st5" points="372.4,389.1 237,409.1 372.8,391.2 					"/>
					<polygon class="st5" points="341.2,370.1 216.4,392.7 341.6,372.2 					"/>
					<polygon class="st5" points="310,351 200.7,373.9 310.4,353.2 					"/>
					<polygon class="st5" points="278.8,332 180.4,349.6 279.2,334.2 					"/>
					<polygon class="st5" points="247.6,313 163.4,330.4 248,315.2 					"/>
					<polygon class="st5" points="216.4,294 140.6,309.2 216.8,296.2 					"/>
					<polygon class="st5" points="185.2,275 124.3,287.9 185.6,277.2 					"/>
					<polygon class="st5" points="154,256 119.6,263.4 154.4,258.2 					"/>
					<polygon class="st5" points="121.6,237.1 94.6,243.4 123.3,239.2 					"/>
				</g>
				<g>
					<polygon class="st5" points="510,467 476.3,388.9 512.2,466.4 					"/>
					<polygon class="st5" points="478.6,448.4 444.4,344 480.8,447.7 					"/>
					<polygon class="st5" points="447.3,429.7 411.9,312.7 449.4,429 					"/>
					<polygon class="st5" points="415.9,411 375.4,283.9 418,410.3 					"/>
					<polygon class="st5" points="384.5,392.3 346.3,267.3 386.6,391.7 					"/>
					<polygon class="st5" points="353.1,373.7 314.7,252.8 355.2,373 					"/>
					<polygon class="st5" points="321.7,355 290.7,247.7 324.4,355.9 					"/>
					<polygon class="st5" points="290.3,336.3 261.2,235.6 293.1,337.9 					"/>
					<polygon class="st5" points="258.9,317.6 239.1,230.5 261.8,320.2 					"/>
					<polygon class="st5" points="227.5,298.9 205.4,224.8 230.8,301.3 					"/>
					<polygon class="st5" points="196.4,281.4 179,220.4 199.4,282.5 					"/>
					<polygon class="st5" points="165.5,263.3 155.1,227.8 168.7,265.1 					"/>
					<polygon class="st5" points="133.3,245.5 125.8,217.5 135.9,246.3 					"/>
				</g>
			</g>
			<linearGradient id="SVGID_7_" gradientUnits="userSpaceOnUse" x1="378.7967" y1="236.5123" x2="257.7967" y2="397.5123">
				<stop  offset="0" style="stop-color:#FFFFFF"/>
				<stop  offset="1" style="stop-color:#FFFFFF;stop-opacity:0"/>
			</linearGradient>
			<path class="st14" d="M507.4,467.6c1.6,2.9,2.4,4.4,2.4,4.4s-87.9,34.6-219.2-27.4C210.1,406.5,139.8,316.3,104,257.4
				c-14.1-23.2-9.8-30.3-18-41L507.4,467.6z"/>
			<path class="st15" d="M671.2,839.4L671.2,839.4c0.2,19.2-7.6,39.1-21.4,52.4c-5.8,5.6-12.7,10-20.2,12.8
				c-31.3,11.3-56.8-15.1-88.2-13.9c-30.4,1.2-56,26.2-86.5,12.2c-6.7-3.1-12.7-7.4-17.8-12.7c-12.8-13.3-19.7-32.3-19.7-50.7
				c0-27.2,15.2-55.6,41.7-65.2c30.2-10.9,57.1,14.6,87.8,13.9c31.2-0.7,55.3-26.8,86.9-12.2C657.6,786.9,671.5,813.7,671.2,839.4z"
				/>
			<path class="st16" d="M671.2,834.7L671.2,834.7c0.2,19.2-7.6,39.1-21.4,52.4c-5.8,5.6-12.7,10-20.2,12.8c-2,0.7-4.1,1.3-6.2,1.8
				c-27.3,5.9-50.6-14.8-78.2-15.7c-1.1,0-2.3,0-3.5,0h-0.3c-28.4,1.2-52.5,22.9-80.4,14.6c-2.1-0.6-4.2-1.4-6.2-2.3
				c-6.7-3.1-12.7-7.4-17.8-12.8c-12.8-13.3-19.7-32.3-19.7-50.8c0-27.2,15.2-55.6,41.7-65.2c30.2-10.9,57.1,14.6,87.8,13.9
				c31.2-0.7,55.3-26.8,86.9-12.2C657.6,782.2,671.5,809,671.2,834.7z"/>
			<path class="st17" d="M541.7,886h-0.3c-28.4,1.1-52.5,22.9-80.4,14.5C465.3,864.4,530.4,882.6,541.7,886z"/>
			<path class="st17" d="M623.4,901.6c-27.3,5.9-50.6-14.8-78.2-15.7C556.7,882.8,619.5,866.7,623.4,901.6z"/>
			
				<radialGradient id="SVGID_8_" cx="549.27" cy="200.89" r="89.86" gradientTransform="matrix(1 0 0 -1 0 1023.28)" gradientUnits="userSpaceOnUse">
				<stop  offset="0" style="stop-color:#FFFFFF"/>
				<stop  offset="1" style="stop-color:#FFFFFF;stop-opacity:0"/>
			</radialGradient>
			<path class="st18" d="M541.7,886h-0.3c-28.4,1.1-52.5,22.9-80.4,14.5C465.3,864.4,530.4,882.6,541.7,886z"/>
			
				<radialGradient id="SVGID_9_" cx="549.27" cy="200.9" r="89.86" gradientTransform="matrix(1 0 0 -1 0 1023.28)" gradientUnits="userSpaceOnUse">
				<stop  offset="0" style="stop-color:#FFFFFF"/>
				<stop  offset="1" style="stop-color:#FFFFFF;stop-opacity:0"/>
			</radialGradient>
			<path class="st19" d="M623.4,901.6c-27.3,5.9-50.6-14.8-78.2-15.7C556.7,882.8,619.5,866.7,623.4,901.6z"/>
			<path class="st15" d="M480.2,671.7H374.7V685h0.4c1.9,7.1,12.5,12.6,25.2,12.6s23.3-5.5,25.2-12.6h54.7L480.2,671.7z"/>
			<path class="st15" d="M730.5,674H625v13.4h0.3c1.9,7.1,12.5,12.6,25.2,12.6s23.3-5.5,25.2-12.6h54.7L730.5,674z"/>
			<path class="st20" d="M480.2,669.3H374.7v13.4h0.4c1.9,7.1,12.5,12.6,25.2,12.6s23.3-5.5,25.2-12.6h54.7L480.2,669.3z"/>
			<path class="st20" d="M729.7,671.7H624.2V685h0.3c1.9,7.1,12.5,12.6,25.2,12.6s23.3-5.4,25.2-12.6h54.7V671.7z"/>
			<circle class="st21" cx="383.4" cy="680.3" r="4.7"/>
			<g>
				<path class="st20" d="M729.7,669.3H624.2v13.4h0.3c1.9,7.1,12.5,12.6,25.2,12.6s23.3-5.5,25.2-12.6h54.7V669.3z"/>
				<circle class="st21" cx="632.9" cy="680.3" r="4.7"/>
			</g>
			<path class="st16" d="M635.1,623.2l1-0.2c0.7-0.1,1.7-0.3,2.9-0.5s2.8-0.4,4.5-0.6s3.7-0.4,5.9-0.5s4.5-0.2,7-0.1
				s5.1,0.2,7.8,0.4s5.5,0.6,8.3,1.1c2.8,0.5,5.6,1.2,8.4,2l4.2,1.2c1.4,0.5,2.7,1,4,1.5s2.7,1,3.9,1.6l3.7,1.9
				c1.2,0.7,2.4,1.2,3.5,1.9l3.2,2.1l3,2l2.6,2.2c1.6,1.4,3.2,2.6,4.5,3.8l3.1,3.3l2.7,2.9l-2.8-2.8l-3.2-3.2
				c-1.3-1.2-2.9-2.3-4.5-3.7l-2.6-2.1l-3-1.9l-3.2-2c-1.1-0.7-2.3-1.2-3.5-1.8l-3.7-1.8c-1.3-0.6-2.6-1-3.9-1.5s-2.6-1-4-1.4
				l-4.1-1.1c-2.7-0.7-5.5-1.3-8.3-1.7c-2.8-0.4-5.5-0.7-8.2-0.9s-5.2-0.3-7.7-0.2s-4.8,0.1-6.9,0.3s-4.1,0.4-5.8,0.6
				s-3.2,0.5-4.4,0.7s-2.2,0.4-2.8,0.6l-1,0.2L635.1,623.2z"/>
			<path class="st16" d="M451,631.8l-1-0.3c-0.6-0.2-1.5-0.4-2.8-0.7s-2.7-0.6-4.4-0.9s-3.6-0.7-5.7-0.9s-4.4-0.5-6.9-0.7
				s-5-0.2-7.7-0.2s-5.4,0.2-8.2,0.4c-2.8,0.3-5.6,0.7-8.4,1.3l-4.2,0.9c-1.4,0.3-2.7,0.8-4.1,1.2s-2.7,0.8-4,1.3l-3.8,1.6
				c-1.2,0.5-2.5,1-3.6,1.6l-3.3,1.8l-3.1,1.7l-2.7,1.9c-1.7,1.3-3.4,2.3-4.7,3.5l-3.3,3l-2.9,2.7l2.9-2.7l3.3-3.1
				c1.3-1.2,3-2.3,4.6-3.6l2.7-2l3.1-1.8l3.3-1.9c1.1-0.7,2.4-1.1,3.6-1.7l3.8-1.7c1.3-0.5,2.6-0.9,4-1.4s2.7-1,4.1-1.3l4.2-1
				c2.8-0.6,5.6-1.1,8.5-1.5c2.8-0.3,5.6-0.5,8.3-0.7s5.3-0.1,7.8,0s4.8,0.3,7,0.5s4.1,0.5,5.9,0.8s3.3,0.5,4.5,0.8s2.2,0.5,2.9,0.7
				l1,0.3L451,631.8z"/>
		</g>
	</g>
</g>
</svg>
