<svg xmlns="http://www.w3.org/2000/svg" xmlns:xlink="http://www.w3.org/1999/xlink" viewBox="0 0 1024 1024">
  <defs>
    <style>
      .cls-1 {
        fill: none;
      }

      .cls-2 {
        isolation: isolate;
      }

      .cls-3 {
        fill: #ff8112;
      }

      .cls-16, .cls-17, .cls-22, .cls-4, .cls-5, .cls-7 {
        opacity: 0.5;
      }

      .cls-4, .cls-7 {
        mix-blend-mode: darken;
      }

      .cls-4 {
        fill: url(#linear-gradient);
      }

      .cls-5 {
        mix-blend-mode: lighten;
        fill: url(#radial-gradient);
      }

      .cls-6 {
        fill: #6c8b8e;
        opacity: 0.2;
        mix-blend-mode: soft-light;
      }

      .cls-7 {
        fill: url(#radial-gradient-2);
      }

      .cls-8 {
        fill: #537022;
      }

      .cls-9 {
        fill: #cc6100;
      }

      .cls-10 {
        fill: #b8bf7b;
      }

      .cls-11 {
        fill: #e1793b;
      }

      .cls-12 {
        fill: url(#linear-gradient-2);
      }

      .cls-13 {
        fill: url(#linear-gradient-3);
      }

      .cls-14 {
        fill: #d1cd7d;
      }

      .cls-15 {
        fill: #4b632f;
      }

      .cls-16, .cls-17, .cls-22 {
        mix-blend-mode: overlay;
      }

      .cls-16 {
        fill: url(#linear-gradient-4);
      }

      .cls-17 {
        fill: url(#linear-gradient-5);
      }

      .cls-18 {
        fill: #381a01;
      }

      .cls-19 {
        fill: #99c0ff;
      }

      .cls-20 {
        clip-path: url(#clip-path);
      }

      .cls-21 {
        fill: #86b1ef;
      }

      .cls-23 {
        fill: url(#linear-gradient-6);
      }

      .cls-24 {
        fill: #5b2700;
      }

      .cls-25 {
        fill: url(#linear-gradient-7);
      }

      .cls-26 {
        fill: url(#linear-gradient-8);
      }

      .cls-27 {
        fill: #ffc697;
      }

      .cls-28 {
        fill: #fff;
      }

      .cls-29 {
        clip-path: url(#clip-path-2);
      }

      .cls-30 {
        fill: url(#linear-gradient-9);
      }
    </style>
    <linearGradient id="linear-gradient" x1="457.12" y1="1016.95" x2="457.12" y2="770.44" gradientUnits="userSpaceOnUse">
      <stop offset="0" stop-color="#4b005c"/>
      <stop offset="1" stop-color="#4b005c" stop-opacity="0"/>
    </linearGradient>
    <radialGradient id="radial-gradient" cx="463.53" cy="628.76" r="301.43" gradientTransform="matrix(1, 0, 0, 0.93, -0.53, 42.02)" gradientUnits="userSpaceOnUse">
      <stop offset="0" stop-color="#fff"/>
      <stop offset="1" stop-color="#fff" stop-opacity="0"/>
    </radialGradient>
    <radialGradient id="radial-gradient-2" cx="472.2" cy="332.51" r="47.96" gradientTransform="matrix(1, 0, 0, 0.96, 7.43, 95.87)" gradientUnits="userSpaceOnUse">
      <stop offset="0"/>
      <stop offset="1" stop-opacity="0"/>
    </radialGradient>
    <linearGradient id="linear-gradient-2" x1="1552.07" y1="699.7" x2="1533.79" y2="658.7" gradientTransform="matrix(-1, 0, 0, 1, 1752.17, 0)" gradientUnits="userSpaceOnUse">
      <stop offset="0" stop-color="#ed4d0f" stop-opacity="0"/>
      <stop offset="1" stop-color="#ed4d0f" stop-opacity="0.96"/>
    </linearGradient>
    <linearGradient id="linear-gradient-3" x1="-844.18" y1="2623.17" x2="-862.47" y2="2582.17" gradientTransform="translate(3280.83 1528.67) rotate(90)" xlink:href="#linear-gradient-2"/>
    <linearGradient id="linear-gradient-4" x1="-519.34" y1="953.2" x2="-383.07" y2="1025.34" gradientTransform="matrix(0.75, 0.66, -0.66, 0.75, 1709.41, -237.37)" xlink:href="#radial-gradient"/>
    <linearGradient id="linear-gradient-5" x1="1594.08" y1="234.99" x2="1658.08" y2="176.27" gradientTransform="translate(-1094.17 1225.59) rotate(-42.74)" xlink:href="#radial-gradient"/>
    <clipPath id="clip-path">
      <rect class="cls-1" x="269.03" y="623.03" width="114.6" height="382.54" transform="translate(-2.67 1.08) rotate(-0.19)"/>
    </clipPath>
    <linearGradient id="linear-gradient-6" x1="331.9" y1="629.35" x2="331.9" y2="989.06" gradientTransform="translate(-5.59 1.48)" gradientUnits="userSpaceOnUse">
      <stop offset="0" stop-color="#fff"/>
      <stop offset="1"/>
    </linearGradient>
    <linearGradient id="linear-gradient-7" x1="326.33" y1="589.76" x2="326.33" y2="642.8" gradientUnits="userSpaceOnUse">
      <stop offset="0" stop-color="#8c265b" stop-opacity="0"/>
      <stop offset="1" stop-color="#890255"/>
    </linearGradient>
    <linearGradient id="linear-gradient-8" x1="596.62" y1="589.76" x2="596.62" y2="642.8" xlink:href="#linear-gradient-7"/>
    <clipPath id="clip-path-2">
      <rect class="cls-1" x="541.03" y="623.03" width="114.6" height="382.54" transform="translate(-2.67 1.97) rotate(-0.19)"/>
    </clipPath>
    <linearGradient id="linear-gradient-9" x1="603.9" y1="630.24" x2="603.9" y2="989.96" gradientTransform="translate(-5.59 0.59)" xlink:href="#linear-gradient-6"/>
  </defs>
  <title>clem river</title>
  <g class="cls-2">
    <g id="Calque_1" data-name="Calque 1">
      <g>
        <path class="cls-3" d="M742.43,642.48c11.5,156.89-108.57,280.7-265.46,292.2s-293.4-106.36-304.9-263.24c-6.47-88.25,17.49-176.61,76.81-233.34C295,394,366.67,371.56,435.31,366.53c55.92-4.1,127.19,6.83,173.56,33.59C692.59,448.43,735,541.51,742.43,642.48Z"/>
        <path class="cls-4" d="M742.43,642.48c11.5,156.89-108.57,280.7-265.46,292.2s-293.4-106.36-304.9-263.24c-6.47-88.25,17.49-176.61,76.81-233.34C295,394,366.67,371.56,435.31,366.53c55.92-4.1,127.19,6.83,173.56,33.59C692.59,448.43,735,541.51,742.43,642.48Z"/>
        <path class="cls-5" d="M742.43,642.48c11.5,156.89-108.57,280.7-265.46,292.2s-293.4-106.36-304.9-263.24c-6.47-88.25,17.49-176.61,76.81-233.34C295,394,366.67,371.56,435.31,366.53c55.92-4.1,127.19,6.83,173.56,33.59C692.59,448.43,735,541.51,742.43,642.48Z"/>
        <ellipse class="cls-6" cx="464.45" cy="942.1" rx="242.49" ry="26.94"/>
        <path class="cls-7" d="M515.56,382.31c13.47,4.93,22.39,13.11,23.11,22.93,1.3,17.72-24.6,34.06-57.84,36.5s-61.25-9.95-62.55-27.67c-.59-8.05,4.43-15.81,13.2-22.11"/>
        <path class="cls-8" d="M496.81,394.89a18.17,18.17,0,0,1,6.38,1.4,13.78,13.78,0,0,1,5.8,4.36,12.14,12.14,0,0,1,1.9,3.71l.27,1.06v.1c0-.15,0,.24,0,.21l0,.1,0,.19.07.38a10.66,10.66,0,0,1,.07,1.2c0,.44,0,.76,0,1.15a15.83,15.83,0,0,1-3,7.87,28.64,28.64,0,0,1-11.54,9.08,43.67,43.67,0,0,1-13.33,3.61c-1.08.12-2.39.19-3.34.23-1.2,0-2.39.06-3.51,0a47.38,47.38,0,0,1-6.85-.81,33.39,33.39,0,0,1-13.11-5.51,20,20,0,0,1-5.34-5.68,12.72,12.72,0,0,1-1.88-8.06,11.13,11.13,0,0,1,3.44-6.78,14.58,14.58,0,0,1,5.69-3.35,21.24,21.24,0,0,0-2.72,5.31,7.51,7.51,0,0,0-.11,4.62c.86,2.55,3.15,4,6.09,5.27,5.94,2.35,13.3,2.71,20.25,2a48.49,48.49,0,0,0,10.16-2.11,26,26,0,0,0,8.41-4.31c2.1-1.85,3.36-3.58,2.76-6.48a11.49,11.49,0,0,0-2.36-4.48A32.67,32.67,0,0,0,496.81,394.89Z"/>
        <path class="cls-9" d="M486.63,399l.52.14a9.38,9.38,0,0,1,3.53,1.85,5.4,5.4,0,0,1,1.81,2.85,5.6,5.6,0,0,1-.73,4.08,10.15,10.15,0,0,1-3.13,3.15,19.66,19.66,0,0,1-8.73,3c-.79.09-1.6.11-2.31.13s-1.61,0-2.37-.1a19.14,19.14,0,0,1-4.47-.94,12.57,12.57,0,0,1-3.85-2,6.8,6.8,0,0,1-2.38-3.27,4.68,4.68,0,0,1,.18-3.4,6.47,6.47,0,0,1,1.46-2,7.43,7.43,0,0,1,1.23-.95l.46-.28a10,10,0,0,0-1.32,1.55,5.76,5.76,0,0,0-.93,2,3.93,3.93,0,0,0,.29,2.57c.82,1.72,3,3,5.52,3.67a21.22,21.22,0,0,0,4,.63c.7.06,1.38.05,2.06.05s1.45-.07,2.15-.16a19.83,19.83,0,0,0,7.81-2.34,9.42,9.42,0,0,0,2.74-2.29A4.25,4.25,0,0,0,491,404a6,6,0,0,0-2.69-4A12.88,12.88,0,0,0,486.63,399Z"/>
        <path class="cls-8" d="M484.93,342.68c3,1.16,5,3.08,5.18,5.38.31,4.14-5.47,7.94-12.9,8.49s-13.7-2.38-14-6.52c-.14-1.88,1-3.69,2.93-5.16"/>
        <path class="cls-10" d="M488.78,356.8c3,1.16,5,3.08,5.18,5.38.31,4.14-5.47,7.94-12.9,8.49s-13.7-2.38-14-6.52c-.14-1.88,1-3.69,2.93-5.16"/>
        <polygon class="cls-11" points="458.21 412.41 464.4 431.45 483.71 414.17 517.71 418.75 498.39 403.94 516.93 386.66 477.53 396.54 451.26 381.02 459.76 400.06 421.91 410.64 458.21 412.41"/>
        <path class="cls-8" d="M482.28,333.23c-.3-3.06-5.7-5-12.06-4.41s-11.28,3.6-11,6.66c0,0,9.71,13.38,9.71,34.47a206.72,206.72,0,0,1-3.09,36.56c.3,3.06,5.69,5,12.06,4.42s11.28-3.6,11-6.66c0,0,3.09-21.41,3.09-36.56S482.28,333.23,482.28,333.23Z"/>
        <circle class="cls-12" cx="210.63" cy="676.09" r="24.38"/>
        <circle class="cls-13" cx="681.28" cy="673.95" r="24.38"/>
        <path class="cls-14" d="M476.23,329.36c2.23.08,3.63,1.5,3.78,2.79.29,2.33-3.77,4.74-9.05,5.39s-9.81-.7-10.1-3c-.13-1.05.64-2.13,2-3A39.55,39.55,0,0,1,476.23,329.36Z"/>
        <g>
          <path class="cls-15" d="M720.33,276.18c-61,14.65-115,30.21-156.94,46.95-41.43,15.95-70.84,33.08-71,32.59,1.14-.58-8.22-27.13,2.52-70.67C505.56,242.83,536.29,183.61,615,148c61-30.22,160.17-29.71,235-5.13,76.28,21.87,127.75,65.85,127.75,65.85s24.43,25.37,35.72,39.09c.81,1.33-44.94-5.2-103.26-2.08C851.52,247.92,780.23,259.75,720.33,276.18Z"/>
          <g>
            <path class="cls-8" d="M513,326.7a292.33,292.33,0,0,1,91.51-18.32,292.66,292.66,0,0,0-91.08,20Z"/>
            <path class="cls-8" d="M534.12,300.77a305.68,305.68,0,0,1,121-6.77,305.63,305.63,0,0,0-120.78,8.45Z"/>
            <path class="cls-8" d="M558.59,276.63a321.12,321.12,0,0,1,130.9,5.42,320.91,320.91,0,0,0-130.83-3.71Q558.63,277.49,558.59,276.63Z"/>
            <path class="cls-8" d="M586.3,254.66A337.37,337.37,0,0,1,725.56,272,337.11,337.11,0,0,0,586.2,256.37Q586.25,255.51,586.3,254.66Z"/>
            <path class="cls-8" d="M617.1,235.21a353,353,0,0,1,144.28,29.85A352.56,352.56,0,0,0,616.82,236.9Z"/>
            <path class="cls-8" d="M650.8,218.64a366.28,366.28,0,0,1,131.29,38.65,365.85,365.85,0,0,0-131.75-37Z"/>
            <path class="cls-8" d="M687.18,205.31a379.32,379.32,0,0,1,116.47,45.21,379.06,379.06,0,0,0-117.1-43.61Z"/>
            <path class="cls-8" d="M726,195.59a393.46,393.46,0,0,1,114.38,55.67,393,393,0,0,0-115.17-54.13Z"/>
            <path class="cls-8" d="M766.86,189.85a407.1,407.1,0,0,1,98.69,59.06A406.65,406.65,0,0,0,765.9,191.3Z"/>
            <path class="cls-8" d="M809.54,188.43a424.19,424.19,0,0,1,81.91,54.32,423.58,423.58,0,0,0-83-53Z"/>
            <path class="cls-8" d="M853.62,191.72a440.39,440.39,0,0,1,65.05,50.62,439.48,439.48,0,0,0-66.31-49.4Z"/>
            <path class="cls-8" d="M898.69,200.06a458.93,458.93,0,0,1,36.74,31.84,457.28,457.28,0,0,0-38.14-30.76Z"/>
            <path class="cls-8" d="M944.69,215.06c10.07,9.58,19.36,18.37,28.6,28.84q-14.66-15.32-30.5-29.17C943.29,214.42,944.18,215.36,944.69,215.06Z"/>
          </g>
          <path class="cls-16" d="M491.75,352.08c.39,2.37.66,3.64.66,3.64.13.49,29.53-16.64,71-32.59,41.94-16.74,95.91-32.29,156.94-46.95,49.63-12.94,108.86-26.32,164.36-30.25,55-4.84,106.29-.23,128.83,1.87C790.39,120.57,566.19,216.08,491.75,352.08Z"/>
          <path class="cls-8" d="M1013.51,247.81C892.3,178.53,765.6,177.35,669,213c-97.7,35.6-165.33,108-193.08,185.88q-4.25-1-8.57-1.83c29.46-79.68,99.18-152.55,198.55-187.72C764.17,174.12,892.15,176.66,1013.51,247.81Z"/>
          <g>
            <path class="cls-8" d="M503.11,334c-2.45-25.16-1.46-49.22.91-75.49-3.17,26.46-4.82,50.72-2.89,76.09Z"/>
            <path class="cls-8" d="M523.47,307.39a442,442,0,0,1,9.65-97.11,428.76,428.76,0,0,0-11.74,97.55Z"/>
            <path class="cls-8" d="M547.22,282.5c2.34-35.59,9.09-70,20.15-105.94-12,35.93-19.46,70.49-22.33,106.19Z"/>
            <path class="cls-8" d="M574.26,259.71A464.6,464.6,0,0,1,610,151.41a452.81,452.81,0,0,0-38,108.36Z"/>
            <path class="cls-8" d="M604.42,239.38a459.6,459.6,0,0,1,50.75-104.77,449.4,449.4,0,0,0-53.1,104.62Z"/>
            <path class="cls-8" d="M637.55,221.86a479.24,479.24,0,0,1,50.9-90.39,466,466,0,0,0-53.29,90Z"/>
            <path class="cls-8" d="M673.41,207.51A505.41,505.41,0,0,1,722.18,131a500.27,500.27,0,0,0-52,76.88C671,208.09,672.6,207.31,673.41,207.51Z"/>
            <path class="cls-8" d="M711.75,196.7a504.19,504.19,0,0,1,56.48-69.48,512.78,512.78,0,0,0-60.37,70.62C708.68,198.12,710.93,196.42,711.75,196.7Z"/>
            <path class="cls-8" d="M752.28,189.78a533.82,533.82,0,0,1,52.06-57.38A549.92,549.92,0,0,0,747.74,191C748.56,191.36,751.46,189.42,752.28,189.78Z"/>
            <path class="cls-8" d="M794.67,187.11a500.78,500.78,0,0,1,49.72-40.82,516.82,516.82,0,0,0-54.2,41.08C791,187.81,793.86,186.67,794.67,187.11Z"/>
            <path class="cls-8" d="M837.06,190c13.52-10.4,29.24-21.2,44.13-30.41a548.41,548.41,0,0,0-48,30C834,190.14,836.26,189.5,837.06,190Z"/>
            <path class="cls-8" d="M881,196.88c8.32-5,19.4-10.74,28.12-15.35-9.53,3.92-22.91,9.5-32,14C877.89,196.12,880.19,196.25,881,196.88Z"/>
            <path class="cls-8" d="M926.72,209.39c7.25-3.46,17-7.91,24.54-11.06-8.26,2.38-20.63,6.46-28.61,9.24C923.41,208.3,926,208.67,926.72,209.39Z"/>
          </g>
        </g>
        <g>
          <g>
            <path class="cls-15" d="M302.42,206.66c74.08,14.52,118.63,61.06,139.91,97.5,22.08,37.47,20.9,64.83,22.11,64.77-3.77-3.56-107.07-26.44-202.61-35.13-39.66-6.46-92.42-13.62-138.42-10.74-45.47,1.51-84.19,13.06-83.55,12.31q-14.07-.13-28.61,1C12,338.21,35.77,292.66,91.1,256,144.28,218.47,229.07,189.83,302.42,206.66Z"/>
            <path class="cls-8" d="M11.25,336.36c177.38-130,394.34-71.71,484.59,65.88q-3.8,1.94-7.55,3.94C403,271.44,190,209,11.25,336.36Z"/>
          </g>
          <g>
            <g>
              <path class="cls-8" d="M446.35,353.63a267.16,267.16,0,0,0-81.83-6.16,267.67,267.67,0,0,1,81.86,7.84Q446.37,354.46,446.35,353.63Z"/>
              <path class="cls-8" d="M421.94,332.63a271.46,271.46,0,0,0-102,8.17,271.68,271.68,0,0,1,102.2-6.5C422.08,333.74,422,333.18,421.94,332.63Z"/>
              <path class="cls-8" d="M395.2,314.13a278,278,0,0,0-106.67,21.71,278.15,278.15,0,0,1,107-20.07Q395.39,315,395.2,314.13Z"/>
              <path class="cls-8" d="M366.31,298.32A284.61,284.61,0,0,0,258,333.53a284.75,284.75,0,0,1,108.85-33.61Z"/>
              <path class="cls-8" d="M335.49,285.39a295.71,295.71,0,0,0-107.1,43.27,295.94,295.94,0,0,1,107.83-41.74Z"/>
              <path class="cls-8" d="M303,275.55A302,302,0,0,0,207,326.63,302.21,302.21,0,0,1,303.86,277Z"/>
              <path class="cls-8" d="M269,269a309.91,309.91,0,0,0-81.58,53.63A310.24,310.24,0,0,1,270,270.35Z"/>
              <path class="cls-8" d="M233.84,265.9a322,322,0,0,0-72.9,53.67A322.38,322.38,0,0,1,235,267.15Z"/>
              <path class="cls-8" d="M197.8,266.49a330.51,330.51,0,0,0-59.33,52.94,330.94,330.94,0,0,1,60.68-51.83Z"/>
              <path class="cls-8" d="M161.2,271a341.45,341.45,0,0,0-51.06,53.13,341.84,341.84,0,0,1,52.54-52.17Z"/>
              <path class="cls-8" d="M124.37,279.48a353.37,353.37,0,0,0-38.62,47.3A353.9,353.9,0,0,1,126,280.28Z"/>
              <path class="cls-8" d="M87.67,292.28q-11.27,14.07-21,29,10.57-14.63,22.68-28.35Z"/>
              <path class="cls-8" d="M51.11,310.64c-5.51,8.55-10.29,16.15-15.06,25q8.05-13.15,17.2-25.72C52.66,309.8,51.7,310.78,51.11,310.64Z"/>
            </g>
            <g>
              <path class="cls-8" d="M456.7,358.82A317.39,317.39,0,0,0,434,293a316.46,316.46,0,0,1,24.59,66Z"/>
              <path class="cls-8" d="M432.66,337a334.55,334.55,0,0,0-32.08-82.7,332.61,332.61,0,0,1,34,82.71Z"/>
              <path class="cls-8" d="M406.24,317.6a343.68,343.68,0,0,0-44.31-88.45,341.52,341.52,0,0,1,46.21,88.27Z"/>
              <path class="cls-8" d="M377.65,300.92a346.78,346.78,0,0,0-62.14-90.24,345.29,345.29,0,0,1,64,89.87Z"/>
              <path class="cls-8" d="M347.08,287.12a351.25,351.25,0,0,0-68.88-82.75,349.54,349.54,0,0,1,70.75,82.2Z"/>
              <path class="cls-8" d="M314.76,276.38a351.92,351.92,0,0,0-76.5-72.77,350.52,350.52,0,0,1,78.34,72Z"/>
              <path class="cls-8" d="M280.95,268.9a355.53,355.53,0,0,0-70.62-59.58,364.18,364.18,0,0,1,73.49,59.63C283.22,269.25,281.54,268.59,280.95,268.9Z"/>
              <path class="cls-8" d="M245.92,264.86a356.2,356.2,0,0,0-76-50.6A369.72,369.72,0,0,1,249.29,265C248.71,265.35,246.49,264.5,245.92,264.86Z"/>
              <path class="cls-8" d="M209.94,264.46A366.08,366.08,0,0,0,148.7,224.6,370.82,370.82,0,0,1,212.29,264C211.74,264.45,210.49,264,209.94,264.46Z"/>
              <path class="cls-8" d="M173.35,267.89a351.38,351.38,0,0,0-60.4-25.32,379.72,379.72,0,0,1,64.59,25.2C177,268.25,173.86,267.41,173.35,267.89Z"/>
              <path class="cls-8" d="M137,275.52a358.26,358.26,0,0,0-50.81-16.44,382.87,382.87,0,0,1,54.34,15.64C140,275.25,137.48,275,137,275.52Z"/>
              <path class="cls-8" d="M101.39,287.63C91.93,285,76.94,278.21,67,276.32c10.39,1.24,28.36,7.44,38.25,9.54C104.8,286.46,101.83,287,101.39,287.63Z"/>
              <path class="cls-8" d="M65.06,303.43c-8.05-1.35-16.35-2.58-24.7-3.37,8.74.1,18.9.86,27.34,1.6C67.32,302.31,65.45,302.78,65.06,303.43Z"/>
            </g>
          </g>
          <path class="cls-17" d="M454.41,358.37c.84,2.51,1.23,3.87,1.23,3.87-3.3,1.82-70-11.74-176.89-26.06-65.88-10.56-160.63-18.89-226.83-4.26-25.25,4.8-27.58-.35-40.66,4.44C166.79,223.21,354.27,256.2,454.41,358.37Z"/>
        </g>
        <path class="cls-18" d="M555.56,540.49l1.11-.23c.74-.15,1.82-.35,3.18-.56s3-.41,4.93-.66,4.06-.41,6.42-.49,4.91-.2,7.61-.12,5.54.24,8.48.43,5.95.7,9,1.21a93,93,0,0,1,9.12,2.13l4.51,1.33c1.48.49,2.91,1.12,4.35,1.67s2.88,1.09,4.24,1.73l4,2.05c1.29.7,2.63,1.27,3.8,2.05l3.45,2.28,3.26,2.16,2.81,2.34c1.77,1.53,3.49,2.83,4.84,4.16l3.37,3.59,2.93,3.12-3-3-3.45-3.49c-1.38-1.29-3.13-2.55-4.93-4l-2.85-2.26-3.3-2.06-3.48-2.17c-1.18-.75-2.53-1.27-3.82-1.94l-4-1.93c-1.36-.61-2.81-1.06-4.24-1.61s-2.86-1.1-4.33-1.54l-4.48-1.2a91.57,91.57,0,0,0-9-1.86c-3-.43-6-.75-8.88-1s-5.69-.31-8.35-.21-5.16.14-7.47.31-4.41.44-6.28.64-3.48.49-4.8.77-2.35.45-3,.61l-1.08.25Z"/>
        <path class="cls-18" d="M355.51,549.8l-1.06-.31c-.68-.2-1.68-.47-3-.78s-2.91-.63-4.75-1-3.94-.72-6.24-1-4.79-.58-7.44-.71-5.45-.19-8.35-.24-5.89.22-8.92.48a91.64,91.64,0,0,0-9.12,1.38l-4.54,1c-1.5.36-2.95.88-4.41,1.31s-2.92.84-4.32,1.38L289.3,553c-1.32.59-2.7,1-3.92,1.73l-3.59,2-3.4,1.88-3,2.1c-1.88,1.38-3.69,2.54-5.14,3.75l-3.63,3.3-3.17,2.88,3.09-3,3.56-3.4c1.42-1.26,3.21-2.46,5.06-3.9l2.93-2.19,3.37-2,3.57-2.09c1.21-.72,2.58-1.21,3.9-1.85l4.08-1.84c1.4-.57,2.87-1,4.33-1.5s2.93-1,4.43-1.44l4.57-1.09a92.93,92.93,0,0,1,9.22-1.63c3.07-.35,6.1-.59,9-.72s5.79-.16,8.49,0,5.25.29,7.59.53,4.48.58,6.39.83,3.54.6,4.89.92,2.42.54,3.15.73l1.1.29Z"/>
        <rect class="cls-19" x="269.03" y="623.03" width="114.6" height="382.54" transform="translate(-2.67 1.08) rotate(-0.19)"/>
        <g class="cls-20">
          <g>
            <path class="cls-21" d="M278.13,810.18c-29.35-92.48-14.89-175.36-12.62-186.95.15-.82.25-1.3.28-1.39l-8.73-2.34-8.73-2.37c-.73,3.37-16.18,74.61,3.28,163.67,2.55,11.69,5.72,23.71,9.59,35.9,25.07,79,3.72,156.58-7.9,189.11l19.4-.06C285.55,967.42,303.64,890.55,278.13,810.18Z"/>
            <path class="cls-21" d="M392.32,809.8C363,717.32,377.42,634.44,379.69,622.85c.15-.82.25-1.3.28-1.39l-8.73-2.34-8.73-2.38c-.73,3.37-16.18,74.61,3.28,163.67,2.55,11.69,5.72,23.71,9.59,35.9,25.07,79,3.72,156.58-7.9,189.11l19.4-.07C399.74,967,417.83,890.17,392.32,809.8Z"/>
            <path class="cls-21" d="M316.2,810.05c-29.35-92.48-14.89-175.36-12.65-186.95.15-.82.25-1.3.28-1.39l-8.71-2.34L286.39,617c-.13.51-.58,2.63-1.21,6.16-4,22.53-14.75,102.6,14.05,193.41,25.07,79,3.75,156.61-7.87,189.11l19.37-.06C323.62,967.33,341.69,890.43,316.2,810.05Z"/>
            <path class="cls-21" d="M354.27,809.93C324.92,717.45,339.37,634.57,341.62,623c.15-.82.25-1.3.28-1.39l-8.71-2.34-8.73-2.38c-.13.51-.58,2.63-1.21,6.16-4,22.53-14.75,102.6,14.06,193.41,25.07,79,3.75,156.61-7.87,189.11l19.37-.06C361.69,967.2,379.76,890.3,354.27,809.93Z"/>
          </g>
        </g>
        <path class="cls-21" d="M232.25,965.81c11.59,6.12,20.08,26.44,24.4,38.11-12.87-1.69-36.9,6.72-47.34-.54-21.45-14.91-2.48-51,22.95-37.57Z"/>
        <g class="cls-22">
          <rect class="cls-23" x="269.03" y="623.03" width="114.6" height="382.54" transform="translate(-2.67 1.08) rotate(-0.19)"/>
        </g>
        <path class="cls-21" d="M390.28,966.94c-2.39,6.86-2.43,30.47.23,36.83,8-20.41,21.77-23.38,23.27-30.27,3.06-14.14-18.25-21.61-23.5-6.56C388.16,973,392.39,960.88,390.28,966.94Z"/>
        <path class="cls-21" d="M255.21,954.8c2.34,5.9-.92,16.05-3,21.7-4.2-4.67-15.7-9.14-17.26-15.1-3.2-12.24,15.13-19.55,20.27-6.61Z"/>
        <rect class="cls-24" x="269.02" y="609.88" width="114.62" height="14.54"/>
        <rect class="cls-25" x="269.02" y="583.37" width="114.62" height="29.08"/>
        <rect class="cls-26" x="539.32" y="583.37" width="114.62" height="29.08"/>
        <rect class="cls-24" x="540.17" y="609.88" width="114.62" height="14.54"/>
        <path class="cls-27" d="M481.7,830.51a3.85,3.85,0,0,1-3.85-3.85c0-7.65-9.45-14.11-20.64-14.11s-20.64,6.46-20.64,14.11a3.85,3.85,0,0,1-7.7,0c0-12,12.71-21.81,28.34-21.81s28.34,9.78,28.34,21.81A3.85,3.85,0,0,1,481.7,830.51Z"/>
        <path class="cls-24" d="M481.7,827.95a3.85,3.85,0,0,1-3.85-3.85c0-7.65-9.45-14.11-20.64-14.11s-20.64,6.46-20.64,14.11a3.85,3.85,0,1,1-7.7,0c0-12,12.71-21.81,28.34-21.81s28.34,9.78,28.34,21.81A3.85,3.85,0,0,1,481.7,827.95Z"/>
        <ellipse class="cls-28" cx="396.9" cy="966.97" rx="3.17" ry="1.48" transform="translate(-639.32 829.81) rotate(-60.14)"/>
        <ellipse class="cls-28" cx="222.41" cy="969.54" rx="3.19" ry="7.04" transform="translate(-772.3 965.9) rotate(-76.87)"/>
        <rect class="cls-19" x="541.03" y="623.03" width="114.6" height="382.54" transform="translate(-2.67 1.97) rotate(-0.19)"/>
        <g class="cls-29">
          <g>
            <path class="cls-21" d="M550.13,810.18c-29.35-92.48-14.89-175.36-12.62-186.95.15-.82.25-1.3.28-1.39l-8.73-2.34-8.73-2.37c-.73,3.37-16.18,74.61,3.28,163.67,2.55,11.69,5.72,23.71,9.59,35.9,25.07,79,3.72,156.58-7.9,189.11l19.4-.06C557.55,967.42,575.64,890.55,550.13,810.18Z"/>
            <path class="cls-21" d="M664.32,809.8C635,717.32,649.42,634.44,651.7,622.85c.15-.82.25-1.3.28-1.39l-8.73-2.34-8.73-2.38c-.73,3.37-16.18,74.61,3.28,163.67,2.55,11.69,5.72,23.71,9.59,35.9,25.07,79,3.72,156.58-7.9,189.11l19.4-.07C671.74,967,689.83,890.17,664.32,809.8Z"/>
            <path class="cls-21" d="M588.21,810.05c-29.35-92.48-14.89-175.36-12.65-186.95.15-.82.25-1.3.28-1.39l-8.71-2.34L558.4,617c-.13.51-.58,2.63-1.21,6.16-4,22.53-14.75,102.6,14.05,193.41,25.07,79,3.75,156.61-7.87,189.11l19.37-.06C595.63,967.33,613.7,890.43,588.21,810.05Z"/>
            <path class="cls-21" d="M626.27,809.93C596.92,717.45,611.38,634.57,613.62,623c.15-.82.25-1.3.28-1.39l-8.71-2.34-8.73-2.38c-.13.51-.58,2.63-1.21,6.16-4,22.53-14.75,102.6,14.06,193.41,25.07,79,3.75,156.61-7.87,189.11l19.37-.06C633.69,967.2,651.76,890.3,626.27,809.93Z"/>
          </g>
        </g>
        <path class="cls-21" d="M504.25,965.81c11.59,6.12,20.08,26.44,24.4,38.11-12.87-1.69-36.9,6.72-47.34-.54-21.45-14.91-2.48-51,22.95-37.57Z"/>
        <g class="cls-22">
          <rect class="cls-30" x="541.03" y="623.03" width="114.6" height="382.54" transform="translate(-2.67 1.97) rotate(-0.19)"/>
        </g>
        <path class="cls-21" d="M662.28,966.94c-2.39,6.86-2.43,30.47.23,36.83,8-20.41,21.77-23.38,23.27-30.27,3.06-14.14-18.25-21.61-23.5-6.56C660.17,973,664.39,960.88,662.28,966.94Z"/>
        <path class="cls-21" d="M527.21,954.8c2.34,5.9-.92,16.05-3,21.7-4.2-4.67-15.7-9.14-17.26-15.1-3.2-12.24,15.13-19.55,20.27-6.61Z"/>
        <ellipse class="cls-28" cx="668.9" cy="966.97" rx="3.17" ry="1.48" transform="translate(-502.73 1065.71) rotate(-60.14)"/>
        <ellipse class="cls-28" cx="494.41" cy="969.54" rx="3.19" ry="7.04" transform="translate(-562.09 1230.79) rotate(-76.87)"/>
      </g>
    </g>
  </g>
</svg>
