<?xml version="1.0" encoding="utf-8"?>
<!-- Generator: Adobe Illustrator 20.1.0, SVG Export Plug-In . SVG Version: 6.00 Build 0)  -->
<svg version="1.1" id="Calque_1" xmlns="http://www.w3.org/2000/svg" xmlns:xlink="http://www.w3.org/1999/xlink" x="0px" y="0px"
	 viewBox="0 0 1024 1024" style="enable-background:new 0 0 1024 1024;" xml:space="preserve">
<style type="text/css">
	.st0{opacity:0.2;fill:#6C8B8E;enable-background:new    ;}
	.st1{fill:#FF8112;}
	.st2{opacity:0.5;fill:url(#SVGID_1_);enable-background:new    ;}
	.st3{opacity:0.5;fill:url(#SVGID_2_);enable-background:new    ;}
	.st4{opacity:0.5;fill:url(#SVGID_3_);enable-background:new    ;}
	.st5{opacity:0.5;fill:url(#SVGID_4_);enable-background:new    ;}
	.st6{fill:#537022;}
	.st7{fill:#CC6100;}
	.st8{fill:#B8BF7B;}
	.st9{fill:#E1793B;}
	.st10{fill:#FFC697;}
	.st11{fill:#F5F5F5;}
	.st12{fill:#D1CD7D;}
	.st13{fill:#4B632F;}
	.st14{opacity:0.5;fill:url(#SVGID_5_);enable-background:new    ;}
	.st15{opacity:0.5;fill:url(#SVGID_6_);enable-background:new    ;}
	.st16{fill:#512101;}
	.st17{fill:#381A01;}
	.st18{fill:url(#SVGID_7_);}
	.st19{fill:#4F3C2D;}
</style>
<title>hungry clem</title>
<g>
	<g id="Calque_1_1_">
		<g>
			<ellipse class="st0" cx="518" cy="1001.7" rx="197.4" ry="21.9"/>
			<path class="st1" d="M744.3,757.8c9.4,127.7-88.4,228.5-216.1,237.9s-238.9-86.6-248.2-214.3c-5.3-71.8,14.2-143.8,62.5-190
				c37.6-35.9,95.9-54.2,151.8-58.3c45.5-3.3,103.6,5.6,141.3,27.3C703.7,599.8,738.3,675.5,744.3,757.8z"/>
			
				<linearGradient id="SVGID_1_" gradientUnits="userSpaceOnUse" x1="512.0021" y1="-39.36" x2="512.0021" y2="161.34" gradientTransform="matrix(1 0 0 -1 0 1023.28)">
				<stop  offset="0" style="stop-color:#4B005C"/>
				<stop  offset="1" style="stop-color:#4B005C;stop-opacity:0"/>
			</linearGradient>
			<path class="st2" d="M744.3,757.8c9.4,127.7-88.4,228.5-216.1,237.9s-238.9-86.6-248.2-214.3c-5.3-71.8,14.2-143.8,62.5-190
				c37.6-35.9,95.9-54.2,151.8-58.3c45.5-3.3,103.6,5.6,141.3,27.3C703.7,599.8,738.3,675.5,744.3,757.8z"/>
			
				<radialGradient id="SVGID_2_" cx="517.22" cy="292.8075" r="245.42" gradientTransform="matrix(1 0 0 -0.93 -0.63 1016.5004)" gradientUnits="userSpaceOnUse">
				<stop  offset="0" style="stop-color:#FFFFFF"/>
				<stop  offset="1" style="stop-color:#FFFFFF;stop-opacity:0"/>
			</radialGradient>
			<path class="st3" d="M744.3,757.8c9.4,127.7-88.4,228.5-216.1,237.9s-238.9-86.6-248.2-214.3c-5.3-71.8,14.2-143.8,62.5-190
				c37.6-35.9,95.9-54.2,151.8-58.3c45.5-3.3,103.6,5.6,141.3,27.3C703.7,599.8,738.3,675.5,744.3,757.8z"/>
			
				<linearGradient id="SVGID_3_" gradientUnits="userSpaceOnUse" x1="512.0021" y1="503.15" x2="512.0021" y2="20.31" gradientTransform="matrix(1 0 0 -1 0 1023.28)">
				<stop  offset="0" style="stop-color:#8E19CC"/>
				<stop  offset="1" style="stop-color:#FFFFFF;stop-opacity:0"/>
			</linearGradient>
			<path class="st4" d="M744.3,757.8c9.4,127.7-88.4,228.5-216.1,237.9s-238.9-86.6-248.2-214.3c-5.3-71.8,14.2-143.8,62.5-190
				c37.6-35.9,95.9-54.2,151.8-58.3c45.5-3.3,103.6,5.6,141.3,27.3C703.7,599.8,738.3,675.5,744.3,757.8z"/>
			
				<radialGradient id="SVGID_4_" cx="527.58" cy="480.1367" r="39.05" gradientTransform="matrix(1 0 0 -0.96 3.67 1035.1188)" gradientUnits="userSpaceOnUse">
				<stop  offset="0" style="stop-color:#000000"/>
				<stop  offset="1" style="stop-color:#000000;stop-opacity:0"/>
			</radialGradient>
			<path class="st5" d="M559.6,545.9c11,4,18.2,10.7,18.8,18.7c1.1,14.4-20,27.7-47.1,29.7s-49.9-8.1-50.9-22.5
				c-0.5-6.6,3.6-12.9,10.7-18"/>
			<path class="st6" d="M544.3,556.2c1.8,0.1,3.5,0.4,5.2,1.1c1.9,0.7,3.5,2,4.7,3.5c0.7,0.9,1.2,1.9,1.5,3l0.2,0.9v0.1
				c0-0.1,0,0.2,0,0.2v0.1v0.2l0.1,0.3c0,0.3,0.1,0.7,0.1,1c0,0.4,0,0.6,0,0.9c-0.2,2.3-1,4.5-2.4,6.4c-2.4,3.2-5.7,5.8-9.4,7.4
				c-3.4,1.5-7.1,2.5-10.8,2.9c-0.9,0.1-2,0.2-2.7,0.2c-1,0-1.9,0-2.8,0c-1.9-0.1-3.7-0.3-5.6-0.7c-3.8-0.7-7.5-2.2-10.7-4.5
				c-1.7-1.2-3.2-2.8-4.4-4.6c-1.2-2-1.7-4.3-1.5-6.6c0.3-2.1,1.2-4.1,2.8-5.5c1.3-1.3,2.9-2.2,4.6-2.7c-0.9,1.3-1.7,2.8-2.2,4.3
				c-0.4,1.2-0.5,2.5-0.1,3.8c0.7,2.1,2.6,3.3,5,4.3c4.8,1.9,10.8,2.2,16.5,1.6c2.8-0.3,5.6-0.9,8.3-1.7c2.5-0.7,4.8-1.9,6.8-3.5
				c1.7-1.5,2.7-2.9,2.3-5.3c-0.4-1.3-1-2.6-1.9-3.7C546.8,558.3,545.6,557.2,544.3,556.2z"/>
			<path class="st7" d="M536,559.5l0.4,0.1c1.1,0.3,2,0.8,2.9,1.5c0.7,0.6,1.2,1.4,1.5,2.3c0.2,1.1,0,2.3-0.6,3.3
				c-0.6,1-1.5,1.9-2.5,2.6c-2.1,1.4-4.6,2.2-7.1,2.4c-0.6,0.1-1.3,0.1-1.9,0.1s-1.3,0-1.9-0.1c-1.2-0.1-2.5-0.4-3.6-0.8
				c-1.1-0.4-2.2-0.9-3.1-1.7c-0.9-0.7-1.6-1.6-1.9-2.7c-0.3-0.9-0.2-1.9,0.2-2.8c0.3-0.6,0.7-1.2,1.2-1.6c0.3-0.3,0.6-0.5,1-0.8
				l0.4-0.2c-0.4,0.4-0.8,0.8-1.1,1.3c-0.4,0.5-0.6,1-0.8,1.6c-0.2,0.7-0.1,1.4,0.2,2.1c0.7,1.4,2.5,2.5,4.5,3
				c1.1,0.3,2.2,0.5,3.3,0.5c0.6,0,1.1,0,1.7,0s1.2-0.1,1.8-0.1c2.2-0.2,4.4-0.8,6.4-1.9c0.9-0.5,1.6-1.1,2.2-1.9
				c0.5-0.6,0.8-1.5,0.7-2.3c-0.2-1.3-1-2.5-2.2-3.3C537,560,536.5,559.7,536,559.5z"/>
			<path class="st6" d="M534.6,513.7c2.5,1,4.1,2.5,4.2,4.4c0.3,3.4-4.5,6.5-10.5,6.9s-11.2-1.9-11.4-5.3c-0.1-1.5,0.8-3,2.4-4.2"/>
			<path class="st8" d="M537.8,525.2c2.5,1,4.1,2.5,4.2,4.4c0.3,3.4-4.5,6.5-10.5,6.9s-11.2-1.9-11.4-5.3c-0.1-1.5,0.8-3,2.4-4.2"/>
			<polygon class="st9" points="512.9,570.4 517.9,585.9 533.7,571.9 561.3,575.6 545.6,563.5 560.7,549.5 528.6,557.5 507.2,544.9 
				514.2,560.4 483.3,569 			"/>
			<path class="st6" d="M532.5,506c-0.2-2.5-4.6-4.1-9.8-3.6s-9.2,2.9-8.9,5.4c0,0,7.9,10.9,7.9,28.1c0,10-0.8,19.9-2.5,29.8
				c0.2,2.5,4.6,4.1,9.8,3.6s9.2-2.9,8.9-5.4c0,0,2.5-17.4,2.5-29.8S532.5,506,532.5,506z"/>
			<circle class="st10" cx="624.5" cy="731.2" r="28.2"/>
			<circle class="st11" cx="623.5" cy="729.1" r="28.2"/>
			<path class="st12" d="M527.6,502.8c1.4-0.1,2.7,0.9,3.1,2.3c0.2,1.9-3.1,3.9-7.4,4.4s-8-0.6-8.2-2.5c-0.1-0.9,0.5-1.7,1.6-2.5
				C520.2,503.3,523.9,502.8,527.6,502.8z"/>
			<g>
				<path class="st13" d="M648.7,282.3c-13.3,127.7-114,221.9-114,221.9s-79.2-112.9-65.9-240.7C479.5,160.9,563,29.8,563,29.8
					l23.4-21.9C586.4,7.9,662,154.6,648.7,282.3z"/>
				<g>
					<polygon class="st6" points="540.2,467.7 610.9,401.4 541.6,469.2 					"/>
					<polygon class="st6" points="543.5,433.6 634.3,350.7 544.9,435.2 					"/>
					<polygon class="st6" points="546.8,399.6 641.5,313.2 548.2,401.2 					"/>
					<polygon class="st6" points="550,365.6 646.1,275.3 551.5,367.1 					"/>
					<polygon class="st6" points="553.3,331.5 648.6,239.2 554.8,333.1 					"/>
					<polygon class="st6" points="556.6,297.5 643.6,216.8 558,299 					"/>
					<polygon class="st6" points="559.9,263.5 638.3,194.4 561.3,265 					"/>
					<polygon class="st6" points="563.2,229.4 639.4,161.6 564.6,231 					"/>
					<polygon class="st6" points="566.4,195.4 634.6,138 567.8,196.9 					"/>
					<polygon class="st6" points="569.7,161.4 623.6,113.1 571.1,162.9 					"/>
					<polygon class="st6" points="573,127.3 616.8,88.9 574.4,128.9 					"/>
					<polygon class="st6" points="576.3,93.3 601,71.7 577.7,94.8 					"/>
					<polygon class="st6" points="580.8,58.2 600.2,41.7 580.9,60.8 					"/>
				</g>
				<linearGradient id="SVGID_5_" gradientUnits="userSpaceOnUse" x1="419.2143" y1="239.4581" x2="606.2144" y2="261.4581">
					<stop  offset="0" style="stop-color:#FFFFFF"/>
					<stop  offset="1" style="stop-color:#FFFFFF;stop-opacity:0"/>
				</linearGradient>
				<path class="st14" d="M532.2,500.5c1.6,2.4,2.5,3.7,2.5,3.7s100.7-94.2,114-221.9c11-105.3-44.6-236.1-62.3-274.4L532.2,500.5z"
					/>
				<polygon class="st6" points="586.4,7.9 533.2,554.8 522.8,553.6 				"/>
				<g>
					<polygon class="st6" points="534.5,478.4 484.4,402.4 532.8,479.6 					"/>
					<polygon class="st6" points="538.1,444.4 473.1,350.3 536.4,445.6 					"/>
					<polygon class="st6" points="541.8,410.4 466.3,306.7 540,411.6 					"/>
					<polygon class="st6" points="545.4,376.4 469.5,268.7 543.7,377.6 					"/>
					<polygon class="st6" points="549,342.4 474.2,232.8 547.3,343.6 					"/>
					<polygon class="st6" points="552.6,308.4 483.6,211.9 550.9,309.6 					"/>
					<polygon class="st6" points="556.3,274.4 493.3,191 555.2,276.9 					"/>
					<polygon class="st6" points="559.9,240.4 498.8,158.6 559.1,244.1 					"/>
					<polygon class="st6" points="563.5,206.4 508.3,136.5 562.8,209.7 					"/>
					<polygon class="st6" points="567.2,172.4 524,114.3 566.9,176.1 					"/>
					<polygon class="st6" points="571.9,139.9 535.6,92 571,142.6 					"/>
					<polygon class="st6" points="576.5,107.4 554.5,78.3 574.8,108.6 					"/>
					<polygon class="st6" points="579.5,72.4 561.4,49.1 578.9,76 					"/>
				</g>
			</g>
			<g>
				<g>
					<path class="st13" d="M502.2,294.5c47.2,105.4,11.3,224,11.3,224S401,466.4,353.8,361c-37.9-84.7-32-224.3-32-224.3l8.2-27.6
						C330,109.1,455,189.1,502.2,294.5z"/>
					<polygon class="st6" points="330,109.1 536.6,557.5 527.1,561.8 					"/>
				</g>
				<g>
					<g>
						<polygon class="st6" points="501.4,498.2 423.1,455.6 500.6,500 						"/>
						<polygon class="st6" points="488.5,468.6 388.9,417.4 487.6,470.4 						"/>
						<polygon class="st6" points="475.5,439 369.3,386.9 474.7,440.8 						"/>
						<polygon class="st6" points="462.6,409.4 351.8,357.2 461.8,411.1 						"/>
						<polygon class="st6" points="449.7,379.7 341.4,325.4 448.9,381.5 						"/>
						<polygon class="st6" points="436.8,350.1 334.9,303.1 435.9,351.9 						"/>
						<polygon class="st6" points="423.8,320.5 333.1,281.5 423,322.3 						"/>
						<polygon class="st6" points="410.9,290.9 330.7,253.6 410.1,292.7 						"/>
						<polygon class="st6" points="398,261.3 328.2,231 397.1,263.1 						"/>
						<polygon class="st6" points="385,231.6 322.4,204.1 384.2,233.4 						"/>
						<polygon class="st6" points="372.1,202 321.5,180.4 371.3,203.8 						"/>
						<polygon class="st6" points="359.2,172.4 330.5,160.2 358.4,174.2 						"/>
						<polygon class="st6" points="345.3,142.6 322.5,133 345.4,144.6 						"/>
					</g>
					<g>
						<polygon class="st6" points="509.7,506.2 525,432.5 511.6,506.8 						"/>
						<polygon class="st6" points="496.5,476.7 524.7,383.8 498.4,477.3 						"/>
						<polygon class="st6" points="483.2,447.2 517.1,344.5 485.1,447.8 						"/>
						<polygon class="st6" points="470,417.7 505.3,305.1 471.9,418.3 						"/>
						<polygon class="st6" points="456.8,388.2 492.6,278.3 458.6,388.8 						"/>
						<polygon class="st6" points="443.5,358.8 477.2,251.7 445.4,359.4 						"/>
						<polygon class="st6" points="430.3,329.3 462.4,235.9 432,330.8 						"/>
						<polygon class="st6" points="417,299.8 446.4,213.6 418.6,301.7 						"/>
						<polygon class="st6" points="403.8,270.3 431,194.8 405.1,272.7 						"/>
						<polygon class="st6" points="390.6,240.8 412.3,175.9 392,243.8 						"/>
						<polygon class="st6" points="376.6,212.8 395.4,159.3 378.1,214.8 						"/>
						<polygon class="st6" points="363.5,184 374.3,152.5 365.1,186.2 						"/>
						<polygon class="st6" points="350.2,154.6 358.1,130.3 351.7,156.7 						"/>
					</g>
				</g>
				<linearGradient id="SVGID_6_" gradientUnits="userSpaceOnUse" x1="296.8075" y1="431.0875" x2="407.5888" y2="320.3062">
					<stop  offset="0" style="stop-color:#FFFFFF"/>
					<stop  offset="1" style="stop-color:#FFFFFF;stop-opacity:0"/>
				</linearGradient>
				<path class="st15" d="M507.5,505.2c-0.3,2.9-0.5,4.4-0.5,4.4S425.7,490,362.2,378.4c-39-68.5-44-169.5-40-230.4
					c1.6-24,8.3-26.9,7.8-38.8L507.5,505.2z"/>
			</g>
			<path class="st16" d="M631.4,704.9c0,0-1.4,0-4,0.1c-3.7,0.2-7.4,0.7-11,1.7c-2.6,0.7-5,1.8-7.3,3.1c-2.6,1.6-4.9,3.9-6.5,6.5
				c-3.8,6.5-4.6,14.2-2.4,21.4c1.3,4,3.3,7.8,6,11.1c2.7,3.6,6.8,5.8,11.3,6.2c4.5,0.3,9.2-1.4,13.2-4c4.2-2.7,7.7-6.2,10.5-10.3
				c3-4.1,4.9-9,5.5-14.1c0.4-5.2-1.3-10.3-4.7-14.2c-3.6-3.9-8.3-6.6-13.5-7.7c-5.2-1.2-10.7-0.9-15.7,0.8c-5.1,1.6-9.4,5-12.2,9.5
				c-2.7,4.5-3.3,10-2.8,15.2c0.3,2.6,0.9,5.2,1.8,7.6c0.9,2.4,2.1,4.9,3.2,7.2c2.3,4.7,5.5,8.9,10.2,10.6s9.8,2.3,14.3,0.8
				s8.3-4.7,12-7.6s7.1-6,9.2-9.8c2-3.7,2.9-7.9,2.4-12.1c-0.2-3.9-1.3-7.7-3-11.2c-1.6-3.1-3.8-5.9-6.6-8.1
				c-4.5-3.6-9.8-6.1-15.4-7.3c-3.6-0.8-7.3-1.3-11.1-1.4c-2.6-0.1-4,0-4,0s1.4-0.1,4-0.1c3.7,0,7.5,0.4,11.1,1.2
				c5.8,1.1,11.2,3.5,15.9,7c2.9,2.2,5.3,5,7,8.3c1.9,3.6,3,7.5,3.3,11.5c0.5,4.4-0.3,8.9-2.4,12.8c-2.2,4.1-5.8,7.3-9.4,10.3
				s-7.5,6.3-12.4,8.1c-2.5,0.8-5.1,1.1-7.8,0.9c-2.7-0.2-5.3-0.7-7.8-1.7c-2.6-1-4.9-2.6-6.7-4.6c-1.8-2.1-3.3-4.4-4.5-6.8
				c-1.2-2.5-2.3-4.8-3.3-7.4c-1-2.6-1.6-5.3-1.9-8.1c-0.6-5.5,0-11.4,3-16.5c3-4.9,7.8-8.6,13.3-10.4c5.4-1.8,11.3-2,16.8-0.8
				c5.6,1.2,10.7,4.1,14.5,8.4c3.7,4.3,5.5,10,5,15.7c-0.6,5.4-2.6,10.5-5.8,14.9c-3,4.3-6.7,7.9-11.1,10.8
				c-4.3,2.7-9.3,4.5-14.3,4.1c-4.8-0.5-9.3-2.9-12.2-6.8c-2.7-3.5-4.8-7.4-6.1-11.5c-2.3-7.4-1.2-15.5,2.9-22.1
				c1.7-2.7,4.1-4.9,6.8-6.5c2.3-1.3,4.8-2.4,7.4-3c3.6-0.9,7.4-1.4,11.1-1.5C630,704.9,631.4,704.9,631.4,704.9z"/>
			<circle class="st10" cx="401.7" cy="731.2" r="28.2"/>
			<circle class="st11" cx="400.6" cy="729.1" r="28.2"/>
			<path class="st16" d="M408.5,704.9c0,0-1.4,0-4,0.1c-3.7,0.2-7.4,0.8-11,1.7c-2.6,0.7-5,1.8-7.3,3.2c-2.6,1.6-4.9,3.9-6.5,6.5
				c-3.8,6.5-4.6,14.3-2.3,21.4c1.3,4,3.4,7.8,6.1,11.1c2.8,3.5,6.9,5.7,11.4,6c4.5,0.2,9.2-1.5,13.2-4.1c4.1-2.8,7.7-6.3,10.5-10.5
				c3-4.2,4.8-9.1,5.3-14.2c0.3-5.2-1.5-10.3-4.9-14.2c-3.6-3.9-8.4-6.5-13.6-7.5c-5.2-1.1-10.7-0.8-15.8,1c-5,1.7-9.3,5.2-12,9.7
				c-2.5,4.6-3.1,10.1-2.5,15.3c0.3,2.6,1,5.2,1.9,7.6c1,2.4,2.1,4.8,3.5,7.1c1.3,2.2,2.9,4.2,4.8,5.8c2,1.5,4.2,2.7,6.6,3.3
				c4.8,1.4,9.8,1.7,14.7,0.8c4.6-1.1,8.9-3.3,12.5-6.4c3.5-2.9,6.1-6.7,7.5-11c1.3-4,1.9-8.3,1.7-12.5c0-3.9-0.9-7.8-2.5-11.3
				c-1.5-3.2-3.8-5.9-6.6-8c-5.4-4-11.3-5.4-16-6.3c-3.7-0.6-7.4-0.9-11.1-1c-2.6,0-4,0-4,0s1.4-0.1,4-0.1c3.8,0,7.5,0.2,11.2,0.8
				c4.7,0.8,10.7,2.1,16.3,6c3,2.1,5.4,4.9,7.1,8.2c1.8,3.6,2.7,7.6,2.8,11.7c0.2,4.4-0.3,8.8-1.6,13c-1.4,4.5-4.1,8.6-7.8,11.7
				c-3.7,3.4-8.3,5.8-13.2,7c-2.6,0.6-5.2,0.7-7.8,0.6c-2.6-0.2-5.2-0.6-7.8-1.3c-2.6-0.7-5.1-2-7.3-3.6c-2.1-1.8-3.9-3.9-5.3-6.3
				c-1.4-2.4-2.6-4.8-3.6-7.3c-1-2.6-1.7-5.3-2.1-8.1c-0.9-5.7,0-11.5,2.6-16.6c2.9-5,7.6-8.8,13.1-10.7c5.4-1.9,11.3-2.2,16.9-1
				c5.6,1.1,10.7,4,14.6,8.2c3.8,4.3,5.7,9.9,5.3,15.6c-0.6,5.4-2.5,10.6-5.7,15c-2.9,4.3-6.7,8-11.1,10.9
				c-4.3,2.7-9.3,4.5-14.3,4.2c-2.5-0.2-4.9-0.9-7-2.1c-2-1.2-3.8-2.8-5.3-4.6c-2.7-3.4-4.8-7.4-6.1-11.6
				c-2.3-7.4-1.3-15.5,2.8-22.2c1.7-2.7,4.1-5,6.8-6.6c2.3-1.3,4.8-2.4,7.5-3c3.7-0.9,7.4-1.4,11.2-1.5
				C407.1,704.9,408.5,704.9,408.5,704.9z"/>
			<polygon class="st17" points="573.7,719 586.2,723.3 585.3,723.5 660.4,660.8 586.5,724.9 586.1,725.2 585.6,725 573,721 			"/>
			
				<radialGradient id="SVGID_7_" cx="601.67" cy="389.28" r="29.3762" gradientTransform="matrix(1 0 0 -1 0 1023.28)" gradientUnits="userSpaceOnUse">
				<stop  offset="0" style="stop-color:#AC21CE"/>
				<stop  offset="1" style="stop-color:#ED4D0F;stop-opacity:0"/>
			</radialGradient>
			<polygon class="st18" points="583.3,661.4 601.3,648.6 615.9,658 626.3,647 614.9,635.8 632.9,617.3 623.2,606.6 602.8,619.4 
				590.6,609.7 580.1,621.2 587.2,633 570.5,651.5 			"/>
			<polygon class="st17" points="454.6,722.4 442,726.5 441.5,726.6 441.1,726.3 367.2,662.2 442.3,724.9 441.4,724.7 453.9,720.4 
							"/>
			<g>
				<path class="st17" d="M587.8,625c3.1,2.6,6,5.4,8.7,8.4l0.7,0.7l-0.7,0.7c-2,1.9-4.1,3.8-6.3,5.6c-2.2,1.8-4.4,3.5-6.8,5
					c1.7-2.2,3.6-4.3,5.6-6.3c2-2,4-3.9,6.1-5.7l-0.1,1.4C592.3,631.7,589.9,628.4,587.8,625z"/>
				<path class="st17" d="M609.9,650.5c-1.9-1.3-3.6-2.6-5.4-4.1c-1.7-1.4-3.4-2.9-5-4.5l1.3,0.1c-2.1,1.7-4.3,3.2-6.5,4.7
					c-2.2,1.5-4.5,2.9-6.9,4.2c1.8-2,3.8-3.8,5.8-5.5c2-1.7,4.1-3.4,6.2-5l0.7-0.5l0.6,0.6c1.6,1.6,3.2,3.2,4.7,4.8
					C607.1,647,608.6,648.7,609.9,650.5z"/>
				<path class="st17" d="M594.1,618.9c3.4,2.5,6.6,5.2,9.7,8.2l-1.3-0.1c2.5-1.8,5-3.4,7.7-5c2.6-1.6,5.3-3.1,8.1-4.4
					c-2.3,2.1-4.6,4.1-7.1,5.9c-2.5,1.8-5,3.6-7.5,5.2l-0.7,0.5l-0.6-0.6C599.4,625.5,596.6,622.3,594.1,618.9z"/>
				<path class="st17" d="M617.1,644.4c-3.9-2.6-7.6-5.4-11.1-8.5l-0.9-0.8l0.9-0.8c2.4-2.1,4.9-4.1,7.4-6c1.3-1,2.6-1.9,3.9-2.8
					s2.7-1.8,4-2.6c-1.1,1.2-2.2,2.3-3.3,3.5s-2.3,2.2-3.5,3.3c-2.4,2.1-4.8,4.2-7.3,6.2v-1.5C610.8,637.5,614.1,640.9,617.1,644.4z
					"/>
			</g>
			<polygon class="st10" points="622.4,902.8 622.4,843.9 402.4,829.1 402.4,902.8 			"/>
			<g>
				<polyline class="st11" points="622.4,900.7 622.4,841.8 402.4,827 402.4,900.7 				"/>
				<path class="st19" d="M622.4,900.7c-0.2-19.7-0.5-39.3-0.6-59l0.6,0.6l-55-3.4l-55-3.6l-55-3.8c-18.3-1.2-36.7-2.6-55-3.9
					l0.8-0.7l-0.3,36.8l-0.4,36.8l-0.4-36.8l-0.4-36.8v-0.8h0.8c18.3,1.1,36.7,2.2,55,3.5l55,3.6l55,3.8l55,4h0.6v0.6
					C623,861.4,622.6,881.1,622.4,900.7z"/>
			</g>
			<polygon class="st19" points="434.9,901.4 436,873.2 437,901.4 			"/>
			<polygon class="st19" points="539,901.4 540.1,873.2 541.1,901.4 			"/>
			<polygon class="st19" points="487,901.4 488,873.2 489.1,901.4 			"/>
			<polygon class="st19" points="591.1,901.4 592.1,873.2 593.2,901.4 			"/>
		</g>
	</g>
</g>
</svg>
