<svg xmlns="http://www.w3.org/2000/svg" xmlns:xlink="http://www.w3.org/1999/xlink" viewBox="0 0 1024 1024">
  <defs>
    <style>
      .cls-1 {
        isolation: isolate;
      }

      .cls-2 {
        fill: #ff8112;
      }

      .cls-10, .cls-3 {
        opacity: 0.5;
      }

      .cls-10, .cls-11, .cls-22, .cls-24, .cls-25, .cls-3, .cls-5, .cls-6, .cls-7 {
        mix-blend-mode: darken;
      }

      .cls-3 {
        fill: url(#linear-gradient);
      }

      .cls-4 {
        opacity: 0.3;
        mix-blend-mode: lighten;
        fill: url(#radial-gradient);
      }

      .cls-10, .cls-11, .cls-5 {
        fill: #a54faa;
      }

      .cls-5, .cls-7 {
        opacity: 0.05;
      }

      .cls-6, .cls-7 {
        fill: #939adb;
      }

      .cls-24, .cls-6 {
        opacity: 0.1;
      }

      .cls-8 {
        fill: #ffc697;
      }

      .cls-9 {
        fill: #381a01;
      }

      .cls-11, .cls-22, .cls-25 {
        opacity: 0.2;
      }

      .cls-12 {
        fill: #5b2700;
      }

      .cls-13 {
        fill: #fff;
      }

      .cls-14 {
        fill: url(#linear-gradient-2);
      }

      .cls-15 {
        fill: url(#linear-gradient-3);
      }

      .cls-16 {
        fill: #72390e;
      }

      .cls-17 {
        fill: #afafaf;
      }

      .cls-18 {
        fill: #383838;
      }

      .cls-19 {
        fill: #dddac7;
      }

      .cls-20 {
        fill: #4f4f4f;
      }

      .cls-21 {
        fill: #ceefef;
      }

      .cls-23, .cls-24, .cls-25 {
        fill: #244266;
      }

      .cls-26 {
        fill: #ebeced;
      }
    </style>
    <linearGradient id="linear-gradient" x1="516.02" y1="1060.23" x2="516.02" y2="734.13" gradientUnits="userSpaceOnUse">
      <stop offset="0" stop-color="#4b005c"/>
      <stop offset="1" stop-color="#4b005c" stop-opacity="0"/>
    </linearGradient>
    <radialGradient id="radial-gradient" cx="524.51" cy="546.7" r="398.76" gradientTransform="matrix(1, 0, 0, 0.93, -0.46, 36.65)" gradientUnits="userSpaceOnUse">
      <stop offset="0" stop-color="#fff"/>
      <stop offset="1" stop-color="#fff" stop-opacity="0"/>
    </radialGradient>
    <linearGradient id="linear-gradient-2" x1="1418.45" y1="198.08" x2="1394.93" y2="145.34" gradientTransform="translate(932.83 -819.33) rotate(90)" gradientUnits="userSpaceOnUse">
      <stop offset="0" stop-color="#ed4d0f" stop-opacity="0"/>
      <stop offset="1" stop-color="#ed4d0f" stop-opacity="0.96"/>
    </linearGradient>
    <linearGradient id="linear-gradient-3" x1="1416.39" y1="695.13" x2="1392.87" y2="642.39" xlink:href="#linear-gradient-2"/>
  </defs>
  <title>totoro clem</title>
  <g class="cls-1">
    <g id="Calque_1" data-name="Calque 1">
      <path class="cls-2" d="M893.46,564.85c15.22,207.54-143.63,371.33-351.17,386.54S154.16,810.69,138.94,603.15c-8.56-116.74,23.14-233.63,101.61-308.68,61-58.37,155.83-88,246.63-94.67,74-5.43,168.26,9,229.6,44.43C827.52,308.15,883.67,431.28,893.46,564.85Z"/>
      <path class="cls-3" d="M893.46,564.85c15.22,207.54-143.63,371.33-351.17,386.54S154.16,810.69,138.94,603.15c-8.56-116.74,23.14-233.63,101.61-308.68,61-58.37,155.83-88,246.63-94.67,74-5.43,168.26,9,229.6,44.43C827.52,308.15,883.67,431.28,893.46,564.85Z"/>
      <path class="cls-4" d="M893.46,564.85c15.22,207.54-143.63,371.33-351.17,386.54S154.16,810.69,138.94,603.15c-8.56-116.74,23.14-233.63,101.61-308.68,61-58.37,155.83-88,246.63-94.67,74-5.43,168.26,9,229.6,44.43C827.52,308.15,883.67,431.28,893.46,564.85Z"/>
      <ellipse class="cls-5" cx="521.42" cy="971.93" rx="320.79" ry="31.94"/>
      <ellipse class="cls-5" cx="533.8" cy="947.87" rx="320.79" ry="31.94"/>
      <ellipse class="cls-6" cx="480.18" cy="961.62" rx="320.79" ry="31.94"/>
      <ellipse class="cls-7" cx="555.8" cy="962.31" rx="320.79" ry="31.94"/>
      <circle class="cls-8" cx="323.75" cy="523.32" r="45.83"/>
      <circle class="cls-8" cx="698.85" cy="521.62" r="45.83"/>
      <circle class="cls-9" cx="323.75" cy="519.92" r="45.83"/>
      <path class="cls-10" d="M192.66,505.7c4.61-52,37.47-101.72,101.21-134,55-27.85,137.57-40.84,215.59-42.52C573,327.87,653,336.69,703.84,355.34c87.24,32,129.61,89.68,135.26,152.34a107.54,107.54,0,0,0,.61-15.06c-2-66.37-44.16-128.39-135.87-162C653,311.94,573,303.12,509.46,304.48c-78,1.68-160.58,14.67-215.59,42.52-70.74,35.78-103.47,93.15-101.72,151.16C192.23,500.69,192.42,503.2,192.66,505.7Z"/>
      <polyline class="cls-11" points="486.96 298.54 470.97 352.17 503.97 316.07 530.27 348.04 526.14 294.42"/>
      <path class="cls-11" d="M521.29,564.39C343,570.64,194.8,509.7,190.24,428.28c-2.58-45.81,29.33-91.72,99.55-121.27,54.6-23,137-34.75,214.95-37.48,63.56-2.22,143.67,3.31,194.73,17.14,92.18,24.93,135.21,73.18,138.16,125.58C842.21,493.68,699.55,558.15,521.29,564.39Z"/>
      <circle class="cls-12" cx="323.75" cy="519.92" r="40.74"/>
      <g>
        <circle class="cls-13" cx="335.2" cy="502.04" r="9.62"/>
        <circle class="cls-13" cx="313.67" cy="537.38" r="19.61"/>
      </g>
      <circle class="cls-9" cx="697.15" cy="518.23" r="45.83"/>
      <circle class="cls-12" cx="697.15" cy="518.23" r="40.74"/>
      <ellipse class="cls-14" cx="765.13" cy="585.57" rx="32.25" ry="26.46"/>
      <ellipse class="cls-15" cx="268.08" cy="583.51" rx="32.25" ry="26.46"/>
      <path class="cls-9" d="M430.61,751.26c-17.75.06-37.38-16.45-35.87-34.51,1.79-21.36,27.29-25.29,44.71-28.44,39.55-7.15,79.63-10.56,120.88-11.17,39-.58,80.69.59,88.51,47.33,8.58,51.31-52.79,50-87.85,47.47-39.93-2.88-114.76,6.75-147-21.48"/>
      <path class="cls-16" d="M414.94,759c3.12-32.17,59.1-40.12,83.38-29.62,5.62,2.43,11.46,7.81,17.33,9,7,1.38,9.17-2.16,16.4-6.84a72.42,72.42,0,0,1,45.41-12c11.76.74,28,9.05,34.62,18.66,11,16-4.12,31.15-15.54,42.55-25.61,25.58-68.3,14.4-101,10.45-20.51-2.48-39.51-3.44-55.84-16.65-15-12.11-35.08-22.77-10.49-37.08"/>
      <circle class="cls-13" cx="708.03" cy="499.69" r="9.62"/>
      <path class="cls-17" d="M914.46,564.25c-10.33-141-69.61-271-186.49-338.43-64.76-37.37-164.27-52.63-242.38-46.9-81.2,6-165.41,29.33-228.44,73.79a278.45,278.45,0,0,0-31.91,26.13,303.57,303.57,0,0,0-27.6,30.24C135,387.56,110,496.19,118,604.69c9,122.94,73,228.75,166.17,295.07a396.19,396.19,0,0,0,259.6,72.52c80-5.86,153.2-32.67,213.05-75C860.84,823.74,924.65,703.3,914.46,564.25ZM522.76,750.07c-178.34,4.54-325.45-90.6-328.55-212.49-1.75-68.58,31-136.39,101.72-178.69,55-32.92,137.57-48.28,215.59-50.26,63.59-1.61,143.59,8.83,194.39,30.87C797.62,379.27,839.78,452.59,841.78,531,844.9,653,701.1,745.54,522.76,750.07Zm391.7-185.83c-10.33-141-69.61-271-186.49-338.43-64.76-37.37-164.27-52.63-242.38-46.9-81.2,6-165.41,29.33-228.44,73.79a278.45,278.45,0,0,0-31.91,26.13,303.57,303.57,0,0,0-27.6,30.24C135,387.56,110,496.19,118,604.69c9,122.94,73,228.75,166.17,295.07a396.19,396.19,0,0,0,259.6,72.52c80-5.86,153.2-32.67,213.05-75C860.84,823.74,924.65,703.3,914.46,564.25ZM522.76,750.07c-178.34,4.54-325.45-90.6-328.55-212.49-1.75-68.58,31-136.39,101.72-178.69,55-32.92,137.57-48.28,215.59-50.26,63.59-1.61,143.59,8.83,194.39,30.87C797.62,379.27,839.78,452.59,841.78,531,844.9,653,701.1,745.54,522.76,750.07Z"/>
      <circle class="cls-13" cx="686.5" cy="535.04" r="19.61"/>
      <g>
        <path class="cls-17" d="M830.36,829.54c59.08-70.87,91.6-163.05,84.1-265.29A571.11,571.11,0,0,0,904.17,490"/>
        <path class="cls-18" d="M830.36,829.54l9.57-12.18c3-3.91,6.37-8.85,10.38-14.41,2-2.81,3.87-5.93,6-9.15s4.34-6.59,6.39-10.29l6.59-11.39,6.48-12.5c1.15-2.12,2.17-4.36,3.19-6.61l3.14-6.84c2.21-4.57,4.06-9.42,6-14.3,1-2.45,2-4.9,2.95-7.4l2.65-7.64,2.68-7.73c.84-2.61,1.57-5.27,2.36-7.92l2.34-8c.82-2.66,1.35-5.41,2-8.12,1.28-5.45,2.74-10.87,3.67-16.42,2.26-11,3.84-22.13,5.08-33.11.47-5.51,1.06-11,1.41-16.36l.67-16c0-10.52.05-20.69-.66-30.31-.4-9.63-1.34-18.73-2.23-27.09-1.86-16.74-4.12-30.6-5.91-40.25-.89-4.83-1.65-8.61-2.18-11.19l-.83-3.95,4-.84.79,4c.5,2.6,1.23,6.42,2.06,11.29,1.69,9.74,3.81,23.72,5.49,40.58.8,8.44,1.64,17.57,1.93,27.29.61,9.7.45,20,.31,30.55l-.85,16.11c-.42,5.43-1.08,10.92-1.61,16.45-1.37,11-3.09,22.21-5.49,33.25-1,5.56-2.53,11-3.88,16.46-.73,2.72-1.3,5.47-2.15,8.13l-2.45,8c-.83,2.65-1.59,5.31-2.46,7.92l-2.78,7.73L892.36,725c-1,2.5-2,4.95-3,7.4-2,4.88-3.94,9.72-6.22,14.28l-3.23,6.82c-1.05,2.25-2.1,4.48-3.28,6.59L870,772.51l-6.74,11.34c-2.09,3.68-4.4,7-6.51,10.23s-4.09,6.3-6.08,9.09c-4.08,5.52-7.52,10.43-10.56,14.31Z"/>
      </g>
      <path class="cls-19" d="M756.83,897.29c-59.85,42.32-133,69.13-213.05,75a396.19,396.19,0,0,1-259.6-72.52,303.22,303.22,0,0,1,472.65-2.47Z"/>
      <path class="cls-18" d="M284.18,899.77,288,895c2.56-3,6-7.75,11.14-13.11,2.54-2.7,5.2-5.86,8.39-9l10.35-10.14,12.39-10.88c4.56-3.6,9.36-7.37,14.46-11.19,10.43-7.32,21.92-15.07,34.9-21.83l4.86-2.62,2.46-1.32,2.54-1.19,10.32-4.83,2.62-1.22,2.69-1.08,5.44-2.16c3.66-1.4,7.29-3,11.11-4.17l11.46-3.8c3.87-1.21,7.85-2.16,11.81-3.26l6-1.61,6.08-1.29c4.07-.82,8.15-1.75,12.28-2.5,8.3-1.19,16.64-2.68,25.12-3.23,8.44-1,17-1,25.49-1.34,4.37-.06,8.5.21,12.76.3l6.34.2,6.37.55c4.24.41,8.49.68,12.68,1.2l12.5,1.84c4.17.5,8.23,1.55,12.31,2.33s8.14,1.57,12.09,2.73l11.84,3.15c3.88,1.18,7.69,2.49,11.49,3.71l5.66,1.87,5.51,2.15c3.65,1.44,7.29,2.79,10.82,4.32,6.94,3.3,13.89,6.18,20.27,9.78,3.22,1.73,6.43,3.37,9.53,5.11l9,5.42,4.38,2.64,4.16,2.82,8.06,5.5c2.67,1.75,5.05,3.78,7.5,5.59l7.09,5.44,12.5,10.76,10.46,10c1.65,1.52,3.09,3.11,4.49,4.61l4,4.29c5.18,5.32,8.7,10,11.28,13l3.88,4.69-4.05-4.54c-2.67-2.93-6.39-7.41-11.69-12.6L737,876c-1.43-1.46-2.91-3-4.59-4.47l-10.68-9.69L709,851.47c-4.69-3.36-9.46-7.12-14.69-10.68l-8.09-5.32-4.17-2.72-4.38-2.55-9-5.23c-3.09-1.67-6.31-3.24-9.52-4.91-6.37-3.46-13.3-6.2-20.21-9.34-3.52-1.44-7.14-2.73-10.74-4.15l-5.45-2.09-5.61-1.82c-3.76-1.19-7.53-2.46-11.37-3.61l-11.71-3c-3.91-1.12-7.94-1.8-12-2.63s-8-1.76-12.16-2.23l-12.35-1.75c-4.13-.49-8.29-.73-12.45-1.11l-6.25-.51-6.34-.16c-4.2-.07-8.53-.31-12.62-.24-8.41.24-16.83.27-25.17,1.18-8.38.49-16.61,1.92-24.82,3.05-4.08.72-8.11,1.61-12.13,2.4l-6,1.24-5.91,1.55c-3.92,1.07-7.85,2-11.68,3.16l-11.35,3.69c-3.79,1.12-7.38,2.7-11,4.06l-5.4,2.09-2.68,1L401.16,812l-10.29,4.61-2.53,1.14L385.89,819,381,821.53c-13,6.48-24.48,14-34.95,21.07-5.13,3.7-9.94,7.4-14.57,10.85l-12.61,10.48-10.58,9.81c-3.26,3-6,6.1-8.59,8.72-5.24,5.22-8.91,9.77-11.56,12.72Z"/>
      <path class="cls-20" d="M374.66,917.94s3.14-3.81,8-9.37c2.41-2.79,5.22-6.06,8.3-9.49,1.53-1.72,3.1-3.51,4.75-5.28l1.23-1.34c.49-.46.4-.43.85-.82a11.69,11.69,0,0,1,1.18-.89,12.18,12.18,0,0,1,5.08-1.92,13,13,0,0,1,5.54.46,13.43,13.43,0,0,1,2.59,1.1l1.63.83c2.17,1.08,4.27,2.2,6.22,3.42a68.38,68.38,0,0,1,9.83,7.9c1.35,1.29,2.55,2.53,3.58,3.69s1.91,2.19,2.6,3.09a33,33,0,0,1,2.09,3l-.56.86a32.93,32.93,0,0,1-3.55-.73c-1.1-.27-2.41-.66-3.87-1.14s-3.09-1.08-4.81-1.8a68.38,68.38,0,0,1-11.18-5.84c-1.9-1.3-3.77-2.77-5.63-4.33l-1.41-1.16a4.4,4.4,0,0,0-.66-.55,3.44,3.44,0,0,0-1.66-.54,4.18,4.18,0,0,0-1.84.34c-.18.07-.25.11-.34.14s-.57.43-.54.36L400.65,899c-1.86,1.54-3.74,3-5.54,4.45-3.59,2.88-7,5.5-9.94,7.76-5.82,4.54-9.81,7.45-9.81,7.45Z"/>
      <path class="cls-20" d="M438.25,873.94s3.14-3.81,8-9.37c2.41-2.79,5.22-6.06,8.3-9.49,1.53-1.72,3.1-3.51,4.75-5.28l1.23-1.34c.49-.46.4-.43.85-.82a11.67,11.67,0,0,1,1.18-.89,12.18,12.18,0,0,1,5.08-1.92,13,13,0,0,1,5.54.46,13.39,13.39,0,0,1,2.59,1.1l1.63.83c2.17,1.08,4.27,2.2,6.22,3.42a68.38,68.38,0,0,1,9.83,7.9c1.35,1.29,2.55,2.53,3.58,3.69s1.91,2.19,2.6,3.09a33,33,0,0,1,2.09,3l-.56.86a33,33,0,0,1-3.55-.73c-1.1-.27-2.4-.66-3.87-1.14s-3.09-1.08-4.81-1.8a68.39,68.39,0,0,1-11.18-5.84c-1.9-1.3-3.77-2.77-5.63-4.33l-1.41-1.16a4.37,4.37,0,0,0-.66-.55,3.43,3.43,0,0,0-1.66-.54,4.17,4.17,0,0,0-1.84.34c-.18.07-.25.11-.34.14s-.57.43-.54.36L464.25,855c-1.86,1.54-3.74,3-5.54,4.45-3.59,2.88-7,5.5-9.94,7.76-5.82,4.54-9.81,7.45-9.81,7.45Z"/>
      <path class="cls-20" d="M596.14,906.59s3.91-3,9.89-7.35c3-2.18,6.45-4.74,10.21-7.39,1.88-1.33,3.81-2.73,5.81-4.09l1.5-1c.58-.34.49-.33,1-.6a11.64,11.64,0,0,1,1.34-.6,12.17,12.17,0,0,1,5.38-.74,13,13,0,0,1,5.3,1.68,13.43,13.43,0,0,1,2.27,1.65l1.4,1.17c1.88,1.54,3.67,3.1,5.3,4.73a68.35,68.35,0,0,1,7.81,9.9c1,1.56,1.92,3,2.66,4.39s1.37,2.56,1.84,3.59a33,33,0,0,1,1.37,3.35l-.74.71a33,33,0,0,1-3.3-1.5c-1-.51-2.2-1.18-3.52-2s-2.77-1.74-4.29-2.83a68.38,68.38,0,0,1-9.59-8.19c-1.56-1.69-3.05-3.54-4.52-5.48l-1.11-1.45a4.39,4.39,0,0,0-.52-.68,3.43,3.43,0,0,0-1.5-.9,4.17,4.17,0,0,0-1.87-.08c-.19,0-.27.05-.36.06s-.65.29-.6.23l-1.63.81c-2.16,1.09-4.32,2.1-6.39,3.09-4.15,2-8.07,3.79-11.42,5.34-6.69,3.12-11.22,5.07-11.22,5.07Z"/>
      <path class="cls-20" d="M485.37,926.08s3.43-3.55,8.72-8.7c2.63-2.59,5.69-5.62,9-8.79,1.67-1.59,3.38-3.25,5.16-4.88l1.33-1.24c.52-.42.44-.4.92-.74a11.67,11.67,0,0,1,1.24-.79,12.18,12.18,0,0,1,5.22-1.51,13,13,0,0,1,5.49.9,13.41,13.41,0,0,1,2.49,1.31l1.56,1c2.08,1.25,4.08,2.54,5.93,3.91a68.37,68.37,0,0,1,9.16,8.67c1.25,1.39,2.34,2.73,3.27,4s1.72,2.33,2.34,3.29a33,33,0,0,1,1.84,3.12l-.63.81a33,33,0,0,1-3.48-1c-1.08-.36-2.34-.85-3.77-1.45s-3-1.32-4.65-2.18A68.37,68.37,0,0,1,525.87,915c-1.79-1.44-3.53-3.06-5.26-4.77L519.3,909a4.46,4.46,0,0,0-.62-.6,3.43,3.43,0,0,0-1.61-.68,4.17,4.17,0,0,0-1.86.19c-.18.06-.26.09-.35.11s-.6.38-.56.32l-1.5,1c-2,1.39-4,2.7-5.88,4-3.81,2.59-7.44,4.92-10.53,6.93-6.17,4.05-10.37,6.64-10.37,6.64Z"/>
      <path class="cls-20" d="M535.66,871.41s3.43-3.55,8.72-8.7c2.63-2.59,5.69-5.62,9-8.79,1.67-1.59,3.38-3.25,5.16-4.88l1.33-1.24c.52-.42.44-.4.92-.74a11.73,11.73,0,0,1,1.24-.79,12.19,12.19,0,0,1,5.22-1.51,13,13,0,0,1,5.49.9,13.41,13.41,0,0,1,2.49,1.31l1.56,1c2.08,1.25,4.08,2.54,5.93,3.91a68.38,68.38,0,0,1,9.16,8.67c1.25,1.39,2.34,2.73,3.27,4s1.72,2.34,2.34,3.29a33,33,0,0,1,1.84,3.12l-.63.82a33.13,33.13,0,0,1-3.48-1c-1.08-.36-2.34-.85-3.77-1.45s-3-1.32-4.65-2.18a68.37,68.37,0,0,1-10.67-6.72c-1.79-1.44-3.53-3.06-5.26-4.77l-1.31-1.27a4.44,4.44,0,0,0-.62-.6,3.44,3.44,0,0,0-1.61-.68,4.17,4.17,0,0,0-1.86.19c-.18.06-.26.09-.35.11s-.6.38-.56.32l-1.5,1c-2,1.39-4,2.7-5.88,4-3.81,2.59-7.44,4.92-10.53,6.93-6.17,4.05-10.37,6.64-10.37,6.64Z"/>
      <g>
        <path class="cls-20" d="M765.82,696.94s3.73-1.82,9.48-4c2.87-1.13,6.24-2.35,9.88-3.59,1.82-.6,3.69-1.27,5.62-1.85l5.84-1.8,5.88-1.67c1.93-.57,3.87-1,5.72-1.51,3.72-1,7.22-1.76,10.24-2.37,6-1.27,10.15-1.77,10.15-1.77s-3.73,1.83-9.47,4c-2.87,1.13-6.24,2.36-9.88,3.59-1.82.6-3.69,1.28-5.62,1.85l-5.84,1.8-5.88,1.67c-1.93.56-3.87,1-5.72,1.51-3.72.95-7.22,1.76-10.24,2.37C769.94,696.44,765.82,696.94,765.82,696.94Z"/>
        <path class="cls-20" d="M769.3,719s3.79-1,9.52-1.92c2.86-.49,6.21-1,9.8-1.4,1.8-.19,3.65-.45,5.54-.61l5.73-.52,5.74-.38c1.89-.15,3.76-.17,5.57-.26,3.61-.14,7-.18,9.9-.14,5.8,0,9.7.43,9.7.43s-3.79,1-9.52,1.93c-2.86.49-6.21,1-9.8,1.4-1.8.19-3.65.46-5.54.61l-5.73.52-5.74.38c-1.89.14-3.76.17-5.57.26-3.61.13-7,.18-9.9.14C773.2,719.37,769.3,719,769.3,719Z"/>
        <path class="cls-20" d="M766.89,742.23s3.83.26,9.43,1.17c2.81.44,6.06,1,9.53,1.76,1.73.38,3.53.72,5.33,1.16l5.47,1.31,5.44,1.45c1.8.46,3.54,1,5.24,1.51,3.39,1,6.54,2,9.22,3,5.37,1.86,8.85,3.46,8.85,3.46s-3.83-.25-9.43-1.16c-2.81-.44-6.06-1-9.53-1.76-1.73-.38-3.53-.71-5.33-1.17l-5.47-1.31-5.44-1.45c-1.8-.46-3.54-1-5.24-1.51-3.39-1-6.54-2-9.22-3C770.38,743.83,766.89,742.23,766.89,742.23Z"/>
      </g>
      <g>
        <path class="cls-20" d="M266.38,692.79s-4.15,0-10.28-.66c-3.07-.28-6.63-.7-10.43-1.24-1.9-.29-3.87-.53-5.85-.88l-6-1-6-1.16c-2-.36-3.91-.83-5.79-1.22-3.75-.82-7.24-1.68-10.21-2.49-6-1.57-9.86-3-9.86-3s4.15,0,10.28.66c3.07.28,6.63.7,10.43,1.24,1.9.29,3.87.52,5.85.88l6,1,6,1.16c2,.37,3.91.83,5.79,1.23,3.75.83,7.23,1.68,10.21,2.49C262.48,691.38,266.38,692.79,266.38,692.79Z"/>
        <path class="cls-20" d="M265.32,715.07s-3.83.81-9.6,1.48c-2.88.36-6.25.68-9.85.94-1.8.11-3.67.28-5.56.35l-5.75.25-5.75.11c-1.9.06-3.77,0-5.57,0-3.62,0-7-.15-9.89-.32-5.8-.31-9.67-.88-9.67-.88s3.83-.81,9.6-1.49c2.88-.36,6.25-.68,9.85-.94,1.8-.11,3.67-.29,5.56-.35l5.75-.25,5.75-.11c1.9-.05,3.77,0,5.58,0,3.62,0,7,.15,9.89.32C261.45,714.51,265.32,715.07,265.32,715.07Z"/>
        <path class="cls-20" d="M270.25,737.93s-3.29,2-8.42,4.4c-2.56,1.24-5.57,2.6-8.84,4-1.64.67-3.31,1.41-5,2.07l-5.25,2-5.3,1.9c-1.74.65-3.49,1.17-5.17,1.74-3.36,1.1-6.53,2-9.28,2.78-5.47,1.52-9.25,2.18-9.25,2.18s3.29-2,8.42-4.4c2.56-1.24,5.57-2.6,8.84-4,1.64-.67,3.31-1.42,5-2.07l5.25-2,5.3-1.9c1.74-.64,3.49-1.17,5.17-1.74,3.36-1.1,6.53-2,9.28-2.78C266.48,738.6,270.25,737.93,270.25,737.93Z"/>
      </g>
      <path class="cls-10" d="M841.72,533.74C837.82,651.24,692,725.85,518.07,730.28c-178.18,4.53-320.49-76.83-323.84-198.56-.08,3.33-.1,6.66,0,10,3.09,121.89,150.21,217,328.55,212.49s322.13-97.12,319-219C841.77,534.69,841.74,534.22,841.72,533.74Z"/>
      <path class="cls-18" d="M738.68,356.35s2.37,1,5.78,2.89a118.31,118.31,0,0,1,12,7.63,115,115,0,0,1,10.95,9c2.81,2.67,4.52,4.62,4.52,4.62s-.55-.35-1.47-1l-3.81-2.7-11.41-8.27-11.39-8.3-3.73-2.8C739.18,356.76,738.68,356.35,738.68,356.35Z"/>
      <path class="cls-18" d="M824.66,452.13c.24.33.48.65.71,1s.43.65.66,1c.39.7.77,1.41,1.11,2.12q1.05,2.15,1.91,4.36c.59,1.47,1.12,3,1.58,4.49a46.57,46.57,0,0,1,1.28,4.63l.1.13v0l-.08,0-.06-.13c.12.72.19,1.41.24,2.14-.39-.63-.75-1.94-1.07-1.94h0l0-.1h0l0,.16a46.37,46.37,0,0,1-2.13-4.28q-1-2.18-1.75-4.42t-1.42-4.54c-.21-.77-.39-1.55-.56-2.33l-.27-1.15C824.8,452.94,824.73,452.53,824.66,452.13Z"/>
      <path class="cls-21" d="M841.72,537.86c-3.91,117.5-145,205.72-319,210.15-178.18,4.53-325.19-90.44-328.53-212.17-.08,3.33-.1,6.66,0,10,3.09,121.89,150.21,217,328.55,212.49s322.13-97.12,319-219C841.77,538.81,841.74,538.34,841.72,537.86Z"/>
      <path class="cls-18" d="M711.2,342.1l-4-1.76c-2.64-1.14-6.67-2.69-11.89-4.71a343.77,343.77,0,0,0-46.68-13c-10.22-2.15-21.6-4.23-34.06-6.1s-26-3.38-40.49-4.54-30-1.78-46.28-1.87-33.48.69-51.3,2.08-36.37,3.6-55.37,6.85A494.27,494.27,0,0,0,363,332.34l-7.37,2.23-7.34,2.49c-4.93,1.6-9.79,3.51-14.68,5.41l-3.67,1.42-3.63,1.56L319,348.59c-2.41,1.11-4.78,2.32-7.18,3.47s-4.82,2.3-7.14,3.65A232.32,232.32,0,0,0,252,394.57a198.11,198.11,0,0,0-39,55.27c-1.2,2.61-2.26,5.29-3.4,7.93l-1.69,4c-.55,1.33-1,2.72-1.46,4.08L203.6,474c-.82,2.78-1.55,5.59-2.33,8.39l-1.15,4.21-.88,4.28-1.74,8.58-1.19,8.7c-.18,1.45-.42,2.9-.54,4.36l-.3,4.39c-1.88,23.38.54,47.43,9,69.65a175.57,175.57,0,0,0,7,16.36l4.2,7.86c1.35,2.65,3.07,5.09,4.58,7.64a192.9,192.9,0,0,0,21.61,28.34l3,3.32,3.15,3.16c2.12,2.09,4.15,4.26,6.34,6.27,4.41,4,8.77,8,13.45,11.72,4.52,3.86,9.4,7.28,14.15,10.84,2.41,1.73,4.91,3.33,7.36,5s4.91,3.32,7.47,4.82l7.59,4.63c2.56,1.48,5.18,2.88,7.76,4.32,5.12,3,10.5,5.44,15.76,8.11,2.64,1.32,5.37,2.45,8,3.68s5.34,2.49,8.09,3.54c5.47,2.16,10.86,4.5,16.41,6.38a414.92,414.92,0,0,0,67.17,18.16,458.58,458.58,0,0,0,67.57,7A510.89,510.89,0,0,0,623,735.45c39.87-9.21,76.4-23.07,107.44-40.69S786.85,655.7,804.87,633a166.59,166.59,0,0,0,32.75-66.78l.47-1.88.33-1.88.64-3.69.62-3.59.3-1.75.17-1.74c.38-4.62,1-8.94,1-13a175.12,175.12,0,0,0-.43-20.59c-.42-5.58-.94-9.85-1.32-12.72l-.61-4.35a.21.21,0,0,1,.18-.23.21.21,0,0,1,.23.18l.69,4.34c.44,2.87,1,7.13,1.56,12.72a176.06,176.06,0,0,1,.81,20.68c.14,4.09-.45,8.45-.75,13.12l-.14,1.76-.27,1.78-.56,3.63-.58,3.74-.3,1.91-.44,1.91C835,587.13,825.08,611.47,807,634.66c-17.92,23.28-43.53,45.21-74.78,63.22s-68,32.41-108.29,41.67a494.45,494.45,0,0,1-62.66,10.26c-5.38.64-10.84.94-16.31,1.36s-10.95.61-16.45.86-11.13.27-16.68.31-11.19-.14-16.82-.29a462.75,462.75,0,0,1-68.16-7.38A410.21,410.21,0,0,1,359.13,726c-5.59-2-11-4.36-16.51-6.6-2.77-1.08-5.42-2.44-8.13-3.65s-5.43-2.44-8.08-3.79c-5.28-2.75-10.68-5.3-15.83-8.34-2.59-1.48-5.22-2.91-7.79-4.43l-7.62-4.74c-2.57-1.54-5-3.24-7.5-4.94s-5-3.35-7.39-5.12c-4.77-3.64-9.65-7.14-14.18-11.08-4.69-3.75-9.05-7.89-13.47-12-2.19-2.05-4.23-4.27-6.35-6.4l-3.15-3.22-3-3.39a195,195,0,0,1-21.54-28.85c-1.51-2.6-3.21-5.08-4.55-7.77l-4.16-8c-2.44-5.47-5-10.9-6.89-16.59a150.34,150.34,0,0,1-8.32-34.78,84.6,84.6,0,0,1-.79-8.87c-.16-2.93-.45-5.93-.33-8.9l.07-8.88c.08-3,.39-5.9.57-8.85l.32-4.42c.13-1.47.38-2.92.56-4.39l1.16-8.75,1.71-8.65.87-4.31L200,482.1c.77-2.82,1.49-5.66,2.3-8.46l2.82-8.28c.49-1.37.9-2.77,1.45-4.12l1.68-4c1.14-2.67,2.2-5.38,3.39-8A205.91,205.91,0,0,1,250.43,393l6-5.89,3-2.93,3.19-2.72L269,376c2.09-1.84,4.43-3.38,6.62-5.08l6.67-5,6.87-4.47c2.32-1.47,4.49-3,6.92-4.42l7.1-4c19-10.6,39-18.05,58.73-24.09,39.57-12,78.43-17.46,114.26-20.19,18-1.31,35.16-2,51.58-1.84s31.94,1.05,46.49,2.33,28.11,3.09,40.6,5,23.88,4.22,34.09,6.62a344.92,344.92,0,0,1,46.59,14c5.19,2.13,9.16,3.75,11.82,5l4,1.84a.21.21,0,0,1,.1.27A.21.21,0,0,1,711.2,342.1Z"/>
      <path class="cls-18" d="M838,495.69a18,18,0,0,1-1-2.19,30.92,30.92,0,0,1-2.3-10.14,16.56,16.56,0,0,1,0-2.42,13.58,13.58,0,0,1,1.15,2.16,30.92,30.92,0,0,1,2.29,10.14,13.4,13.4,0,0,1,0,1.77C838.07,495.44,838,495.69,838,495.69Z"/>
      <path class="cls-18" d="M813.46,430.25s-.37-.44-1-1.23L810,425.73l-7.33-10-7.25-10.1-2.34-3.39c-.56-.82-.87-1.31-.87-1.31s1.74,1.49,4.12,4a94.75,94.75,0,0,1,8,9.64A93.78,93.78,0,0,1,811,425.1C812.59,428.13,813.46,430.25,813.46,430.25Z"/>
      <g>
        <polyline class="cls-17" points="484.38 295.45 475.1 335.67 509.13 301.63"/>
        <path class="cls-18" d="M484.38,295.45c-.56,3.4-1.24,6.77-1.86,10.16l-2,10.12c-1.35,6.75-2.86,13.46-4.38,20.17l-1.71-.95q8.48-8.54,17.14-16.89l8.72-8.29c3-2.72,5.87-5.47,8.88-8.13-2.66,3-5.41,5.93-8.13,8.88l-8.29,8.72q-8.35,8.67-16.89,17.14l-2.52,2.5.81-3.45c1.58-6.7,3.16-13.39,4.9-20l2.59-10C482.53,302.08,483.4,298.75,484.38,295.45Z"/>
      </g>
      <g>
        <polyline class="cls-17" points="533.88 293.39 523.57 331.54 499.85 293.39"/>
        <path class="cls-18" d="M533.88,293.39c-.65,3.24-1.41,6.44-2.12,9.66s-1.54,6.41-2.31,9.61c-1.53,6.41-3.21,12.78-4.9,19.15l-.6,2.26-1.25-2q-6-9.52-11.7-19.18l-5.67-9.7c-1.83-3.27-3.71-6.51-5.48-9.82,2.18,3.05,4.26,6.17,6.38,9.26l6.19,9.38q6.13,9.41,12,19l-1.85.27c1.75-6.35,3.5-12.7,5.41-19,1-3.15,1.87-6.32,2.85-9.47S532.81,296.51,533.88,293.39Z"/>
      </g>
      <path class="cls-9" d="M548.92,595.29c.49,6.82-31.34,14.65-31.34,14.65s-32.63-3.21-33.11-10,13.54-13.38,31.34-14.65S548.43,588.47,548.92,595.29Z"/>
      <path class="cls-17" d="M830.87,40.74,724.2,154.53a17.18,17.18,0,0,0-.16,25.58l4.7,4.27A17.16,17.16,0,0,1,734.33,198l-29.51-5.37a1.93,1.93,0,0,0-1.63,3.35c4.5,4,11.12,9.51,16.14,12.55a18.66,18.66,0,0,1,6.3,6.17l-21.48,29.62a19.46,19.46,0,0,0-3.7,12l.13,4.26a19.46,19.46,0,0,0,10.75,16.81h0a19.46,19.46,0,0,0,18.18-.41l9.25-5.16a19.46,19.46,0,0,0,4.86-3.83l24-26.11,25.19,8.4a1.93,1.93,0,0,0,2.09-3.09c-3.89-4.55-9.67-11-14.21-14.7a19.77,19.77,0,0,1-2.35-2.27l2.07-2.26a17.18,17.18,0,0,1,18.69-4.46l15.24,5.72A17.18,17.18,0,0,0,837,217.46L887.59,76.83C910.27,28.36,876.24-4.64,830.87,40.74Z"/>
      <path class="cls-17" d="M166.27,55.17,272.94,169a17.18,17.18,0,0,1,.16,25.58l-4.7,4.27a17.16,17.16,0,0,0-5.59,13.65l29.51-5.37a1.93,1.93,0,0,1,1.63,3.35c-4.5,4-11.12,9.51-16.14,12.55a18.66,18.66,0,0,0-6.3,6.17L293,258.79a19.46,19.46,0,0,1,3.7,12l-.13,4.26a19.46,19.46,0,0,1-10.75,16.81h0a19.46,19.46,0,0,1-18.18-.41l-9.25-5.16a19.46,19.46,0,0,1-4.86-3.83l-24-26.11-25.19,8.4a1.93,1.93,0,0,1-2.09-3.09c3.89-4.55,9.67-11,14.21-14.7a19.77,19.77,0,0,0,2.35-2.27l-2.07-2.26A17.18,17.18,0,0,0,198,238L182.8,243.7a17.18,17.18,0,0,1-22.68-11.81L109.55,91.27C86.87,42.8,120.9,9.8,166.27,55.17Z"/>
      <path class="cls-18" d="M914.26,564.26c-.63-7.51-1.33-15-2.23-22.49s-1.89-14.94-3.08-22.38-2.52-14.85-4-22.24-3.1-14.73-4.91-22-3.74-14.58-5.84-21.8-4.4-14.39-6.81-21.51-5-14.2-7.82-21.15-5.76-13.9-8.81-20.76L866,379.71l-5.11-10c-1.67-3.37-3.59-6.6-5.38-9.9s-3.72-6.52-5.65-9.75L847,345.18l-3-4.74c-2-3.15-4-6.35-6.19-9.41s-4.22-6.21-6.47-9.22l-6.74-9L817.46,304c-2.38-2.9-4.9-5.69-7.33-8.54s-5.06-5.54-7.58-8.31-5.18-5.42-7.85-8.06l-4-4c-1.35-1.3-2.75-2.55-4.12-3.83-2.78-2.52-5.46-5.14-8.36-7.53s-5.66-4.92-8.61-7.24l-8.84-7-1.42-1.11,1.2-1.31,5.82-6.36.72-.79,1,.34,13.13,4.36,6.56,2.18,3.28,1.09,1.64.54.41.14.1,0,.05,0h0l-.12,0h0l.21.05.1,0,0,0h-.07s0,0,0,0,.26-.29.16-.32,0,0,0-.06l-.26-.3-.56-.65-1.13-1.29q-2.26-2.58-4.61-5.07c-1.56-1.66-3.16-3.28-4.81-4.82-.83-.76-1.66-1.52-2.51-2.22l-.27-.23-.16-.15-.31-.3-.62-.6-1.24-1.2-1.21-1.17,1.14-1.25,1.45-1.58.77-.83.75-.76a19.46,19.46,0,0,1,3.84-2.82,18.81,18.81,0,0,1,13.71-1.85,21.24,21.24,0,0,1,2.25.69l2,.75,8,3,4,1.5,1,.37.93.29a10.88,10.88,0,0,0,1.89.46,14.66,14.66,0,0,0,7.53-.56,15.07,15.07,0,0,0,6.38-4.1,14.48,14.48,0,0,0,2.23-3.09,16.68,16.68,0,0,0,1.41-3.55l0-.13v0L886,76.25l0-.07,0-.07a82.83,82.83,0,0,0,5.58-15.82A51.4,51.4,0,0,0,893,43.77a35.63,35.63,0,0,0-1.65-8,26.07,26.07,0,0,0-3.74-7.13,21.48,21.48,0,0,0-5.93-5.26,22.11,22.11,0,0,0-7.55-2.51,32.56,32.56,0,0,0-16.07,2.42,65.57,65.57,0,0,0-14.57,8.26,105.16,105.16,0,0,0-12.7,11.16L819,55.18l-94.24,99.88-.05.05a19.07,19.07,0,0,0-2,2.2,9.74,9.74,0,0,0-.87,1.23,8.57,8.57,0,0,0-.76,1.3,15.9,15.9,0,0,0-1.14,2.78,15.83,15.83,0,0,0-.67,6,15.48,15.48,0,0,0,.49,3,8.57,8.57,0,0,0,.44,1.44,10,10,0,0,0,.57,1.39,17.58,17.58,0,0,0,1.51,2.6,17.77,17.77,0,0,0,2,2.27c.71.72,1.54,1.42,2.3,2.13l2.33,2.12c.39.35.79.74,1.16,1.1s.76.82,1.1,1.25A17.94,17.94,0,0,1,735,198.07l0,.8-.78-.14-15.83-2.91-7.92-1.45-4-.73c-.64-.11-1.37-.27-1.93-.34a1.22,1.22,0,0,0-1.14.53,1.28,1.28,0,0,0-.13,1.26c.11.35.73.76,1.22,1.22l3,2.62c2,1.73,4.12,3.41,6.24,5q1.59,1.22,3.23,2.35c1.1.78,2.19,1.44,3.36,2.18a19.22,19.22,0,0,1,5.79,5.9l.22.36-.25.35-5.06,7-.32.45-.51-.25L707.41,216l-13.13-5.68-13.37-5.1-13.57-4.55-13.73-4c-4.6-1.27-9.24-2.38-13.86-3.58-9.29-2.2-18.62-4.22-28-5.88-4.68-.94-9.41-1.6-14.12-2.34-2.36-.35-4.71-.75-7.08-1.07l-7.1-.88-7.1-.88-7.13-.69c-4.75-.45-9.5-.94-14.26-1.19-9.52-.69-19.06-1.05-28.6-1.21-4.77,0-9.54-.13-14.31,0s-9.54.17-14.3.44-9.53.49-14.27.9-9.54.77-14.27,1.33c-9.47,1-18.94,2.22-28.37,3.71-4.71.77-9.43,1.47-14.11,2.39s-9.38,1.72-14,2.76-9.33,2-14,3.13l-7,1.67-6.91,1.84-6.9,1.86-6.85,2-6.84,2.06-6.79,2.24c-4.54,1.44-9,3.08-13.49,4.72s-8.9,3.39-13.33,5.15c-8.84,3.56-17.52,7.49-26.07,11.66-4.29,2.06-8.46,4.37-12.69,6.54s-8.28,4.69-12.42,7l-1.39.78-.92-1.26-7.08-9.71-.7-1,.63-1a20.4,20.4,0,0,1,6.1-6.28c1.24-.8,2.27-1.42,3.34-2.18s2.13-1.52,3.18-2.33c2.1-1.6,4.16-3.28,6.19-5l3-2.6.75-.66.09-.08,0,0h0l-.1.1,0,0,.17-.18c0-.06-.1.13-.08.08s0,0,0-.06,0,0,0,0l-1.81.32-4,.73L279,211.44l-15.84,2.9-2.13.39-.12-2.17a19.15,19.15,0,0,1,4.19-13,20.46,20.46,0,0,1,2.38-2.48l2.33-2.12c.73-.68,1.65-1.47,2.24-2.07.35-.37.77-.76,1.08-1.12l.81-1a16.41,16.41,0,0,0,1.39-2.41,9.05,9.05,0,0,0,.53-1.29,7.61,7.61,0,0,0,.41-1.33,14.28,14.28,0,0,0,.45-2.75,14.61,14.61,0,0,0-.62-5.52,14.69,14.69,0,0,0-1.06-2.57,7.65,7.65,0,0,0-.7-1.2,8.71,8.71,0,0,0-.81-1.14,17.93,17.93,0,0,0-1.9-2l-.13-.13-94-100.06L165.7,57.75,165,57c-.09-.09-.33-.35-.29-.3l-.39-.37-1.55-1.48c-1-1-2.06-2-3.12-2.89l-3.15-2.71-3.31-2.56a64.77,64.77,0,0,0-14.35-8.22A31.85,31.85,0,0,0,123.1,36a21.42,21.42,0,0,0-7.32,2.39A20.84,20.84,0,0,0,110,43.45a25.46,25.46,0,0,0-3.68,6.94,35,35,0,0,0-1.65,7.88A50.87,50.87,0,0,0,106,74.61a80.93,80.93,0,0,0,5.5,15.75l0,.1,0,.09,50.5,140.66,0,0,0,.14a16.44,16.44,0,0,0,1.39,3.5,14.26,14.26,0,0,0,2.19,3.05A14.87,14.87,0,0,0,172,242a14.47,14.47,0,0,0,7.46.56,11.1,11.1,0,0,0,1.84-.45c.58-.16,1.24-.4,1.92-.66l4-1.49,8-3a37.64,37.64,0,0,1,4.24-1.43,19,19,0,0,1,13.84,1.88,19.74,19.74,0,0,1,3.82,2.81c1.18,1.16,2,2.15,3,3.23l1.23,1.32-1.2,1.16c-.89.86-1.83,1.79-2.7,2.58s-1.67,1.44-2.52,2.22c-1.64,1.54-3.24,3.15-4.81,4.81s-3.1,3.35-4.61,5.06l-1.13,1.29-.56.65-.14.16-.07.08,0,0h0l.08-.11,0,0c0,.07-.26.34-.15.23s0,0,0,0,.09.12.11.11-.06,0,.68-.2l1.64-.54,3.28-1.08,6.57-2.17L229,254.77l1-.34.73.8,9.42,10.32,1.13,1.24L240,267.93l-8.68,7.65c-2.9,2.54-5.82,5.08-8.53,7.82q-8.26,8.12-15.88,16.86-3.8,4.37-7.45,8.88c-2.34,3-4.68,6.16-7,9.23-4.85,6.1-9,12.6-13.26,19-2.22,3.15-4.08,6.55-6.06,9.87l-5.86,10L162,367.55l-2.67,5.15c-.9,1.71-1.62,3.51-2.45,5.26l-4.79,10.57c-.83,1.75-1.57,3.54-2.25,5.35l-2.13,5.4c-1.39,3.61-2.89,7.18-4.19,10.82l-3.72,11-1.86,5.5c-.59,1.84-1.08,3.72-1.63,5.57l-3.2,11.16c-1.13,3.7-1.86,7.52-2.81,11.27s-1.84,7.52-2.65,11.31l-2.2,11.41c-.75,3.8-1.52,7.6-2,11.44-1.12,7.66-2.45,15.31-3.14,23L119,523.33l-.81,11.6c-.22,3.87-.63,7.73-.68,11.61l-.33,11.63L117,564l.06,5.82.12,11.63c.16,7.75.69,15.5,1,23.25l-.41,0c-.41-7.75-1-15.5-1.28-23.26l-.25-11.65-.12-5.82.1-5.82.2-11.65c0-3.89.38-7.76.56-11.64l.68-11.64,1.13-11.6c.61-7.75,1.85-15.43,2.9-23.14.47-3.86,1.21-7.68,1.91-11.5l2.13-11.47c.79-3.81,1.73-7.58,2.59-11.37s1.64-7.61,2.75-11.34l3.15-11.24c.54-1.87,1-3.75,1.6-5.61l1.84-5.54,3.68-11.08c1.29-3.67,2.77-7.27,4.15-10.91l2.11-5.45c.68-1.82,1.41-3.63,2.23-5.39l4.76-10.67c.82-1.77,1.54-3.58,2.43-5.31l2.66-5.2L165,356l5.85-10.12c2-3.36,3.83-6.79,6.06-10,4.31-6.51,8.48-13.15,13.26-19.24,2.35-3.12,4.58-6.21,7-9.35s4.92-6.05,7.46-9q7.64-8.86,15.94-17.13c2.73-2.8,5.66-5.37,8.58-8l8.74-7.8-.16,2.38-9.49-10.26,1.78.46L217,262.39l-6.55,2.21-3.28,1.1-1.64.55a9.25,9.25,0,0,1-1,.31,3.57,3.57,0,0,1-1.65,0,3.71,3.71,0,0,1-2.35-5.37,3.56,3.56,0,0,1,.32-.49l.37-.45.57-.66,1.14-1.32q2.29-2.63,4.67-5.19c1.59-1.7,3.23-3.38,4.94-5,.84-.79,1.79-1.65,2.66-2.37l2.29-2.21,0,2.48c-1-1-2-2.19-2.85-3a16,16,0,0,0-3.08-2.23,15.16,15.16,0,0,0-11-1.45,34,34,0,0,0-3.86,1.33l-8,3-4,1.52c-.65.25-1.33.51-2.12.74a14.82,14.82,0,0,1-2.31.58,18.45,18.45,0,0,1-9.44-.66,18.9,18.9,0,0,1-8-5.09,18.32,18.32,0,0,1-2.81-3.87,20.53,20.53,0,0,1-1.78-4.44l.06.18L107.54,92l.08.18a85.18,85.18,0,0,1-5.81-16.6,55.12,55.12,0,0,1-1.4-17.72A39.3,39.3,0,0,1,102.27,49a29.76,29.76,0,0,1,4.33-8.16,25.15,25.15,0,0,1,7-6.19,25.74,25.74,0,0,1,8.89-2.93,36.12,36.12,0,0,1,17.87,2.69,69.09,69.09,0,0,1,15.36,8.76l3.48,2.69,3.35,2.89c1.15,1,2.12,2,3.17,2.95l1.55,1.48.39.37c.3.3.29.31.46.47l.73.78L180.6,67.31l93.78,100.31-.13-.13a21.74,21.74,0,0,1,2.38,2.57,12,12,0,0,1,1,1.43,10.77,10.77,0,0,1,.88,1.52,18.62,18.62,0,0,1,1.33,3.25,18.53,18.53,0,0,1,.76,6.94,18.17,18.17,0,0,1-.58,3.45,10.68,10.68,0,0,1-.52,1.67,12.37,12.37,0,0,1-.67,1.62,20.25,20.25,0,0,1-1.77,3l-1.15,1.44c-.38.43-.74.76-1.11,1.15-.89.89-1.59,1.46-2.39,2.21l-2.34,2.12a16.52,16.52,0,0,0-2,2,15.31,15.31,0,0,0-3.38,10.42l-2.25-1.77,15.84-2.86,7.92-1.43,4-.72,1-.18.49-.09a6,6,0,0,1,.67-.1,3.8,3.8,0,0,1,3.78,5.36,3.84,3.84,0,0,1-.61.93l-.17.18-.2.2-.1.08-.76.67-3.08,2.63c-2.08,1.74-4.19,3.44-6.36,5.08q-1.63,1.23-3.33,2.4c-1.12.79-2.39,1.56-3.41,2.2a16.79,16.79,0,0,0-5.06,5.15l-.07-2,7,9.75-2.31-.48c4.2-2.34,8.35-4.75,12.58-7s8.5-4.47,12.84-6.53c8.66-4.16,17.43-8.07,26.35-11.61,4.47-1.75,8.91-3.56,13.45-5.12s9-3.25,13.61-4.68l6.84-2.22,6.9-2,6.9-2,7-1.83,7-1.81,7-1.64c4.66-1.14,9.35-2.11,14-3.07s9.41-1.84,14.12-2.69,9.45-1.58,14.19-2.32c9.47-1.44,19-2.6,28.53-3.57,4.77-.53,9.53-.82,14.3-1.25s9.57-.55,14.36-.84,9.58-.25,14.37-.39,9.58,0,14.37.05c9.58.2,19.15.59,28.71,1.33,4.78.27,9.55.78,14.31,1.25l7.15.72,7.13.91,7.13.91c2.37.33,4.73.74,7.1,1.1,4.73.76,9.47,1.44,14.16,2.4,9.43,1.7,18.78,3.76,28.09,6,4.63,1.22,9.29,2.35,13.9,3.65l13.77,4.11,13.61,4.62L694.82,209,708,214.74l12.87,6.41-.83.19,5.09-7,0,.71a18,18,0,0,0-5.38-5.53c-1.1-.7-2.3-1.42-3.39-2.2s-2.21-1.56-3.28-2.38c-2.15-1.63-4.24-3.32-6.31-5.05l-3.07-2.62-.76-.66a2.87,2.87,0,0,1-.79-1,2.59,2.59,0,0,1,.24-2.56,2.55,2.55,0,0,1,2.34-1.08c.77.1,1.35.23,2,.35l4,.72,7.92,1.43,15.84,2.86-.83.65A16.51,16.51,0,0,0,730,186.75a17.73,17.73,0,0,0-2.11-2.18l-2.34-2.12c-.78-.72-1.56-1.38-2.33-2.15a17.06,17.06,0,0,1-3.82-5.3,11.31,11.31,0,0,1-.63-1.52,9.69,9.69,0,0,1-.49-1.57,17,17,0,0,1-.54-3.24,17.34,17.34,0,0,1,.71-6.5,17.42,17.42,0,0,1,1.24-3,9.8,9.8,0,0,1,.82-1.42,11,11,0,0,1,.95-1.34,20.53,20.53,0,0,1,2.23-2.41l-.05,0L817.22,53.51l11.69-12.57a107.61,107.61,0,0,1,13-11.57A68.27,68.27,0,0,1,857,20.65a35.39,35.39,0,0,1,17.49-2.71,25.08,25.08,0,0,1,8.65,2.82,24.52,24.52,0,0,1,6.87,6,29.16,29.16,0,0,1,4.27,8,38.74,38.74,0,0,1,1.87,8.74A54.61,54.61,0,0,1,894.86,61a83.35,83.35,0,0,1-5.73,16.52l.06-.15L838.74,218.08l.05-.16A20.31,20.31,0,0,1,837,222.3a18.1,18.1,0,0,1-2.77,3.83,18.7,18.7,0,0,1-7.89,5,18.25,18.25,0,0,1-9.37.66,15,15,0,0,1-2.26-.56l-1.11-.36-1-.38-4-1.51-8-3-2-.75a17.46,17.46,0,0,0-1.85-.57,15.3,15.3,0,0,0-11.17,1.48,16.26,16.26,0,0,0-3.06,2.22l-.76.76-.68.74-1.45,1.58-.07-2.42,2.39,2.31c.93.76,1.8,1.56,2.67,2.37,1.71,1.62,3.35,3.29,4.94,5s3.15,3.43,4.68,5.18l1.14,1.32.56.66.3.36a3.77,3.77,0,0,1,.43.66,3.64,3.64,0,0,1-2.34,5.16,3.72,3.72,0,0,1-.82.11l-.5,0-.25,0-.11,0-.21-.05-.34-.11-.41-.14-1.64-.55-3.28-1.1-6.56-2.2-13.12-4.39,1.74-.45L763,249.39l-.22-2.42,8.91,7c3,2.36,5.78,4.9,8.67,7.34s5.62,5.07,8.42,7.62c1.38,1.29,2.79,2.56,4.15,3.88l4,4c2.68,2.67,5.37,5.34,7.9,8.16s5.21,5.49,7.63,8.41,5,5.72,7.34,8.66l7.05,8.9,6.73,9.14c2.24,3,4.3,6.23,6.45,9.33s4.13,6.33,6.17,9.52l3,4.8,2.87,4.89c1.92,3.26,3.86,6.5,5.62,9.85s3.68,6.6,5.34,10l5.07,10.14L872.9,389c3,6.93,6,13.88,8.71,20.92s5.28,14.16,7.71,21.31,4.58,14.39,6.6,21.67,3.92,14.58,5.6,21.94,3.23,14.74,4.66,22.15,2.63,14.86,3.7,22.32,2,14.95,2.82,22.45,1.42,15,2,22.53Z"/>
      <g>
        <path class="cls-17" d="M225.26,278.85C142.43,358.07,109,481.46,118,604.69"/>
        <path class="cls-18" d="M225.26,278.85,214.93,290l-2.61,2.8a39.51,39.51,0,0,0-2.77,3.15l-5.93,7.32c-2.1,2.62-4.4,5.36-6.7,8.34l-6.9,9.67c-5,6.58-9.54,14.34-14.56,22.36l-1.88,3-1.71,3.19-3.49,6.5c-2.29,4.41-4.94,8.75-7,13.49l-6.7,14.22c-2.09,4.88-4,9.91-6.06,14.93-1,2.53-2.11,5-3,7.6L143,414.41l-2.64,7.8-1.31,3.91-1.11,4L133.37,446c-1.36,5.31-2.53,10.66-3.79,15.93-.59,2.65-1.29,5.26-1.79,7.9l-1.44,7.89c-.9,5.24-2,10.38-2.7,15.5-1.28,10.25-2.95,20.12-3.64,29.59-.43,4.72-.92,9.31-1.27,13.76l-.63,12.9c-.52,8.27-.52,15.86-.61,22.6l-.12,9.44.24,8,.38,15.22-1.19-15.18-.58-8L116,572l-.31-10.76c-.09-1.9-.07-3.84,0-5.83l.14-6.1.3-13c.23-4.48.61-9.1.92-13.86.45-9.54,1.82-19.52,3.1-29.85.66-5.17,1.73-10.36,2.59-15.65l1.38-8c.49-2.67,1.16-5.31,1.74-8,1.23-5.33,2.35-10.73,3.69-16.11l4.49-16,1.16-4,1.36-3.94,2.73-7.86,2.72-7.83c.89-2.61,2.05-5.11,3.06-7.65,2.11-5.05,4.1-10.11,6.25-15l6.89-14.31c2.14-4.76,4.8-9.15,7.26-13.53l3.68-6.46,1.81-3.17,2-3c5.28-8,10-15.65,15.25-22.16l7.21-9.53c2.45-2.9,4.88-5.57,7.11-8.12l6.26-7.1a39.62,39.62,0,0,1,2.9-3l2.72-2.68Z"/>
      </g>
      <g>
        <g>
          <polyline class="cls-17" points="122.08 501.69 109.7 526.44 126.55 515.79"/>
          <path class="cls-18" d="M122.08,501.69c-.8,2.18-1.71,4.3-2.59,6.44s-1.86,4.23-2.81,6.33c-1.95,4.18-4,8.33-6.08,12.43l-1.43-1.29c5.66-3.49,11.4-6.83,17.38-9.81-5.25,4.12-10.74,7.88-16.31,11.5l-3,1.94,1.56-3.23c2-4.15,4.12-8.25,6.3-12.32,1.11-2,2.22-4,3.38-6S120.82,503.64,122.08,501.69Z"/>
        </g>
        <g>
          <polyline class="cls-17" points="129.64 485.54 111.08 496.54 128.95 499.63"/>
          <path class="cls-18" d="M129.64,485.54c-1.42,1.13-2.91,2.15-4.37,3.21s-3,2-4.48,3q-4.53,2.93-9.19,5.65l-.34-1.87c3,.54,5.94,1.12,8.89,1.8s5.89,1.42,8.81,2.3c-3-.15-6.06-.42-9.07-.8s-6-.8-9-1.3l-2.7-.45,2.36-1.43q4.61-2.79,9.37-5.35c1.59-.85,3.18-1.68,4.8-2.48S128,486.24,129.64,485.54Z"/>
        </g>
        <g>
          <polyline class="cls-17" points="130.67 481.41 117.61 468.35 140.98 467.66"/>
          <path class="cls-18" d="M130.67,481.41c-2.43-1.93-4.77-3.94-7.06-6s-4.53-4.18-6.72-6.34l-1.63-1.62,2.32-.1c3.89-.17,7.79-.21,11.69-.2,2,0,3.9.06,5.85.14s3.9.18,5.86.38c-1.94.31-3.88.5-5.83.72s-3.89.34-5.83.49c-3.89.24-7.79.43-11.68.49l.68-1.72c2.17,2.19,4.27,4.43,6.35,6.72S128.74,479,130.67,481.41Z"/>
        </g>
      </g>
      <g>
        <g>
          <polyline class="cls-17" points="907.64 503.75 920.01 528.5 903.17 517.85"/>
          <path class="cls-18" d="M907.64,503.76c1.26,1.95,2.42,3.95,3.59,5.94s2.27,4,3.38,6c2.17,4.07,4.29,8.17,6.3,12.32l1.56,3.23-3-1.94c-5.57-3.62-11.06-7.38-16.31-11.5,6,3,11.72,6.32,17.38,9.81L919.12,529c-2.12-4.1-4.13-8.25-6.08-12.43-1-2.1-1.91-4.2-2.81-6.33S908.44,505.93,907.64,503.76Z"/>
        </g>
        <g>
          <polyline class="cls-17" points="900.08 487.6 918.64 498.6 900.76 501.69"/>
          <path class="cls-18" d="M900.08,487.6c1.67.71,3.28,1.52,4.91,2.29s3.21,1.64,4.8,2.48q4.75,2.57,9.37,5.35l2.36,1.43-2.7.45c-3,.49-6,.95-9,1.3s-6,.64-9.07.8c2.92-.88,5.85-1.64,8.81-2.3s5.92-1.26,8.89-1.8l-.34,1.87q-4.67-2.71-9.19-5.65c-1.51-1-3-2-4.48-3S901.5,488.73,900.08,487.6Z"/>
        </g>
        <g>
          <polyline class="cls-17" points="899.04 483.48 912.11 470.41 888.73 469.73"/>
          <path class="cls-18" d="M899,483.47c1.93-2.43,3.94-4.77,6-7.06s4.18-4.53,6.35-6.72l.68,1.72c-3.9-.06-7.79-.25-11.68-.49-1.95-.14-3.89-.29-5.83-.49s-3.89-.41-5.83-.72c2-.19,3.91-.27,5.86-.38s3.9-.11,5.85-.14c3.9,0,7.8,0,11.69.2l2.32.1-1.63,1.62c-2.19,2.17-4.43,4.27-6.72,6.34S901.47,481.55,899,483.47Z"/>
        </g>
      </g>
      <g class="cls-22">
        <path class="cls-23" d="M179.14,453.23C192.67,352.9,259.08,303,288.64,285.45a6.76,6.76,0,0,0-.85-12C224.55,245.61,148,107.68,112.24,38.16c-11.21,8.71-14,29-2.68,53.11L160.13,231.9A17.18,17.18,0,0,0,182.8,243.7L198,238a17.19,17.19,0,0,1,18.69,4.46l2.07,2.26a19.77,19.77,0,0,1-2.35,2.27c-4.54,3.71-10.31,10.15-14.21,14.7a1.93,1.93,0,0,0,2.09,3.09l25.19-8.4L239,266.66c-4.73,3.93-9.32,8-13.73,12.18a303.57,303.57,0,0,0-27.6,30.24C135,387.56,110,496.19,118,604.69c9,122.94,73,228.75,166.17,295.07a396,396,0,0,0,221.48,73.49C125.51,870.87,161.7,582.5,179.14,453.23Z"/>
      </g>
      <path class="cls-24" d="M441.58,182.53s-32.48,13.41-3.61,23.2,86.11,27.84,119.11,9.28,1.55-37.64,1.55-37.64Z"/>
      <path class="cls-25" d="M830.87,40.74,724.2,154.53a17.18,17.18,0,0,0-.16,25.58l4.7,4.27A17.16,17.16,0,0,1,734.33,198l-29.51-5.37a1.93,1.93,0,0,0-1.63,3.35c4.5,4,11.12,9.51,16.14,12.55a18.66,18.66,0,0,1,6.3,6.17l-6.12,8.44q9.13,4.83,17.8,10.37A172.85,172.85,0,0,0,751.82,214c5-8.07,10-17,11.67-26.45,2-11.51-1.49-19.6,4.66-29.94,9-15.09,26.32-19.93,37.93-32.25C817.1,113.68,824,95.7,832.55,82s19.77-34.56,36.82-35.72c8.36-.56,17.64,4.35,24.46,11.53C900.6,20.74,870,1.64,830.87,40.74Z"/>
      <path class="cls-26" d="M539.86,45.92c-6.42-.25-10.08,13.84-11.8,25.76a52.75,52.75,0,0,0-36.92-.36C490,59.49,487,45.85,480.77,45.61c-9-.36-30.08,85.92-30.08,128,0,31.61,22.69,29.08,55,29.08s62.07,2.53,61.91-29.08C567.42,144.34,548.85,46.28,539.86,45.92Z"/>
      <path class="cls-18" d="M457.44,117.09,456.16,126c-.82,5.64-1.92,13.7-3,23.39-.51,4.85-1,10.11-1.34,15.67-.16,2.77-.28,5.66-.38,8.55a50.29,50.29,0,0,0,.56,8.87A24.58,24.58,0,0,0,455,191a18.41,18.41,0,0,0,6.58,6.52c5.54,3.18,12.18,3.94,18.61,4.26s13,.05,19.4,0,12.74-.09,18.84-.13,12-.06,17.51-.54a63,63,0,0,0,15.21-2.85,24.11,24.11,0,0,0,10.68-7,23.1,23.1,0,0,0,4.46-8.9,37.56,37.56,0,0,0,1.09-6.74c.09-1.52.14-2.61.14-2.61h.21s0,1.1,0,2.63a37.13,37.13,0,0,1-.66,6.77,23.5,23.5,0,0,1-4.21,9.62,24.67,24.67,0,0,1-11.1,7.87,57.24,57.24,0,0,1-15.66,3.27c-5.63.49-11.57.64-17.69.59l-18.83-.18c-6.41-.05-13-.07-19.48-.64a70,70,0,0,1-9.72-1.42,30.52,30.52,0,0,1-9.14-3.41,19.93,19.93,0,0,1-6.91-6.67,28.23,28.23,0,0,1-3.38-8.79c-1.26-6.1-1.1-12.1-.85-17.71s.81-10.91,1.41-15.77,1.25-9.31,1.94-13.22,1.3-7.33,1.89-10.12c1.15-5.59,1.93-8.76,1.93-8.76Z"/>
      <path class="cls-18" d="M558.81,108.46c-1.83-7.81-3.6-15.62-5.54-23.38-1-3.88-1.91-7.77-3-11.63s-2.17-7.69-3.31-11.51A93.53,93.53,0,0,0,543,50.77a19,19,0,0,0-1.37-2.54c-.49-.77-1.18-1.54-1.71-1.63a4.92,4.92,0,0,0-1.3.14,4.15,4.15,0,0,0-1.12.53,4.5,4.5,0,0,0-1.07.86,6.8,6.8,0,0,0-.94,1.06c-2.34,3.09-3.64,7-4.7,10.79a88.52,88.52,0,0,0-2.35,11.74l-.06.43-.41-.16a47.65,47.65,0,0,0-18.3-3.24,51.64,51.64,0,0,0-18.17,3.4l-1.08.42-.13-1.18A104.55,104.55,0,0,0,488.45,60c-.86-3.7-1.92-7.46-3.87-10.5-1-1.48-2.27-2.69-3.71-2.82h0l-.18,0c-.1,0-.29,0-.31.05s0,0-.22.16a4.3,4.3,0,0,0-.86.78,15,15,0,0,0-1.56,2.21,69.22,69.22,0,0,0-4.68,10.43c-2.74,7.2-5,14.62-7.14,22.06s-4.12,14.94-6,22.46l-.2,0c1.37-7.64,3-15.24,4.83-22.79.91-3.78,2-7.53,3-11.26s2.23-7.46,3.56-11.14a71,71,0,0,1,4.78-10.8,17,17,0,0,1,1.78-2.54A6.32,6.32,0,0,1,479,45.12a3.5,3.5,0,0,1,1.07-.49,2.45,2.45,0,0,1,.4-.07l.18,0h.28l.11,0a7.45,7.45,0,0,1,5.35,3.79c2.2,3.55,3.17,7.43,4,11.27A97.48,97.48,0,0,1,492,71.24l-1.21-.76a50.19,50.19,0,0,1,18.82-2.91,52.78,52.78,0,0,1,18.55,3.79l-.47.27c.64-4,1.33-7.93,2.32-11.83.49-2,1.1-3.88,1.78-5.78a24.23,24.23,0,0,1,2.74-5.48,7.8,7.8,0,0,1,1-1.22,5.57,5.57,0,0,1,1.22-1.06,5.11,5.11,0,0,1,1.57-.78,2.55,2.55,0,0,1,.78-.16l.37,0,.19,0h.09a.78.78,0,0,1,.23,0,4.55,4.55,0,0,1,2.78,2.12,20.43,20.43,0,0,1,1.6,2.68,78.57,78.57,0,0,1,4.36,11.33C550,65.23,551,69.13,552,73s1.91,7.8,2.73,11.73c1.65,7.85,3.13,15.74,4.31,23.67Z"/>
      <g>
        <g>
          <circle class="cls-13" cx="486.71" cy="110.07" r="8.1"/>
          <path class="cls-18" d="M494.91,110.07a10.49,10.49,0,0,1-.23,2.2,10.3,10.3,0,0,1-.83,2.47,8.16,8.16,0,0,1-2.19,2.74,7.5,7.5,0,0,1-3.94,1.53,11.79,11.79,0,0,1-1.18,0,8.88,8.88,0,0,1-1.1-.19,8.26,8.26,0,0,1-2.24-.85A10.21,10.21,0,0,1,478,110a9.32,9.32,0,0,1,.17-2.54,8.52,8.52,0,0,1,1-2.41,9.11,9.11,0,0,1,3.79-3.39,8.43,8.43,0,0,1,4.7-.74,7.94,7.94,0,0,1,4,1.66,8.38,8.38,0,0,1,2.18,2.77,10.73,10.73,0,0,1,1,4.69Zm-.21,0,0-.56a5.58,5.58,0,0,0-.34-1.54,7.19,7.19,0,0,0-3.6-3.91,9.26,9.26,0,0,0-3.17-1,8.2,8.2,0,0,0-3.69.55,7.26,7.26,0,0,0-3.14,2.45,8.17,8.17,0,0,0-1.55,4,6.76,6.76,0,0,0,1.05,4.28,6.43,6.43,0,0,0,3.43,2.59,7.25,7.25,0,0,0,2,.36,9.46,9.46,0,0,0,1,0c.25,0,.61-.05.89-.1a10.31,10.31,0,0,0,3.23-1.09,7.35,7.35,0,0,0,3.58-3.94,5.43,5.43,0,0,0,.33-1.55Z"/>
        </g>
        <circle class="cls-18" cx="486.71" cy="110.07" r="1.59"/>
      </g>
      <g>
        <g>
          <circle class="cls-13" cx="526.34" cy="110.65" r="8.1"/>
          <path class="cls-18" d="M534.54,110.65a10.51,10.51,0,0,1-.23,2.2,10.31,10.31,0,0,1-.83,2.47,8.15,8.15,0,0,1-2.19,2.74,7.5,7.5,0,0,1-3.94,1.53,11.79,11.79,0,0,1-1.18,0,8.88,8.88,0,0,1-1.1-.19,8.26,8.26,0,0,1-2.24-.85,10.21,10.21,0,0,1-5.16-7.94,9.31,9.31,0,0,1,.17-2.54,8.52,8.52,0,0,1,1-2.41,9.11,9.11,0,0,1,3.79-3.39,8.43,8.43,0,0,1,4.7-.74,7.94,7.94,0,0,1,4,1.66A8.38,8.38,0,0,1,533.5,106a10.74,10.74,0,0,1,1,4.69Zm-.21,0,0-.56a5.58,5.58,0,0,0-.34-1.54,7.19,7.19,0,0,0-3.6-3.91,9.26,9.26,0,0,0-3.17-1,8.2,8.2,0,0,0-3.69.55,7.27,7.27,0,0,0-3.14,2.45,8.17,8.17,0,0,0-1.55,4,6.76,6.76,0,0,0,1.05,4.28,6.43,6.43,0,0,0,3.43,2.59,7.25,7.25,0,0,0,2,.36,9.46,9.46,0,0,0,1,0c.25,0,.61-.05.89-.1a10.31,10.31,0,0,0,3.23-1.09,7.35,7.35,0,0,0,3.58-3.94,5.44,5.44,0,0,0,.33-1.55Z"/>
        </g>
        <circle class="cls-18" cx="526.34" cy="110.65" r="1.59"/>
      </g>
    </g>
  </g>
</svg>
