<?xml version="1.0" encoding="utf-8"?>
<!DOCTYPE svg PUBLIC "-//W3C//DTD SVG 1.1//EN" "http://www.w3.org/Graphics/SVG/1.1/DTD/svg11.dtd">
<!-- Clemoji 3.0: bounce.svg (bounce) - licence GPLv3 or later - Author A-312 - https://zestedesavoir.com/ -->
<svg version="1.1" id="clemoji3_bounce" xmlns="http://www.w3.org/2000/svg" xmlns:xlink="http://www.w3.org/1999/xlink" x="0px" y="0px" width="19px" height="27.834px" viewBox="0 0 19 27.834" enable-background="new 0 0 19 27.834" xml:space="preserve">
<g id="g10_frame5" transform="matrix(1.25,0,0,-1.25,-2.5,62.5)">
	<g id="gfeuille" transform="translate(113.91075,50.659)">
		<path id="path41" fill="#479F00" d="M-96.394-4.804c-2.841,1.691-6.39,0.964-7.93-1.625c-0.03-0.055-0.061-0.108-0.09-0.164c0.107-0.075,0.219-0.149,0.331-0.218c2.839-1.693,6.39-0.963,7.93,1.624c0,0,0,0,0.001,0.001c0.03,0.053,0.062,0.108,0.087,0.163C-96.171-4.947-96.283-4.873-96.394-4.804L-96.394-4.804z"/>
		<path id="path41-2" fill="#479F00" d="M-109.504-3.585c2.331,1.004,4.962,0.095,5.878-2.028c0.017-0.045,0.038-0.089,0.053-0.135c-0.091-0.048-0.183-0.091-0.275-0.133c-2.332-1.004-4.964-0.096-5.879,2.028c0,0.001,0,0.001,0,0.001c-0.019,0.044-0.035,0.089-0.051,0.134C-109.688-3.672-109.599-3.626-109.504-3.585L-109.504-3.585z"/>
	</g>
	<g id="g20" transform="translate(36,19)">
		<path id="path22" fill="#FAAC2C" d="M-18.889,18.796c0-4.191-3.362-7.587-7.511-7.587c-4.148,0-7.511,3.398-7.511,7.587c0,4.192,3.363,7.59,7.511,7.59C-22.252,26.386-18.889,22.989-18.889,18.796"/>
	</g>
	<path id="g24" fill="#FFFFFF" d="M9.82,38.543c0.084-2.061,1.645-3.633,2.495-3.634c0.583,0,1.594,0.372,2.214,3.732L9.82,38.543z"/>
	<path fill="#992500" d="M7.429,40.561c-0.024,0-0.047,0.002-0.071,0.004c-0.267,0.03-0.452,0.228-0.413,0.441c0.115,0.637,0.809,1.118,1.615,1.12c0.809-0.003,1.503-0.484,1.618-1.12c0.038-0.213-0.147-0.411-0.414-0.441c-0.265-0.025-0.515,0.118-0.554,0.33c-0.046,0.256-0.325,0.449-0.65,0.45c-0.322-0.001-0.601-0.194-0.647-0.45C7.876,40.702,7.666,40.561,7.429,40.561z"/>
	<path fill="#992500" d="M16.4,41.023c-0.231-0.136-0.382-0.462-0.62-0.462c-0.023,0-0.047,0.002-0.07,0.004c-0.267,0.03-0.452,0.228-0.413,0.441c-0.005,0.494,0.306,0.572,0.657,0.838"/>
</g>
</svg>
