<?xml version="1.0" encoding="utf-8"?>
<!-- Generator: Adobe Illustrator 16.0.0, SVG Export Plug-In . SVG Version: 6.00 Build 0)  -->
<!DOCTYPE svg PUBLIC "-//W3C//DTD SVG 1.1//EN" "http://www.w3.org/Graphics/SVG/1.1/DTD/svg11.dtd">
<svg version="1.1"
	 id="svg2" xmlns:dc="http://purl.org/dc/elements/1.1/" xmlns:cc="http://creativecommons.org/ns#" xmlns:rdf="http://www.w3.org/1999/02/22-rdf-syntax-ns#" xmlns:svg="http://www.w3.org/2000/svg"
	 xmlns="http://www.w3.org/2000/svg" xmlns:xlink="http://www.w3.org/1999/xlink" x="0px" y="0px" width="26.929px"
	 height="27.834px" viewBox="0 0 26.929 27.834" enable-background="new 0 0 26.929 27.834" xml:space="preserve">
<g id="g10" transform="matrix(1.18,0,0,-1.18,-1.2,61.2)">
	<path id="gfeuille" fill="#479F00" d="M1.807,48.04c-0.254-0.67-0.385-1.373-0.387-2.08
		c0-3.674,3.401-6.653,7.597-6.653c4.197,0,7.598,2.979,7.599,6.653c0,0.001,0,0.001,0,0.001c-0.003,0.704-0.134,1.402-0.387,2.069
		c-1.025-2.727-3.933-4.57-7.211-4.572C5.736,43.462,2.829,45.31,1.807,48.04L1.807,48.04z"/>
	<g id="gqueue" transform="translate(57.917999,-0.62614057)">
		
			<path id="path4687-4" fill="none" stroke="#48A000" stroke-width="1.7" stroke-linecap="round" stroke-linejoin="round" d="
			M-42.489,35.734c2.439,0.416,2.042-2.617,5.081-0.565"/>
		<path id="path4138-2-5-2-4-7-5-4" fill="#479F00" d="
			M-34.405,38.346c-2.699,0.134-4.051-1.089-4.184-3.79c-0.005-0.056,0-0.113,0-0.168c0.107-0.015,0.215-0.026,0.323-0.033
			c2.7-0.134,4.053,1.091,4.187,3.79c0.004,0.056,0,0.113,0,0.168C-34.189,38.327-34.296,38.339-34.405,38.346L-34.405,38.346z"/>
	</g>
	<g id="g20" transform="translate(37,19)">
		<path id="path22" fill="#AA8ED6" d="M-19.991,18.345c0-4.392-3.56-7.952-7.953-7.952c-4.392,0-7.952,3.56-7.952,7.952
			c0,4.391,3.56,7.952,7.952,7.952C-23.551,26.298-19.991,22.737-19.991,18.345"/>
	</g>
	<g id="g24" transform="translate(11,33)" display="none">
		<path id="path26" display="inline" fill="#AA8ED6" d="M-5.478,10.53c-1.14,0-2.488,1.09-2.91,1.509
			c-0.252,0.252-0.633,0.329-0.963,0.191c-0.33-0.137-0.545-0.458-0.545-0.816c0-1.529,0.739-4.418,3.534-4.418
			c0.334,0,0.641,0.189,0.79,0.487l0.884,1.768c0.137,0.274,0.122,0.599-0.039,0.86C-4.887,10.372-5.172,10.53-5.478,10.53"/>
	</g>
	<g id="g28" transform="translate(35.7656,36.8477)" display="none">
		<path id="path30" display="inline" fill="#AA8ED6" d="M-19.302,8.382c-0.331,0.137-0.71,0.061-0.963-0.191
			c-0.391-0.391-1.765-1.509-2.909-1.509c-0.306,0-0.591-0.159-0.751-0.419c-0.161-0.261-0.175-0.586-0.039-0.86l0.884-1.767
			c0.149-0.3,0.455-0.489,0.79-0.489c2.796,0,3.535,2.89,3.535,4.419C-18.757,7.924-18.971,8.246-19.302,8.382"/>
	</g>
	<g id="g32" transform="translate(15.9985,18.9995)">
		<path id="path34" fill="#553986" d="M-8.268,18.345c-0.133,0-0.268,0.031-0.394,0.094l-2.651,1.325
			c-0.437,0.219-0.613,0.75-0.396,1.186c0.219,0.437,0.749,0.614,1.186,0.396l2.651-1.325c0.437-0.219,0.613-0.75,0.395-1.186
			C-7.632,18.524-7.944,18.345-8.268,18.345"/>
	</g>
	<path id="gbouche" display="none" fill="#553986" d="M3.993,35.835
		c1.419-0.987,2.879-1.457,5.066-1.457s3.646,0.469,5.064,1.457c0.305-1.054,0.319-1.764,0.139-2.195
		c-0.198-0.476-0.589-0.725-1.059-0.951c-0.865-0.418-2.505-0.752-4.146-0.752c-1.64,0-3.281,0.334-4.145,0.752
		c-0.469,0.227-0.859,0.475-1.058,0.951C3.675,34.07,3.688,34.781,3.993,35.835L3.993,35.835z"/>
	<g id="g36" transform="translate(22,7)">
		<path id="path38" fill="#553986" d="M-11.618,25.044h-2.651c-0.488,0-0.883,0.396-0.883,0.883c0,0.488,0.396,0.884,0.883,0.884
			h2.651c0.488,0,0.884-0.396,0.884-0.884C-10.734,25.439-11.13,25.044-11.618,25.044"/>
	</g>
	<g id="g40" transform="translate(22.002,18.9995)">
		<path id="path42" fill="#553986" d="M-11.619,18.345c-0.324,0-0.636,0.179-0.791,0.489c-0.218,0.436-0.042,0.967,0.395,1.186
			l2.652,1.325c0.437,0.219,0.967,0.041,1.185-0.396c0.218-0.436,0.041-0.967-0.396-1.186l-2.65-1.325
			C-11.352,18.376-11.487,18.345-11.619,18.345"/>
	</g>
	<g id="g44" transform="translate(21,19)">
		<path id="path46" fill="#553986" d="M-11.06,18.345c0,0,0,0.883,0.884,0.883s0.884-0.883,0.884-0.883v-0.884
			c0,0,0-0.884-0.884-0.884s-0.884,0.884-0.884,0.884V18.345z"/>
	</g>
	<g id="g48" transform="translate(13,19)">
		<path id="path50" fill="#553986" d="M-6.594,18.345c0,0,0,0.883,0.883,0.883c0.884,0,0.884-0.883,0.884-0.883v-0.884
			c0,0,0-0.884-0.884-0.884c-0.883,0-0.883,0.884-0.883,0.884V18.345z"/>
	</g>
</g>
</svg>
