<?xml version="1.0" encoding="utf-8"?>
<!DOCTYPE svg PUBLIC "-//W3C//DTD SVG 1.1//EN" "http://www.w3.org/Graphics/SVG/1.1/DTD/svg11.dtd">
<!-- Clemoji 3.0: 1f47f.svg - licence GPLv3 or later - Créé par A-312 - https://zestedesavoir.com/ -->
<!-- Les Clemoji ont été créé à partir des Twemoji (CC BY 4.0 - https://github.com/twitter/twemoji) -->
<svg xmlns:dc="http://purl.org/dc/elements/1.1/" xmlns:cc="http://creativecommons.org/ns#" xmlns:rdf="http://www.w3.org/1999/02/22-rdf-syntax-ns#" xmlns:svg="http://www.w3.org/2000/svg" xmlns="http://www.w3.org/2000/svg" viewBox="0 0 26.929 27.834" style="enable-background: new 0 0 26.929 27.834" xml:space="preserve" version="1.1" id="clemoji3_1f47f" width="26.9333px" height="27.9167px">
  <g transform="matrix(1.18,0,0,-1.18,-1.2,61.2)" id="g10">
    <g id="gqueue" transform="translate(57.917999,-0.62614057)">
      <path id="path4183-2" fill="none" stroke="#48A000" stroke-width="1.7" stroke-linecap="round" stroke-linejoin="round" d="M-42.489,35.734c2.439,0.416,2.042-2.617,5.081-0.565"></path>
      <path id="path4183-2-5" fill="#479F00" d="M-34.405,38.346c-2.699,0.134-4.051-1.089-4.184-3.79c-0.005-0.056,0-0.113,0-0.168c0.107-0.015,0.215-0.026,0.323-0.033c2.7-0.134,4.053,1.091,4.187,3.79c0.004,0.056,0,0.113,0,0.168C-34.189,38.327-34.296,38.339-34.405,38.346L-34.405,38.346z"></path>
    </g>
    <path id="gfeuille" fill="#479F00" d="M1.807,48.04c-0.254-0.67-0.385-1.373-0.387-2.08c0-3.674,3.401-6.653,7.597-6.653c4.197,0,7.598,2.979,7.599,6.653c0,0.001,0,0.001,0,0.001c-0.003,0.704-0.134,1.402-0.387,2.069c-1.025-2.727-3.933-4.57-7.211-4.572C5.736,43.462,2.829,45.31,1.807,48.04L1.807,48.04z"></path>
    <g transform="translate(37,19)" id="g20">
      <path id="path22" fill="#AA8ED6" d="M-19.992,18.232c0-4.392-3.56-7.952-7.954-7.952c-4.392,0-7.952,3.56-7.952,7.952c0,4.391,3.56,7.952,7.952,7.952C-23.553,26.185-19.992,22.624-19.992,18.232"></path>
    </g>
    <g id="g312" transform="matrix(0.45,0,0,0.45,0.5,29)">
      <g transform="translate(15.9985,18.9995)" id="g32">
        <path id="path34" style="fill:#553986;fill-opacity:1;fill-rule:nonzero;stroke:none" d="m 0,0 c -0.301,0 -0.606,0.068 -0.893,0.211 l -6,3 c -0.988,0.495 -1.388,1.696 -0.895,2.684 0.495,0.988 1.696,1.389 2.684,0.895 l 6,-3 C 1.884,3.295 2.284,2.094 1.791,1.106 1.44,0.405 0.733,0 0,0"></path>
      </g>
      <g transform="translate(22,7)" id="g36">
        <path id="path38" style="fill:#553986;fill-opacity:1;fill-rule:nonzero;stroke:none" d="m 0,0 -6,0 c -1.104,0 -2,0.896 -2,2 0,1.104 0.896,2 2,2 L 0,4 C 1.104,4 2,3.104 2,2 2,0.896 1.104,0 0,0"></path>
      </g>
      <g transform="translate(22.002,18.9995)" id="g40">
        <path id="path42" style="fill:#553986;fill-opacity:1;fill-rule:nonzero;stroke:none" d="m 0,0 c -0.734,0 -1.44,0.405 -1.791,1.106 -0.494,0.988 -0.094,2.189 0.895,2.684 l 6,3 C 6.093,7.286 7.294,6.881 7.787,5.895 8.281,4.907 7.881,3.706 6.893,3.211 l -6,-3 C 0.605,0.068 0.3,0 0,0"></path>
      </g>
      <g transform="translate(21,19)" id="g44">
        <path id="path46" style="fill:#553986;fill-opacity:1;fill-rule:nonzero;stroke:none" d="M 0,0 C 0,0 0,2 2,2 4,2 4,0 4,0 l 0,-2 c 0,0 0,-2 -2,-2 -2,0 -2,2 -2,2 l 0,2 z"></path>
      </g>
      <g transform="translate(13,19)" id="g48">
        <path id="path50" style="fill:#553986;fill-opacity:1;fill-rule:nonzero;stroke:none" d="M 0,0 C 0,0 0,2 2,2 4,2 4,0 4,0 l 0,-2 c 0,0 0,-2 -2,-2 -2,0 -2,2 -2,2 l 0,2 z"></path>
      </g>
    </g>
  </g>
</svg>