<?xml version="1.0" encoding="utf-8"?>
<!-- Generator: Adobe Illustrator 16.0.0, SVG Export Plug-In . SVG Version: 6.00 Build 0)  -->
<!DOCTYPE svg PUBLIC "-//W3C//DTD SVG 1.1//EN" "http://www.w3.org/Graphics/SVG/1.1/DTD/svg11.dtd">
<svg version="1.1"
	 id="svg2" xmlns:dc="http://purl.org/dc/elements/1.1/" xmlns:cc="http://creativecommons.org/ns#" xmlns:rdf="http://www.w3.org/1999/02/22-rdf-syntax-ns#" xmlns:svg="http://www.w3.org/2000/svg"
	 xmlns="http://www.w3.org/2000/svg" xmlns:xlink="http://www.w3.org/1999/xlink" x="0px" y="0px" width="26.931px"
	 height="27.834px" viewBox="0 0 26.931 27.834" enable-background="new 0 0 26.931 27.834" xml:space="preserve">
<g id="g10_1_" transform="matrix(1.18,0,0,-1.18,-1.2,61.2)">
	<path id="gfeuille" fill="#479F00" d="M1.805,47.927c-0.254-0.67-0.385-1.373-0.387-2.08c0-3.674,3.401-6.653,7.597-6.653
		c4.198,0,7.599,2.979,7.6,6.653c0,0.001,0,0.001,0,0.001c-0.003,0.704-0.134,1.402-0.387,2.069
		c-1.025-2.727-3.933-4.57-7.212-4.572C5.733,43.349,2.827,45.197,1.805,47.927L1.805,47.927z"/>
	<g id="gqueue" transform="translate(57.917999,-0.62614057)">
		<path id="path4687-4" fill="none" stroke="#48A000" stroke-width="1.7" stroke-linecap="round" stroke-linejoin="round" d="
			M-42.49,35.621c2.439,0.415,2.042-2.617,5.081-0.565"/>
		<path id="path4138-2-5-2-4-7-5-4" fill="#479F00" d="M-34.406,38.233c-2.7,0.134-4.051-1.089-4.184-3.79
			c-0.005-0.056,0-0.113,0-0.167c0.107-0.016,0.215-0.026,0.323-0.033c2.7-0.134,4.054,1.091,4.188,3.79
			c0.003,0.055,0,0.113,0,0.168C-34.19,38.214-34.298,38.226-34.406,38.233L-34.406,38.233z"/>
	</g>
	<g id="g20" transform="translate(37,19)">
		<path id="path22" fill="#AA8ED6" d="M-19.992,18.232c0-4.392-3.56-7.952-7.954-7.952c-4.392,0-7.952,3.56-7.952,7.952
			c0,4.391,3.56,7.952,7.952,7.952C-23.553,26.185-19.992,22.624-19.992,18.232"/>
	</g>
	<g id="g24_2_" transform="translate(11,33)" display="none">
		<path id="path26_2_" display="inline" fill="#AA8ED6" d="M-5.48,10.417c-1.14,0-2.488,1.09-2.91,1.509
			c-0.252,0.252-0.633,0.329-0.963,0.191c-0.33-0.137-0.545-0.458-0.545-0.816c0-1.529,0.739-4.418,3.535-4.418
			c0.334,0,0.641,0.19,0.79,0.487l0.884,1.768c0.137,0.274,0.122,0.599-0.039,0.86C-4.889,10.259-5.174,10.417-5.48,10.417"/>
	</g>
	<g id="g28_2_" transform="translate(35.7656,36.8477)" display="none">
		<path id="path30_2_" display="inline" fill="#AA8ED6" d="M-19.303,8.269c-0.331,0.137-0.71,0.061-0.963-0.191
			c-0.391-0.391-1.765-1.509-2.909-1.509c-0.306,0-0.591-0.159-0.751-0.419c-0.161-0.261-0.175-0.586-0.039-0.86l0.884-1.767
			c0.149-0.3,0.455-0.488,0.79-0.488c2.796,0,3.535,2.89,3.535,4.419C-18.759,7.811-18.972,8.133-19.303,8.269"/>
	</g>
	<g id="g24" transform="translate(28.335,11.3711)">
		<path id="path26" fill="#553986" d="M-14.945,22.83c-0.083,0.075-0.205,0.079-0.294,0.013c-0.018-0.013-1.817-1.342-4.03-1.342
			c-2.208,0-4.012,1.329-4.03,1.342c-0.089,0.066-0.211,0.061-0.294-0.013c-0.082-0.073-0.1-0.196-0.043-0.29
			c0.06-0.1,1.49-2.429,4.367-2.429c2.876,0,4.308,2.329,4.368,2.429C-14.845,22.634-14.864,22.757-14.945,22.83"/>
	</g>
	<g id="g28" transform="translate(16.707,18.707)">
		<path id="path30" fill="#553986" d="M-8.703,18.892c-1.507,1.508-3.93,1.524-4.032,1.524c-0.256,0-0.463-0.207-0.463-0.461
			c0-0.256,0.206-0.463,0.462-0.464c0.014,0,0.892-0.011,1.845-0.342c-0.275-0.297-0.455-0.756-0.455-1.279
			c0-0.896,0.518-1.62,1.158-1.62c0.639,0,1.158,0.724,1.158,1.62c0,0.08-0.009,0.157-0.018,0.235c0.006,0,0.012-0.003,0.018-0.003
			c0.118,0,0.237,0.045,0.327,0.136C-8.522,18.418-8.522,18.711-8.703,18.892"/>
	</g>
	<g id="g32" transform="translate(30,22)">
		<path id="path34" fill="#553986" d="M-15.84,17.124c-0.102,0-2.525-0.017-4.033-1.524c-0.18-0.181-0.18-0.474,0-0.655
			c0.09-0.091,0.21-0.136,0.329-0.136c0.006,0,0.01,0.003,0.017,0.003c-0.008-0.077-0.017-0.155-0.017-0.235
			c0-0.896,0.519-1.62,1.157-1.62c0.641,0,1.159,0.724,1.159,1.62c0,0.523-0.18,0.982-0.455,1.279
			c0.954,0.331,1.831,0.342,1.846,0.342c0.254,0.001,0.461,0.209,0.461,0.464C-15.377,16.917-15.583,17.124-15.84,17.124"/>
	</g>
</g>
</svg>
