<?xml version="1.0" encoding="utf-8"?>
<!DOCTYPE svg PUBLIC "-//W3C//DTD SVG 1.1//EN" "http://www.w3.org/Graphics/SVG/1.1/DTD/svg11.dtd">
<!-- Clemoji 3.0: clin.svg (;)) - licence GPLv3 or later - Author Buddy - https://zestedesavoir.com/ -->
<svg xmlns:dc="http://purl.org/dc/elements/1.1/" xmlns:cc="http://creativecommons.org/ns#" xmlns:rdf="http://www.w3.org/1999/02/22-rdf-syntax-ns#" xmlns:svg="http://www.w3.org/2000/svg" xmlns="http://www.w3.org/2000/svg" xmlns:xlink="http://www.w3.org/1999/xlink" xml:space="preserve" version="1.1" id="clemoji3_clin" x="0px" y="0px" width="19px" height="27.834px" viewBox="0 0 19 27.834" enable-background="new 0 0 19 27.834">
  <g id="g10" transform="matrix(1.25,0,0,-1.25,-2.5,62.5)">
    <g id="g20" transform="translate(36,19)">
      <path id="path22" fill="#FAAC2C" d="M-18.889,17.304c0-4.148-3.362-7.51-7.511-7.51c-4.148,0-7.511,3.363-7.511,7.51c0,4.148,3.363,7.511,7.511,7.511C-22.252,24.815-18.889,21.453-18.889,17.304" />
    </g>
    <path id="g24" fill="#992500" d="M9.707,31.66c-1.889,0-3.839,0.582-4.497,1.991c-0.131,0.28-0.01,0.613,0.271,0.745c0.28,0.13,0.613,0.009,0.744-0.271c0.496-1.063,2.554-1.473,4.24-1.309c0.309,0.022,0.581-0.197,0.61-0.505c0.029-0.308-0.198-0.58-0.505-0.61C10.287,31.673,9.998,31.66,9.707,31.66z"/>
    <path id="g32" fill="#992500" d="M5.553,37.055c-0.025,0-0.05,0.002-0.075,0.005c-0.284,0.041-0.481,0.305-0.441,0.589c0.129,0.897,0.911,1.574,1.817,1.576c0.908-0.002,1.689-0.68,1.818-1.576c0.041-0.284-0.156-0.548-0.441-0.589c-0.277-0.034-0.548,0.155-0.589,0.441c-0.056,0.389-0.395,0.684-0.788,0.684c-0.392,0-0.731-0.294-0.787-0.684C6.029,37.241,5.807,37.055,5.553,37.055z"/>
    <g id="g36" transform="translate(26.5,22.5)">
      <path id="path38" fill="#992500" d="M-13.337,15.638c0-0.808-0.467-1.461-1.044-1.461s-1.042,0.653-1.042,1.461c0,0.805,0.466,1.459,1.042,1.459S-13.337,16.443-13.337,15.638"/>
    </g>
    <g id="gfeuille" transform="translate(113.91075,50.659)">
      <path id="path41" fill="#479F00" d="M-98.058-0.666c-3.305,0-5.983-2.679-5.982-5.982c0.002-0.069,0.004-0.137,0.007-0.205c0.131-0.011,0.264-0.018,0.396-0.02c3.304-0.001,5.983,2.678,5.983,5.982c0,0,0,0,0,0.001c-0.002,0.068-0.004,0.136-0.008,0.204C-97.792-0.675-97.926-0.668-98.058-0.666L-98.058-0.666z" />
      <path id="path41-2" fill="#479F00" d="M-109.264-2.106c2.538,0,4.595-2.058,4.595-4.595c-0.001-0.053-0.002-0.105-0.005-0.158c-0.102-0.009-0.204-0.013-0.305-0.015c-2.538-0.001-4.596,2.057-4.596,4.595c0,0.001,0,0.001,0,0.001c0.001,0.052,0.003,0.105,0.006,0.157C-109.468-2.113-109.367-2.107-109.264-2.106L-109.264-2.106z" />
    </g>
  </g>
</svg>