<?xml version="1.0" encoding="utf-8"?>
<!DOCTYPE svg PUBLIC "-//W3C//DTD SVG 1.1//EN" "http://www.w3.org/Graphics/SVG/1.1/DTD/svg11.dtd">
<!-- Clemoji 3.0: heureux.svg (:D) - licence GPLv3 or later - Créé par Buddy - https://zestedesavoir.com/ -->
<!-- Les Clemoji ont été créé à partir des Twemoji (CC BY 4.0 - https://github.com/twitter/twemoji) -->
<svg xmlns:dc="http://purl.org/dc/elements/1.1/" xmlns:cc="http://creativecommons.org/ns#" xmlns:rdf="http://www.w3.org/1999/02/22-rdf-syntax-ns#" xmlns:svg="http://www.w3.org/2000/svg" xmlns="http://www.w3.org/2000/svg" xmlns:xlink="http://www.w3.org/1999/xlink" xml:space="preserve" version="1.1" id="clemoji3_heureux" x="0px" y="0px" width="19px" height="27.834px" viewBox="0 0 19 27.834" enable-background="new 0 0 19 27.834">
  <g id="g10" transform="matrix(1.25,0,0,-1.25,-2.5,62.5)">
    <g id="gfeuille" transform="translate(113.91075,50.659)">
      <path id="path41" fill="#479F00" d="M-98.058-1.466c-3.305,0-5.983-2.679-5.982-5.982c0.002-0.069,0.004-0.137,0.007-0.205c0.131-0.011,0.264-0.018,0.396-0.02c3.305-0.001,5.983,2.678,5.983,5.982c0,0,0,0,0,0.001c-0.002,0.068-0.003,0.136-0.008,0.204C-97.792-1.475-97.926-1.468-98.058-1.466L-98.058-1.466z"/>
      <path id="path41-2" fill="#479F00" d="M-109.264-2.906c2.538,0,4.595-2.058,4.595-4.595c-0.001-0.053-0.002-0.105-0.005-0.158c-0.102-0.009-0.204-0.013-0.305-0.015c-2.538-0.001-4.596,2.057-4.596,4.595c0,0.001,0,0.001,0,0.001c0.001,0.052,0.003,0.105,0.006,0.157C-109.468-2.913-109.367-2.907-109.264-2.906L-109.264-2.906z"/>
    </g>
    <g id="g20" transform="translate(36,19)">
      <path id="path22" fill="#FAAC2C" d="M-18.889,17.304c0-4.148-3.362-7.51-7.511-7.51c-4.148,0-7.511,3.363-7.511,7.51c0,4.148,3.363,7.511,7.511,7.511C-22.252,24.815-18.889,21.453-18.889,17.304" />
    </g>
    <path id="g24" inkscape:connector-curvature="0" fill="#FFFFFF" d="M3.844,36.163c0.294-2.958,2.781-5.213,5.754-5.216c2.975,0,5.465,2.255,5.759,5.216H3.844z"/>
    <path id="g32" fill="#992500" d="M5.547,38.136c-0.037,0-0.074,0.004-0.111,0.013c-0.28,0.061-0.458,0.338-0.397,0.619c0.163,0.749,0.749,1.565,1.362,1.898c0.377,0.204,1.002,0.378,1.525,0.197c0.289-0.1,0.502-0.294,0.617-0.56c0.114-0.264-0.008-0.57-0.271-0.683c-0.264-0.114-0.57,0.008-0.683,0.271c-0.061,0.032-0.404,0.018-0.692-0.139c-0.31-0.168-0.732-0.705-0.841-1.205C6.002,38.302,5.786,38.136,5.547,38.136z"/>
    <path id="g36" fill="#992500" d="M13.653,38.136c-0.239,0-0.455,0.166-0.507,0.41c-0.109,0.5-0.531,1.036-0.842,1.205c-0.287,0.155-0.629,0.171-0.706,0.12c-0.113-0.263-0.409-0.377-0.676-0.263c-0.263,0.114-0.378,0.429-0.264,0.693c0.114,0.266,0.327,0.46,0.616,0.561c0.521,0.182,1.148,0.008,1.525-0.196c0.614-0.334,1.2-1.15,1.362-1.898c0.062-0.281-0.116-0.557-0.398-0.618C13.727,38.14,13.69,38.136,13.653,38.136z"/>
  </g>
</svg>