<?xml version="1.0" encoding="utf-8"?>
<!DOCTYPE svg PUBLIC "-//W3C//DTD SVG 1.1//EN" "http://www.w3.org/Graphics/SVG/1.1/DTD/svg11.dtd">
<!-- Clemoji 3.0: hihi.svg (^^) - licence GPLv3 or later - Author Buddy - https://zestedesavoir.com/ -->
<svg xmlns:dc="http://purl.org/dc/elements/1.1/" xmlns:cc="http://creativecommons.org/ns#" xmlns:rdf="http://www.w3.org/1999/02/22-rdf-syntax-ns#" xmlns:svg="http://www.w3.org/2000/svg" xmlns="http://www.w3.org/2000/svg" xmlns:xlink="http://www.w3.org/1999/xlink" xml:space="preserve" version="1.1" id="clemoji3_hihi" x="0px" y="0px" width="19px" height="27.834px" viewBox="0 0 19 27.834" enable-background="new 0 0 19 27.834">
  <g id="g10" transform="matrix(1.25,0,0,-1.25,-2.5,62.5)">
    <g id="g20" transform="translate(36,19)">
      <path id="path22" fill="#FAAC2C" d="M-18.889,17.304c0-4.148-3.362-7.51-7.511-7.51c-4.148,0-7.511,3.363-7.511,7.51c0,4.148,3.363,7.511,7.511,7.511C-22.252,24.815-18.889,21.453-18.889,17.304" />
    </g>
    <path fill="#992500" d="M7.989,31.112c-0.499,0-1.338,0.332-2.008,0.982c-0.421,0.409-0.913,1.076-1.054,2.045c-0.262,0.047-0.462,0.276-0.462,0.552c0,0.309,0.251,0.56,0.56,0.56h0.422c0.309,0,0.559-0.25,0.56-0.559c0.002-0.705,0.253-1.306,0.746-1.788c0.535-0.521,1.151-0.677,1.234-0.673c0.004,0.001,0.009,0.001,0.013,0.001c0.303,0,0.553-0.241,0.561-0.545c0.008-0.309-0.233-0.566-0.541-0.574C8.011,31.112,8,31.112,7.989,31.112z"/>
    <path fill="#992500" d="M5.591,37.111c-0.027,0-0.054,0.002-0.081,0.006c-0.306,0.044-0.518,0.328-0.474,0.634c0.132,0.914,0.928,1.604,1.852,1.606c0.927-0.004,1.723-0.694,1.854-1.606c0.044-0.306-0.168-0.59-0.475-0.634c-0.303-0.037-0.59,0.169-0.634,0.475c-0.053,0.366-0.373,0.644-0.746,0.645c-0.369-0.001-0.689-0.278-0.742-0.645C6.104,37.313,5.864,37.111,5.591,37.111z"/>
    <path fill="#992500" d="M13.635,37.111c-0.273,0-0.513,0.201-0.553,0.48c-0.054,0.367-0.375,0.645-0.748,0.646c-0.368-0.001-0.688-0.278-0.741-0.646c-0.045-0.306-0.324-0.52-0.634-0.473c-0.306,0.045-0.518,0.328-0.473,0.634c0.133,0.914,0.928,1.604,1.851,1.605c0.926-0.004,1.722-0.693,1.854-1.605c0.045-0.306-0.167-0.59-0.473-0.634C13.689,37.113,13.662,37.111,13.635,37.111z"/>
    <g id="gfeuille" transform="translate(113.91075,50.659)">
      <path id="path41" fill="#479F00" d="M-98.058-0.666c-3.305,0-5.983-2.679-5.982-5.982c0.002-0.069,0.004-0.137,0.007-0.205c0.131-0.011,0.264-0.018,0.396-0.02c3.304-0.001,5.983,2.678,5.983,5.982c0,0,0,0,0,0.001c-0.002,0.068-0.004,0.136-0.008,0.204C-97.792-0.675-97.926-0.668-98.058-0.666L-98.058-0.666z" />
      <path id="path41-2" fill="#479F00" d="M-109.264-2.106c2.538,0,4.595-2.058,4.595-4.595c-0.001-0.053-0.002-0.105-0.005-0.158c-0.102-0.009-0.204-0.013-0.305-0.015c-2.538-0.001-4.596,2.057-4.596,4.595c0,0.001,0,0.001,0,0.001c0.001,0.052,0.003,0.105,0.006,0.157C-109.468-2.113-109.367-2.107-109.264-2.106L-109.264-2.106z" />
    </g>
  </g>
</svg>