<?xml version="1.0" encoding="utf-8"?>
<!DOCTYPE svg PUBLIC "-//W3C//DTD SVG 1.1//EN" "http://www.w3.org/Graphics/SVG/1.1/DTD/svg11.dtd">
<!-- Clemoji 3.0: pinch.svg (pinch) - licence GPLv3 or later - Author Buddy - https://zestedesavoir.com/ -->
<svg version="1.1" id="clemoji3_pinch" xmlns:dc="http://purl.org/dc/elements/1.1/" xmlns:cc="http://creativecommons.org/ns#" xmlns:rdf="http://www.w3.org/1999/02/22-rdf-syntax-ns#" xmlns:svg="http://www.w3.org/2000/svg" xmlns="http://www.w3.org/2000/svg" xmlns:xlink="http://www.w3.org/1999/xlink" x="0px" y="0px" width="21.143px" height="27.834px" viewBox="-1.749 0 21.143 27.834" enable-background="new -1.749 0 21.143 27.834" xml:space="preserve">
<g id="g10" transform="matrix(1.25,0,0,-1.25,-2.5,62.5)">
  <g id="g20" transform="translate(36,19)">
    <path id="path22" fill="#FAAC2C" d="M-18.889,17.304c0-4.148-3.362-7.509-7.511-7.509s-7.511,3.362-7.511,7.509c0,4.148,3.363,7.511,7.511,7.511C-22.252,24.815-18.889,21.453-18.889,17.304"/>
  </g>
  <g id="g30">
    <path fill="#9A2500" d="M5.067,36.446c-0.284,0-0.517,0.229-0.52,0.514c-0.004,0.288,0.227,0.523,0.514,0.527l1.71,0.02c-0.411,0.413-0.779,0.645-1.128,0.712c-0.282,0.055-0.466,0.328-0.411,0.61c0.055,0.281,0.327,0.461,0.61,0.411c0.813-0.159,1.571-0.753,2.455-1.927c0.118-0.157,0.138-0.366,0.052-0.543c-0.087-0.176-0.265-0.288-0.461-0.291l-2.816-0.033C5.071,36.446,5.069,36.446,5.067,36.446z"/>
    <path fill="#9A2500" d="M14.13,36.446c-0.002,0-0.004,0-0.006,0l-2.816,0.033c-0.196,0.002-0.374,0.115-0.46,0.291c-0.087,0.177-0.067,0.386,0.051,0.543c0.885,1.174,1.643,1.768,2.456,1.927c0.284,0.054,0.555-0.13,0.609-0.411c0.055-0.282-0.129-0.555-0.411-0.61c-0.349-0.068-0.717-0.299-1.127-0.712l1.71-0.02c0.287-0.004,0.517-0.239,0.514-0.527C14.646,36.675,14.414,36.446,14.13,36.446z"/>
  </g>
  <path fill="#9A2500" d="M12.048,31.753c-0.032,0-0.064,0.003-0.096,0.01L7.3,32.702c-0.26,0.052-0.428,0.305-0.376,0.566c0.053,0.259,0.306,0.43,0.566,0.375l4.653-0.939c0.259-0.052,0.427-0.305,0.375-0.566C12.471,31.911,12.271,31.753,12.048,31.753z"/>
  <g id="gfeuille_1_">
    <path id="path4138-2-28-0-4-5-3" fill="#479F00" d="M13.257,46.998c-1.055-0.159-0.384-1.819-2.177-1.105c-0.777,0.309-1.009-0.305-1.236-0.843c-0.226-0.538-0.839-0.92-0.597-1.546c1.55,0.348,3.148-0.495,4.629-0.604c1.009-0.074,0.82,1.541,2.11,1.105c1.29-0.437,1.142,1.345,1.268,2.021C15.083,45.972,15.541,47.339,13.257,46.998L13.257,46.998z"/>
    <path id="path4138-2-5-2-4-7-3-7" fill="#479F00" d="M3.816,45.195c0.923,1.035,2.47,0.779,2.778-0.352c0.308-1.13,1.332,0.24,1.903-1.12c-0.633-0.966-5.301-2.2-5.348-0.988c-0.047,1.211-1.356-0.461-2.309,1.545C2.209,45.184,2.894,44.16,3.816,45.195L3.816,45.195z"/>
  </g>
</g>
</svg>
