<?xml version="1.0" encoding="utf-8"?>
<!DOCTYPE svg PUBLIC "-//W3C//DTD SVG 1.1//EN" "http://www.w3.org/Graphics/SVG/1.1/DTD/svg11.dtd">
<!-- Clemoji 3.0: smile.svg (:)) - licence GPLv3 or later - Author Buddy - https://zestedesavoir.com/ -->
<svg xmlns:dc="http://purl.org/dc/elements/1.1/" xmlns:cc="http://creativecommons.org/ns#" xmlns:rdf="http://www.w3.org/1999/02/22-rdf-syntax-ns#" xmlns:svg="http://www.w3.org/2000/svg" xmlns="http://www.w3.org/2000/svg" xmlns:xlink="http://www.w3.org/1999/xlink" xml:space="preserve" version="1.1" id="clemoji3_smile" x="0px" y="0px" width="19px" height="27.834px" viewBox="0 0 19 27.834" enable-background="new 0 0 19 27.834">
  <g id="g10" transform="matrix(1.25,0,0,-1.25,-2.5,62.5)">
    <g id="g20" transform="translate(36,19)">
      <path id="path22" fill="#FAAC2C" d="M-18.889,17.304c0-4.148-3.362-7.51-7.511-7.51c-4.148,0-7.511,3.363-7.511,7.51c0,4.148,3.363,7.511,7.511,7.511C-22.252,24.815-18.889,21.453-18.889,17.304" />
    </g>
    <g id="g24">
      <path id="g32_4_" fill="#992500" d="M9.601,30.737c-2.641,0-4.923,1.862-5.489,4.402c-0.284,0.013-0.511,0.248-0.511,0.535c0,0.296,0.24,0.536,0.536,0.536h0.423c0.268,0,0.495-0.198,0.531-0.464c0.305-2.245,2.243-3.938,4.509-3.938c2.265,0,4.202,1.693,4.507,3.938c0.036,0.266,0.263,0.464,0.531,0.464h0.425c0.296,0,0.536-0.24,0.536-0.536c0-0.288-0.227-0.523-0.513-0.535C14.522,32.599,12.241,30.737,9.601,30.737z"/>
    </g>
    <g id="g32" transform="translate(14.5,22.5)">
      <path id="path34" fill="#992500" d="M-6.345,15.674c0-0.808-0.468-1.461-1.043-1.461c-0.577,0-1.044,0.653-1.044,1.461c0,0.805,0.467,1.46,1.044,1.46C-6.813,17.133-6.345,16.479-6.345,15.674" />
    </g>
    <g id="g36" transform="translate(26.5,22.5)">
      <path id="path38" fill="#992500" d="M-13.338,15.674c0-0.808-0.467-1.461-1.043-1.461c-0.577,0-1.043,0.653-1.043,1.461c0,0.805,0.466,1.46,1.043,1.46C-13.805,17.133-13.338,16.479-13.338,15.674" />
    </g>
    <g id="gfeuille" transform="translate(113.91075,50.659)">
      <path id="path41" fill="#479F00" d="M-98.058-0.666c-3.305,0-5.983-2.679-5.982-5.982c0.002-0.069,0.004-0.137,0.007-0.205c0.131-0.011,0.264-0.018,0.396-0.02c3.304-0.001,5.983,2.678,5.983,5.982c0,0,0,0,0,0.001c-0.002,0.068-0.004,0.136-0.008,0.204C-97.792-0.675-97.926-0.668-98.058-0.666L-98.058-0.666z" />
      <path id="path41-2" fill="#479F00" d="M-109.264-2.106c2.538,0,4.595-2.058,4.595-4.595c-0.001-0.053-0.002-0.105-0.005-0.158c-0.102-0.009-0.204-0.013-0.305-0.015c-2.538-0.001-4.596,2.057-4.596,4.595c0,0.001,0,0.001,0,0.001c0.001,0.052,0.003,0.105,0.006,0.157C-109.468-2.113-109.367-2.107-109.264-2.106L-109.264-2.106z" />
    </g>
  </g>
</svg>